<svg xmlns="http://www.w3.org/2000/svg" width="271" height="448" viewBox="0 0 271 448">
    <g fill="none" fill-rule="evenodd" opacity=".853">
        <g>
            <path fill="#000" d="M76.782 111.137l-.057-.435c-.754-5.743.942-11.37 4.775-15.843 3.834-4.472 9.26-7.157 15.283-7.562l9.219-.619c16.802-1.128 29.522-14.573 29.1-30.678h-9.552c.42 11.291-8.46 20.755-20.215 21.544l-9.22.62c-8.664.582-16.475 4.446-21.991 10.882-5.357 6.25-7.813 14.066-6.957 22.09" opacity=".4" transform="translate(0 226)"/>
            <path fill="#E97200" d="M9.782 111.137l-.057-.435c-.754-5.743.942-11.37 4.775-15.843 3.834-4.472 9.26-7.157 15.283-7.562l9.219-.619C55.804 85.55 68.524 72.105 68.102 56H58.55c.42 11.291-8.46 20.755-20.215 21.544l-9.22.62c-8.664.582-16.475 4.446-21.991 10.882-5.357 6.25-7.813 14.066-6.957 22.09" transform="translate(0 226)"/>
            <path fill="#E97200" d="M76.782 164.137l-.057-.435c-.754-5.743.942-11.37 4.775-15.843 3.834-4.472 9.26-7.157 15.283-7.562l9.219-.619c16.802-1.128 29.522-14.573 29.1-30.678h-9.552c.42 11.291-8.46 20.755-20.215 21.544l-9.22.62c-8.664.582-16.475 4.446-21.991 10.882-5.357 6.25-7.813 14.066-6.957 22.09" opacity=".75" transform="translate(0 226)"/>
            <path fill="#000" d="M76.782 221.137l-.057-.435c-.754-5.743.942-11.37 4.775-15.843 3.834-4.472 9.26-7.157 15.283-7.562l9.219-.619c16.802-1.128 29.522-14.573 29.1-30.678h-9.552c.42 11.291-8.46 20.755-20.215 21.544l-9.22.62c-8.664.582-16.475 4.446-21.991 10.882-5.357 6.25-7.813 14.066-6.957 22.09" opacity=".25" transform="translate(0 226)"/>
            <path fill="#E97200" d="M76.782 55.137l-.057-.435c-.754-5.743.942-11.37 4.775-15.843 3.834-4.472 9.26-7.157 15.283-7.562l9.219-.619c16.802-1.128 29.522-14.573 29.1-30.678h-9.552c.42 11.291-8.46 20.755-20.215 21.544l-9.22.62c-8.664.582-16.475 4.446-21.991 10.882-5.357 6.25-7.813 14.066-6.957 22.09" transform="translate(0 226)"/>
            <path fill="#000" d="M9.782 164.137l-.057-.435c-.754-5.743.942-11.37 4.775-15.843 3.834-4.472 9.26-7.157 15.283-7.562l9.219-.619c16.802-1.128 29.522-14.573 29.1-30.678H58.55c.42 11.291-8.46 20.755-20.215 21.544l-9.22.62c-8.664.582-16.475 4.446-21.991 10.882-5.357 6.25-7.813 14.066-6.957 22.09" opacity=".4" transform="translate(0 226)"/>
            <path fill="#E97200" d="M9.782 221.137l-.057-.435c-.754-5.743.942-11.37 4.775-15.843 3.834-4.472 9.26-7.157 15.283-7.562l9.219-.619c16.802-1.128 29.522-14.573 29.1-30.678H58.55c.42 11.291-8.46 20.755-20.215 21.544l-9.22.62c-8.664.582-16.475 4.446-21.991 10.882-5.357 6.25-7.813 14.066-6.957 22.09" opacity=".75" transform="translate(0 226)"/>
            <path fill="#000" d="M9.782 55.137l-.057-.435c-.754-5.743.942-11.37 4.775-15.843 3.834-4.472 9.26-7.157 15.283-7.562l9.219-.619C55.804 29.55 68.524 16.105 68.102 0H58.55c.42 11.291-8.46 20.755-20.215 21.544l-9.22.62c-8.664.582-16.475 4.446-21.991 10.882-5.357 6.25-7.813 14.066-6.957 22.09" opacity=".5" transform="translate(0 226)"/>
        </g>
        <g>
            <path fill="#000" d="M76.782 111.137l-.057-.435c-.754-5.743.942-11.37 4.775-15.843 3.834-4.472 9.26-7.157 15.283-7.562l9.219-.619c16.802-1.128 29.522-14.573 29.1-30.678h-9.552c.42 11.291-8.46 20.755-20.215 21.544l-9.22.62c-8.664.582-16.475 4.446-21.991 10.882-5.357 6.25-7.813 14.066-6.957 22.09" opacity=".25" transform="translate(135)"/>
            <path fill="#6C698D" d="M9.782 111.137l-.057-.435c-.754-5.743.942-11.37 4.775-15.843 3.834-4.472 9.26-7.157 15.283-7.562l9.219-.619C55.804 85.55 68.524 72.105 68.102 56H58.55c.42 11.291-8.46 20.755-20.215 21.544l-9.22.62c-8.664.582-16.475 4.446-21.991 10.882-5.357 6.25-7.813 14.066-6.957 22.09" opacity=".75" transform="translate(135)"/>
            <path fill="#6C698D" d="M76.782 164.137l-.057-.435c-.754-5.743.942-11.37 4.775-15.843 3.834-4.472 9.26-7.157 15.283-7.562l9.219-.619c16.802-1.128 29.522-14.573 29.1-30.678h-9.552c.42 11.291-8.46 20.755-20.215 21.544l-9.22.62c-8.664.582-16.475 4.446-21.991 10.882-5.357 6.25-7.813 14.066-6.957 22.09" transform="translate(135)"/>
            <path fill="#000" d="M76.782 221.137l-.057-.435c-.754-5.743.942-11.37 4.775-15.843 3.834-4.472 9.26-7.157 15.283-7.562l9.219-.619c16.802-1.128 29.522-14.573 29.1-30.678h-9.552c.42 11.291-8.46 20.755-20.215 21.544l-9.22.62c-8.664.582-16.475 4.446-21.991 10.882-5.357 6.25-7.813 14.066-6.957 22.09" opacity=".5" transform="translate(135)"/>
            <path fill="#6C698D" d="M76.782 55.137l-.057-.435c-.754-5.743.942-11.37 4.775-15.843 3.834-4.472 9.26-7.157 15.283-7.562l9.219-.619c16.802-1.128 29.522-14.573 29.1-30.678h-9.552c.42 11.291-8.46 20.755-20.215 21.544l-9.22.62c-8.664.582-16.475 4.446-21.991 10.882-5.357 6.25-7.813 14.066-6.957 22.09" opacity=".75" transform="translate(135)"/>
            <path fill="#000" d="M9.782 164.137l-.057-.435c-.754-5.743.942-11.37 4.775-15.843 3.834-4.472 9.26-7.157 15.283-7.562l9.219-.619c16.802-1.128 29.522-14.573 29.1-30.678H58.55c.42 11.291-8.46 20.755-20.215 21.544l-9.22.62c-8.664.582-16.475 4.446-21.991 10.882-5.357 6.25-7.813 14.066-6.957 22.09" opacity=".25" transform="translate(135)"/>
            <path fill="#6C698D" d="M9.782 221.137l-.057-.435c-.754-5.743.942-11.37 4.775-15.843 3.834-4.472 9.26-7.157 15.283-7.562l9.219-.619c16.802-1.128 29.522-14.573 29.1-30.678H58.55c.42 11.291-8.46 20.755-20.215 21.544l-9.22.62c-8.664.582-16.475 4.446-21.991 10.882-5.357 6.25-7.813 14.066-6.957 22.09" transform="translate(135)"/>
            <path fill="#000" d="M9.782 55.137l-.057-.435c-.754-5.743.942-11.37 4.775-15.843 3.834-4.472 9.26-7.157 15.283-7.562l9.219-.619C55.804 29.55 68.524 16.105 68.102 0H58.55c.42 11.291-8.46 20.755-20.215 21.544l-9.22.62c-8.664.582-16.475 4.446-21.991 10.882-5.357 6.25-7.813 14.066-6.957 22.09" transform="translate(135)"/>
        </g>
    </g>
</svg>
