<svg xmlns="http://www.w3.org/2000/svg" width="119" height="146" viewBox="0 0 119 146">
    <g fill="none" fill-rule="evenodd">
        <path fill="#E97200" d="M67.488 145.12l-.05-.38c-.654-5.013.817-9.923 4.143-13.826 3.326-3.904 8.035-6.247 13.26-6.6l7.999-.54c14.578-.985 25.615-12.718 25.248-26.774H109.8c.365 9.854-7.34 18.114-17.539 18.802l-7.999.54c-7.518.509-14.295 3.881-19.08 9.498-4.649 5.455-6.78 12.276-6.037 19.28M67.488 48.12l-.05-.38c-.654-5.013.817-9.923 4.143-13.826 3.326-3.904 8.035-6.247 13.26-6.6l7.999-.54c14.578-.985 25.615-12.718 25.248-26.774H109.8c.365 9.854-7.34 18.114-17.539 18.802l-7.999.54c-7.518.509-14.295 3.881-19.08 9.498-4.649 5.455-6.78 12.276-6.037 19.28"/>
        <path fill="#000" d="M8.488 145.12l-.05-.38c-.654-5.013.817-9.923 4.143-13.826 3.326-3.904 8.035-6.247 13.26-6.6l7.999-.54c14.578-.985 25.615-12.718 25.248-26.774H50.8c.365 9.854-7.34 18.114-17.539 18.802l-7.999.54c-7.518.509-14.295 3.881-19.08 9.498-4.649 5.455-6.78 12.276-6.037 19.28M67.488 97.12l-.05-.38c-.654-5.013.817-9.923 4.143-13.826 3.326-3.904 8.035-6.247 13.26-6.6l7.999-.54c14.578-.985 25.615-12.718 25.248-26.774H109.8c.365 9.854-7.34 18.114-17.539 18.802l-7.999.54c-7.518.509-14.295 3.881-19.08 9.498-4.649 5.455-6.78 12.276-6.037 19.28" opacity=".443"/>
        <path fill="#E97200" d="M8.488 97.12l-.05-.38c-.654-5.013.817-9.923 4.143-13.826 3.326-3.904 8.035-6.247 13.26-6.6l7.999-.54C48.418 74.789 59.455 63.056 59.088 49H50.8c.365 9.854-7.34 18.114-17.539 18.802l-7.999.54c-7.518.509-14.295 3.881-19.08 9.498C1.532 83.295-.599 90.116.144 97.12"/>
        <path fill="#000" d="M8.488 48.12l-.05-.38c-.654-5.013.817-9.923 4.143-13.826 3.326-3.904 8.035-6.247 13.26-6.6l7.999-.54C48.418 25.789 59.455 14.056 59.088 0H50.8c.365 9.854-7.34 18.114-17.539 18.802l-7.999.54c-7.518.509-14.295 3.881-19.08 9.498C1.532 34.295-.599 41.116.144 48.12" opacity=".443"/>
    </g>
</svg>
