<svg xmlns="http://www.w3.org/2000/svg" width="266" height="31" viewBox="0 0 266 31">
    <g fill="none" fill-rule="evenodd">
        <path fill="#E97200" fill-rule="nonzero" d="M57.96 32.48c2.32 0 4.56-.96 6.32-2.52L62.8 27.8c-1.16 1.04-2.72 1.96-4.56 1.96-3.56 0-6-3-6-7.44 0-4.48 2.56-7.52 6.08-7.52 1.56 0 2.76.72 3.92 1.72l1.64-2.12c-1.32-1.24-3.12-2.32-5.68-2.32-5 0-9.36 3.72-9.36 10.24 0 6.44 3.96 10.16 9.12 10.16zm17.52 0c4.76 0 9-3.72 9-10.16 0-6.52-4.24-10.24-9-10.24s-9 3.72-9 10.24c0 6.44 4.24 10.16 9 10.16zm0-2.72c-3.32 0-5.6-3-5.6-7.44 0-4.48 2.28-7.52 5.6-7.52 3.36 0 5.6 3.04 5.6 7.52 0 4.44-2.24 7.44-5.6 7.44zM93.12 32V19.52c1.32-3.28 3.28-4.48 4.92-4.48.8 0 1.24.12 1.88.32l.64-2.88c-.64-.28-1.24-.4-2.08-.4-2.2 0-4.2 1.56-5.52 4h-.12l-.28-3.52h-2.72V32h3.28zm18.32.48c2.64 0 4.72-.92 6.4-2l-1.16-2.16c-1.44.92-3 1.52-4.84 1.52-3.72 0-6.24-2.64-6.48-6.84h13.12c.08-.48.12-1.12.12-1.8 0-5.56-2.8-9.12-7.76-9.12-4.44 0-8.72 3.88-8.72 10.24s4.12 10.16 9.32 10.16zm4.28-11.64h-10.4c.4-3.92 2.88-6.16 5.6-6.16 3.04 0 4.8 2.2 4.8 6.16zM135.8 32V15.24h4.12v-2.68h-4.12V9.48c0-2.48.88-3.76 2.72-3.76.72 0 1.48.16 2.2.48l.72-2.52c-.88-.36-2.04-.64-3.24-.64-3.88 0-5.68 2.48-5.68 6.44v3.08l-2.64.2v2.48h2.64V32h3.28zm15.56.48c2.64 0 4.72-.92 6.4-2l-1.16-2.16c-1.44.92-3 1.52-4.84 1.52-3.72 0-6.24-2.64-6.48-6.84h13.12c.08-.48.12-1.12.12-1.8 0-5.56-2.8-9.12-7.76-9.12-4.44 0-8.72 3.88-8.72 10.24s4.12 10.16 9.32 10.16zm4.28-11.64h-10.4c.4-3.92 2.88-6.16 5.6-6.16 3.04 0 4.8 2.2 4.8 6.16zm12.12 11.64c2.4 0 4.56-1.28 6.44-2.8h.08l.28 2.32h2.72V20.08c0-4.84-2-8-6.76-8-3.12 0-5.84 1.36-7.64 2.52l1.32 2.28c1.52-1.04 3.52-2.08 5.8-2.08 3.16 0 4 2.4 4 4.88-8.28.92-11.96 3.04-11.96 7.28 0 3.48 2.44 5.52 5.72 5.52zm.92-2.64c-1.92 0-3.4-.92-3.4-3.12 0-2.48 2.2-4.08 8.72-4.88v5.4c-1.88 1.68-3.44 2.6-5.32 2.6zm21.16 2.64c1.2 0 2.52-.36 3.6-.72l-.64-2.48c-.64.24-1.52.52-2.2.52-2.24 0-3-1.36-3-3.76v-10.8h5.24v-2.68h-5.24V7.12h-2.76l-.4 5.44-3.04.2v2.48h2.88V26c0 3.84 1.4 6.48 5.56 6.48zm13.08 0c2.68 0 4.6-1.4 6.4-3.52h.12l.28 3.04h2.72V12.56h-3.28v13.8c-1.84 2.28-3.24 3.28-5.24 3.28-2.56 0-3.64-1.56-3.64-5.2V12.56h-3.32v12.32c0 4.96 1.84 7.6 5.96 7.6zm19.6-.48V19.52c1.32-3.28 3.28-4.48 4.92-4.48.8 0 1.24.12 1.88.32l.64-2.88c-.64-.28-1.24-.4-2.08-.4-2.2 0-4.2 1.56-5.52 4h-.12l-.28-3.52h-2.72V32h3.28zm18.32.48c2.64 0 4.72-.92 6.4-2l-1.16-2.16c-1.44.92-3 1.52-4.84 1.52-3.72 0-6.24-2.64-6.48-6.84h13.12c.08-.48.12-1.12.12-1.8 0-5.56-2.8-9.12-7.76-9.12-4.44 0-8.72 3.88-8.72 10.24s4.12 10.16 9.32 10.16zm4.28-11.64h-10.4c.4-3.92 2.88-6.16 5.6-6.16 3.04 0 4.8 2.2 4.8 6.16zm13 11.64c4.6 0 7.12-2.64 7.12-5.8 0-3.68-3.12-4.84-5.92-5.88-2.2-.84-4.32-1.56-4.32-3.36 0-1.48 1.12-2.8 3.56-2.8 1.72 0 3.12.72 4.44 1.72l1.56-2.08c-1.48-1.2-3.6-2.2-6.04-2.2-4.2 0-6.68 2.4-6.68 5.52 0 3.28 3.04 4.6 5.8 5.6 2.12.8 4.44 1.68 4.44 3.68 0 1.68-1.28 3.04-3.84 3.04-2.32 0-4.04-.96-5.72-2.32l-1.64 2.2c1.84 1.52 4.48 2.68 7.24 2.68z" transform="translate(0 -3)"/>
        <path fill="#6C698D" d="M5.482 33.075l-.032-.237c-.422-3.133.528-6.202 2.676-8.642 2.149-2.44 5.19-3.904 8.565-4.125l5.166-.337c9.416-.616 16.545-7.95 16.308-16.734h-5.353c.235 6.159-4.741 11.321-11.329 11.751l-5.166.338c-4.856.318-9.234 2.425-12.325 5.936C.99 24.435-.386 28.698.093 33.075" transform="translate(0 -3)"/>
    </g>
</svg>
