<svg xmlns="http://www.w3.org/2000/svg" width="508" height="345" viewBox="0 0 508 345">
    <g fill="none" fill-rule="evenodd">
        <path fill="#000" fill-opacity=".146" d="M0 0H508V345H0z"/>
        <g opacity=".853">
            <g>
                <path fill="#E97200" d="M96.228 207.171l-.072-.544c-.942-7.206 1.178-14.265 5.97-19.876 4.791-5.611 11.575-8.98 19.103-9.487l11.523-.777c21.003-1.416 36.904-18.282 36.375-38.487h-11.94c.525 14.166-10.575 26.039-25.269 27.028l-11.523.777c-10.832.73-20.595 5.578-27.49 13.653-6.696 7.84-9.766 17.647-8.697 27.713" transform="translate(339)"/>
                <path fill="#6C698D" d="M96.228 69.171l-.072-.544c-.942-7.206 1.178-14.265 5.97-19.876 4.791-5.611 11.575-8.98 19.103-9.487l11.523-.777C153.755 37.071 169.656 20.205 169.127 0h-11.94c.525 14.166-10.575 26.039-25.269 27.028l-11.523.777c-10.832.73-20.595 5.578-27.49 13.653-6.696 7.84-9.766 17.647-8.697 27.713" transform="translate(339)"/>
                <path fill="#FFF" d="M12.228 207.171l-.072-.544c-.942-7.206 1.178-14.265 5.97-19.876 4.791-5.611 11.575-8.98 19.103-9.487l11.523-.777c21.003-1.416 36.904-18.282 36.375-38.487h-11.94c.525 14.166-10.575 26.039-25.269 27.028l-11.523.777c-10.832.73-20.595 5.578-27.49 13.653-6.696 7.84-9.766 17.647-8.697 27.713" opacity=".654" transform="translate(339)"/>
                <path fill="#FFF" d="M12.228 69.171l-.072-.544c-.942-7.206 1.178-14.265 5.97-19.876 4.791-5.611 11.575-8.98 19.103-9.487l11.523-.777C69.755 37.071 85.656 20.205 85.127 0h-11.94c.525 14.166-10.575 26.039-25.269 27.028l-11.523.777c-10.832.73-20.595 5.578-27.49 13.653C2.209 49.298-.861 59.105.208 69.17M96.228 275.171l-.072-.544c-.942-7.206 1.178-14.265 5.97-19.876 4.791-5.611 11.575-8.98 19.103-9.487l11.523-.777c21.003-1.416 36.904-18.282 36.375-38.487h-11.94c.525 14.166-10.575 26.039-25.269 27.028l-11.523.777c-10.832.73-20.595 5.578-27.49 13.653-6.696 7.84-9.766 17.647-8.697 27.713" transform="translate(339)"/>
                <path fill="#000" d="M96.228 345.171l-.072-.544c-.942-7.206 1.178-14.265 5.97-19.876 4.791-5.611 11.575-8.98 19.103-9.487l11.523-.777c21.003-1.416 36.904-18.282 36.375-38.487h-11.94c.525 14.166-10.575 26.039-25.269 27.028l-11.523.777c-10.832.73-20.595 5.578-27.49 13.653-6.696 7.84-9.766 17.647-8.697 27.713" opacity=".302" transform="translate(339)"/>
                <path fill="#FFF" d="M96.228 138.171l-.072-.544c-.942-7.206 1.178-14.265 5.97-19.876 4.791-5.611 11.575-8.98 19.103-9.487l11.523-.777c21.003-1.416 36.904-18.282 36.375-38.487h-11.94c.525 14.166-10.575 26.039-25.269 27.028l-11.523.777c-10.832.73-20.595 5.578-27.49 13.653-6.696 7.84-9.766 17.647-8.697 27.713" opacity=".654" transform="translate(339)"/>
                <path fill="#E97200" d="M12.228 275.171l-.072-.544c-.942-7.206 1.178-14.265 5.97-19.876 4.791-5.611 11.575-8.98 19.103-9.487l11.523-.777c21.003-1.416 36.904-18.282 36.375-38.487h-11.94c.525 14.166-10.575 26.039-25.269 27.028l-11.523.777c-10.832.73-20.595 5.578-27.49 13.653-6.696 7.84-9.766 17.647-8.697 27.713" transform="translate(339)"/>
                <path fill="#FFF" d="M12.228 345.171l-.072-.544c-.942-7.206 1.178-14.265 5.97-19.876 4.791-5.611 11.575-8.98 19.103-9.487l11.523-.777c21.003-1.416 36.904-18.282 36.375-38.487h-11.94c.525 14.166-10.575 26.039-25.269 27.028l-11.523.777c-10.832.73-20.595 5.578-27.49 13.653-6.696 7.84-9.766 17.647-8.697 27.713" transform="translate(339)"/>
                <path fill="#6C698D" d="M12.228 138.171l-.072-.544c-.942-7.206 1.178-14.265 5.97-19.876 4.791-5.611 11.575-8.98 19.103-9.487l11.523-.777C69.755 106.071 85.656 89.205 85.127 69h-11.94c.525 14.166-10.575 26.039-25.269 27.028l-11.523.777c-10.832.73-20.595 5.578-27.49 13.653-6.696 7.84-9.766 17.647-8.697 27.713" transform="translate(339)"/>
            </g>
            <g>
                <path fill="#6C698D" d="M96.228 207.171l-.072-.544c-.942-7.206 1.178-14.265 5.97-19.876 4.791-5.611 11.575-8.98 19.103-9.487l11.523-.777c21.003-1.416 36.904-18.282 36.375-38.487h-11.94c.525 14.166-10.575 26.039-25.269 27.028l-11.523.777c-10.832.73-20.595 5.578-27.49 13.653-6.696 7.84-9.766 17.647-8.697 27.713" transform="translate(170)"/>
                <path fill="#000" d="M96.228 69.171l-.072-.544c-.942-7.206 1.178-14.265 5.97-19.876 4.791-5.611 11.575-8.98 19.103-9.487l11.523-.777C153.755 37.071 169.656 20.205 169.127 0h-11.94c.525 14.166-10.575 26.039-25.269 27.028l-11.523.777c-10.832.73-20.595 5.578-27.49 13.653-6.696 7.84-9.766 17.647-8.697 27.713" opacity=".302" transform="translate(170)"/>
                <path fill="#FFF" d="M12.228 207.171l-.072-.544c-.942-7.206 1.178-14.265 5.97-19.876 4.791-5.611 11.575-8.98 19.103-9.487l11.523-.777c21.003-1.416 36.904-18.282 36.375-38.487h-11.94c.525 14.166-10.575 26.039-25.269 27.028l-11.523.777c-10.832.73-20.595 5.578-27.49 13.653-6.696 7.84-9.766 17.647-8.697 27.713" transform="translate(170)"/>
                <path fill="#FFF" d="M12.228 69.171l-.072-.544c-.942-7.206 1.178-14.265 5.97-19.876 4.791-5.611 11.575-8.98 19.103-9.487l11.523-.777C69.755 37.071 85.656 20.205 85.127 0h-11.94c.525 14.166-10.575 26.039-25.269 27.028l-11.523.777c-10.832.73-20.595 5.578-27.49 13.653C2.209 49.298-.861 59.105.208 69.17M96.228 275.171l-.072-.544c-.942-7.206 1.178-14.265 5.97-19.876 4.791-5.611 11.575-8.98 19.103-9.487l11.523-.777c21.003-1.416 36.904-18.282 36.375-38.487h-11.94c.525 14.166-10.575 26.039-25.269 27.028l-11.523.777c-10.832.73-20.595 5.578-27.49 13.653-6.696 7.84-9.766 17.647-8.697 27.713" opacity=".654" transform="translate(170)"/>
                <path fill="#E97200" d="M96.228 345.171l-.072-.544c-.942-7.206 1.178-14.265 5.97-19.876 4.791-5.611 11.575-8.98 19.103-9.487l11.523-.777c21.003-1.416 36.904-18.282 36.375-38.487h-11.94c.525 14.166-10.575 26.039-25.269 27.028l-11.523.777c-10.832.73-20.595 5.578-27.49 13.653-6.696 7.84-9.766 17.647-8.697 27.713" transform="translate(170)"/>
                <path fill="#FFF" d="M96.228 138.171l-.072-.544c-.942-7.206 1.178-14.265 5.97-19.876 4.791-5.611 11.575-8.98 19.103-9.487l11.523-.777c21.003-1.416 36.904-18.282 36.375-38.487h-11.94c.525 14.166-10.575 26.039-25.269 27.028l-11.523.777c-10.832.73-20.595 5.578-27.49 13.653-6.696 7.84-9.766 17.647-8.697 27.713" transform="translate(170)"/>
                <path fill="#6C698D" d="M12.228 275.171l-.072-.544c-.942-7.206 1.178-14.265 5.97-19.876 4.791-5.611 11.575-8.98 19.103-9.487l11.523-.777c21.003-1.416 36.904-18.282 36.375-38.487h-11.94c.525 14.166-10.575 26.039-25.269 27.028l-11.523.777c-10.832.73-20.595 5.578-27.49 13.653-6.696 7.84-9.766 17.647-8.697 27.713" transform="translate(170)"/>
                <path fill="#FFF" d="M12.228 345.171l-.072-.544c-.942-7.206 1.178-14.265 5.97-19.876 4.791-5.611 11.575-8.98 19.103-9.487l11.523-.777c21.003-1.416 36.904-18.282 36.375-38.487h-11.94c.525 14.166-10.575 26.039-25.269 27.028l-11.523.777c-10.832.73-20.595 5.578-27.49 13.653-6.696 7.84-9.766 17.647-8.697 27.713" opacity=".654" transform="translate(170)"/>
                <path fill="#000" d="M12.228 138.171l-.072-.544c-.942-7.206 1.178-14.265 5.97-19.876 4.791-5.611 11.575-8.98 19.103-9.487l11.523-.777C69.755 106.071 85.656 89.205 85.127 69h-11.94c.525 14.166-10.575 26.039-25.269 27.028l-11.523.777c-10.832.73-20.595 5.578-27.49 13.653-6.696 7.84-9.766 17.647-8.697 27.713" opacity=".302" transform="translate(170)"/>
            </g>
            <path fill="#000" d="M97.228 207.171l-.072-.544c-.942-7.206 1.178-14.265 5.97-19.876 4.791-5.611 11.575-8.98 19.103-9.487l11.523-.777c21.003-1.416 36.904-18.282 36.375-38.487h-11.94c.525 14.166-10.575 26.039-25.269 27.028l-11.523.777c-10.832.73-20.595 5.578-27.49 13.653-6.696 7.84-9.766 17.647-8.697 27.713" opacity=".302"/>
            <path fill="#000" d="M97.228 69.171l-.072-.544c-.942-7.206 1.178-14.265 5.97-19.876 4.791-5.611 11.575-8.98 19.103-9.487l11.523-.777C154.755 37.071 170.656 20.205 170.127 0h-11.94c.525 14.166-10.575 26.039-25.269 27.028l-11.523.777c-10.832.73-20.595 5.578-27.49 13.653-6.696 7.84-9.766 17.647-8.697 27.713" opacity=".75"/>
            <path fill="#FFF" d="M12.228 207.171l-.072-.544c-.942-7.206 1.178-14.265 5.97-19.876 4.791-5.611 11.575-8.98 19.103-9.487l11.523-.777c21.003-1.416 36.904-18.282 36.375-38.487h-11.94c.525 14.166-10.575 26.039-25.269 27.028l-11.523.777c-10.832.73-20.595 5.578-27.49 13.653-6.696 7.84-9.766 17.647-8.697 27.713" opacity=".654"/>
            <path fill="#FFF" d="M12.228 69.171l-.072-.544c-.942-7.206 1.178-14.265 5.97-19.876 4.791-5.611 11.575-8.98 19.103-9.487l11.523-.777C69.755 37.071 85.656 20.205 85.127 0h-11.94c.525 14.166-10.575 26.039-25.269 27.028l-11.523.777c-10.832.73-20.595 5.578-27.49 13.653C2.209 49.298-.861 59.105.208 69.17" opacity=".65"/>
            <path fill="#FFF" d="M97.228 275.171l-.072-.544c-.942-7.206 1.178-14.265 5.97-19.876 4.791-5.611 11.575-8.98 19.103-9.487l11.523-.777c21.003-1.416 36.904-18.282 36.375-38.487h-11.94c.525 14.166-10.575 26.039-25.269 27.028l-11.523.777c-10.832.73-20.595 5.578-27.49 13.653-6.696 7.84-9.766 17.647-8.697 27.713"/>
            <path fill="#6C698D" d="M97.228 345.171l-.072-.544c-.942-7.206 1.178-14.265 5.97-19.876 4.791-5.611 11.575-8.98 19.103-9.487l11.523-.777c21.003-1.416 36.904-18.282 36.375-38.487h-11.94c.525 14.166-10.575 26.039-25.269 27.028l-11.523.777c-10.832.73-20.595 5.578-27.49 13.653-6.696 7.84-9.766 17.647-8.697 27.713"/>
            <path fill="#FFF" d="M97.228 138.171l-.072-.544c-.942-7.206 1.178-14.265 5.97-19.876 4.791-5.611 11.575-8.98 19.103-9.487l11.523-.777c21.003-1.416 36.904-18.282 36.375-38.487h-11.94c.525 14.166-10.575 26.039-25.269 27.028l-11.523.777c-10.832.73-20.595 5.578-27.49 13.653-6.696 7.84-9.766 17.647-8.697 27.713" opacity=".654"/>
            <path fill="#000" d="M12.228 275.171l-.072-.544c-.942-7.206 1.178-14.265 5.97-19.876 4.791-5.611 11.575-8.98 19.103-9.487l11.523-.777c21.003-1.416 36.904-18.282 36.375-38.487h-11.94c.525 14.166-10.575 26.039-25.269 27.028l-11.523.777c-10.832.73-20.595 5.578-27.49 13.653-6.696 7.84-9.766 17.647-8.697 27.713" opacity=".302"/>
            <path fill="#FFF" d="M12.228 345.171l-.072-.544c-.942-7.206 1.178-14.265 5.97-19.876 4.791-5.611 11.575-8.98 19.103-9.487l11.523-.777c21.003-1.416 36.904-18.282 36.375-38.487h-11.94c.525 14.166-10.575 26.039-25.269 27.028l-11.523.777c-10.832.73-20.595 5.578-27.49 13.653-6.696 7.84-9.766 17.647-8.697 27.713"/>
            <path fill="#000" d="M12.228 138.171l-.072-.544c-.942-7.206 1.178-14.265 5.97-19.876 4.791-5.611 11.575-8.98 19.103-9.487l11.523-.777C69.755 106.071 85.656 89.205 85.127 69h-11.94c.525 14.166-10.575 26.039-25.269 27.028l-11.523.777c-10.832.73-20.595 5.578-27.49 13.653-6.696 7.84-9.766 17.647-8.697 27.713" opacity=".75"/>
        </g>
    </g>
</svg>
