<svg xmlns="http://www.w3.org/2000/svg" width="39" height="30" viewBox="0 0 39 30">
    <g fill="none" fill-rule="evenodd">
        <path fill="#6C698D" fill-opacity=".3" d="M25.356 26.301c-2.57 2.282-3.598 5.36-8.27 2.622C12.577 26.304 6.23 28.11 3.538 26.3.91 24.101 0 18.378 0 16.201c0-2.025 2.993-7.026 7.442-9.051C12.34 5.303 14.06 3.268 17.646.927c3.571-2.659 12.637.825 16.513 5.097 3.498 4.337 5.918 4.76 4.357 9.122-1.906 4.8-10.878 9.229-13.16 11.155z"/>
        <path fill="#6C698D" fill-opacity=".567" d="M24.522 24.097C22.737 25.753 20.988 26 18.777 26c-2.21 0-8.275-.59-10.145-1.903-1.826-1.598-3.913-3.291-4.54-6.867-.887-3.25 4.895-5.568 7.986-7.039 3.402-1.34 4.597-2.818 7.088-4.518 2.481-1.93 8.778.599 11.47 3.701 2.431 3.149 4.112 3.456 3.028 6.623-1.324 3.486-7.557 6.701-9.142 8.1z"/>
        <path fill="#E97200" fill-opacity=".5" d="M20.313 23.731C19.243 24.836 18.193 25 16.866 25c-1.326 0-4.965-.393-6.087-1.269-1.095-1.065-2.347-2.194-2.724-4.578-.532-2.167 2.937-3.712 4.792-4.692 2.041-.894 2.758-1.879 4.253-3.012 1.488-1.287 5.267.399 6.882 2.467 1.458 2.1 2.467 2.304 1.816 4.416-.794 2.323-4.534 4.467-5.485 5.4z"/>
        <path fill="#E97200" d="M13.076 20.21c-.355-1.31.58-3.18 1.816-3.773 1.36-.541 3.615-1.437 4.812-1.437 1.333 0 2.521 1.437 2.26 3.756-.927 2.874-8.002 4.85-8.888 1.454z"/>
    </g>
</svg>
