<?xml version="1.0" encoding="utf-8" standalone="no"?>
<!DOCTYPE svg PUBLIC "-//W3C//DTD SVG 1.1//EN"
  "http://www.w3.org/Graphics/SVG/1.1/DTD/svg11.dtd">
<!-- Created with matplotlib (https://matplotlib.org/) -->
<svg height="603.474375pt" version="1.1" viewBox="0 0 612.165625 603.474375" width="612.165625pt" xmlns="http://www.w3.org/2000/svg" xmlns:xlink="http://www.w3.org/1999/xlink">
 <metadata>
  <rdf:RDF xmlns:cc="http://creativecommons.org/ns#" xmlns:dc="http://purl.org/dc/elements/1.1/" xmlns:rdf="http://www.w3.org/1999/02/22-rdf-syntax-ns#">
   <cc:Work>
    <dc:type rdf:resource="http://purl.org/dc/dcmitype/StillImage"/>
    <dc:date>2020-10-06T19:10:01.480299</dc:date>
    <dc:format>image/svg+xml</dc:format>
    <dc:creator>
     <cc:Agent>
      <dc:title>Matplotlib v3.3.1, https://matplotlib.org/</dc:title>
     </cc:Agent>
    </dc:creator>
   </cc:Work>
  </rdf:RDF>
 </metadata>
 <defs>
  <style type="text/css">*{stroke-linecap:butt;stroke-linejoin:round;}</style>
 </defs>
 <g id="figure_1">
  <g id="patch_1">
   <path d="M 0 603.474375 
L 612.165625 603.474375 
L 612.165625 0 
L 0 0 
z
" style="fill:none;"/>
  </g>
  <g id="axes_1">
   <g id="patch_2">
    <path d="M 46.965625 116.042263 
L 604.965625 116.042263 
L 604.965625 22.318125 
L 46.965625 22.318125 
z
" style="fill:#ffffff;"/>
   </g>
   <g id="patch_3">
    <path clip-path="url(#p6807ff00f1)" d="M 72.329261 116.042263 
L 88.181534 116.042263 
L 88.181534 26.781179 
L 72.329261 26.781179 
z
" style="fill:#1f77b4;fill-opacity:0.75;stroke:#000000;stroke-linejoin:miter;"/>
   </g>
   <g id="patch_4">
    <path clip-path="url(#p6807ff00f1)" d="M 88.181534 116.042263 
L 104.033807 116.042263 
L 104.033807 116.042263 
L 88.181534 116.042263 
z
" style="fill:#1f77b4;fill-opacity:0.75;stroke:#000000;stroke-linejoin:miter;"/>
   </g>
   <g id="patch_5">
    <path clip-path="url(#p6807ff00f1)" d="M 104.033807 116.042263 
L 119.88608 116.042263 
L 119.88608 116.042263 
L 104.033807 116.042263 
z
" style="fill:#1f77b4;fill-opacity:0.75;stroke:#000000;stroke-linejoin:miter;"/>
   </g>
   <g id="patch_6">
    <path clip-path="url(#p6807ff00f1)" d="M 119.88608 116.042263 
L 135.738352 116.042263 
L 135.738352 116.042263 
L 119.88608 116.042263 
z
" style="fill:#1f77b4;fill-opacity:0.75;stroke:#000000;stroke-linejoin:miter;"/>
   </g>
   <g id="patch_7">
    <path clip-path="url(#p6807ff00f1)" d="M 135.738352 116.042263 
L 151.590625 116.042263 
L 151.590625 113.642771 
L 135.738352 113.642771 
z
" style="fill:#1f77b4;fill-opacity:0.75;stroke:#000000;stroke-linejoin:miter;"/>
   </g>
   <g id="patch_8">
    <path clip-path="url(#p6807ff00f1)" d="M 151.590625 116.042263 
L 167.442898 116.042263 
L 167.442898 115.562365 
L 151.590625 115.562365 
z
" style="fill:#1f77b4;fill-opacity:0.75;stroke:#000000;stroke-linejoin:miter;"/>
   </g>
   <g id="patch_9">
    <path clip-path="url(#p6807ff00f1)" d="M 167.442898 116.042263 
L 183.29517 116.042263 
L 183.29517 110.043534 
L 167.442898 110.043534 
z
" style="fill:#1f77b4;fill-opacity:0.75;stroke:#000000;stroke-linejoin:miter;"/>
   </g>
   <g id="patch_10">
    <path clip-path="url(#p6807ff00f1)" d="M 183.29517 116.042263 
L 199.147443 116.042263 
L 199.147443 113.642771 
L 183.29517 113.642771 
z
" style="fill:#1f77b4;fill-opacity:0.75;stroke:#000000;stroke-linejoin:miter;"/>
   </g>
   <g id="patch_11">
    <path clip-path="url(#p6807ff00f1)" d="M 199.147443 116.042263 
L 214.999716 116.042263 
L 214.999716 112.922924 
L 199.147443 112.922924 
z
" style="fill:#1f77b4;fill-opacity:0.75;stroke:#000000;stroke-linejoin:miter;"/>
   </g>
   <g id="patch_12">
    <path clip-path="url(#p6807ff00f1)" d="M 214.999716 116.042263 
L 230.851989 116.042263 
L 230.851989 114.602568 
L 214.999716 114.602568 
z
" style="fill:#1f77b4;fill-opacity:0.75;stroke:#000000;stroke-linejoin:miter;"/>
   </g>
   <g id="patch_13">
    <path clip-path="url(#p6807ff00f1)" d="M 230.851989 116.042263 
L 246.704261 116.042263 
L 246.704261 114.362619 
L 230.851989 114.362619 
z
" style="fill:#1f77b4;fill-opacity:0.75;stroke:#000000;stroke-linejoin:miter;"/>
   </g>
   <g id="patch_14">
    <path clip-path="url(#p6807ff00f1)" d="M 246.704261 116.042263 
L 262.556534 116.042263 
L 262.556534 115.322415 
L 246.704261 115.322415 
z
" style="fill:#1f77b4;fill-opacity:0.75;stroke:#000000;stroke-linejoin:miter;"/>
   </g>
   <g id="patch_15">
    <path clip-path="url(#p6807ff00f1)" d="M 262.556534 116.042263 
L 278.408807 116.042263 
L 278.408807 114.362619 
L 262.556534 114.362619 
z
" style="fill:#1f77b4;fill-opacity:0.75;stroke:#000000;stroke-linejoin:miter;"/>
   </g>
   <g id="patch_16">
    <path clip-path="url(#p6807ff00f1)" d="M 278.408807 116.042263 
L 294.26108 116.042263 
L 294.26108 116.042263 
L 278.408807 116.042263 
z
" style="fill:#1f77b4;fill-opacity:0.75;stroke:#000000;stroke-linejoin:miter;"/>
   </g>
   <g id="patch_17">
    <path clip-path="url(#p6807ff00f1)" d="M 294.26108 116.042263 
L 310.113352 116.042263 
L 310.113352 114.602568 
L 294.26108 114.602568 
z
" style="fill:#1f77b4;fill-opacity:0.75;stroke:#000000;stroke-linejoin:miter;"/>
   </g>
   <g id="patch_18">
    <path clip-path="url(#p6807ff00f1)" d="M 310.113352 116.042263 
L 325.965625 116.042263 
L 325.965625 116.042263 
L 310.113352 116.042263 
z
" style="fill:#1f77b4;fill-opacity:0.75;stroke:#000000;stroke-linejoin:miter;"/>
   </g>
   <g id="patch_19">
    <path clip-path="url(#p6807ff00f1)" d="M 325.965625 116.042263 
L 341.817898 116.042263 
L 341.817898 115.322415 
L 325.965625 115.322415 
z
" style="fill:#1f77b4;fill-opacity:0.75;stroke:#000000;stroke-linejoin:miter;"/>
   </g>
   <g id="patch_20">
    <path clip-path="url(#p6807ff00f1)" d="M 341.817898 116.042263 
L 357.67017 116.042263 
L 357.67017 115.322415 
L 341.817898 115.322415 
z
" style="fill:#1f77b4;fill-opacity:0.75;stroke:#000000;stroke-linejoin:miter;"/>
   </g>
   <g id="patch_21">
    <path clip-path="url(#p6807ff00f1)" d="M 357.67017 116.042263 
L 373.522443 116.042263 
L 373.522443 116.042263 
L 357.67017 116.042263 
z
" style="fill:#1f77b4;fill-opacity:0.75;stroke:#000000;stroke-linejoin:miter;"/>
   </g>
   <g id="patch_22">
    <path clip-path="url(#p6807ff00f1)" d="M 373.522443 116.042263 
L 389.374716 116.042263 
L 389.374716 115.082466 
L 373.522443 115.082466 
z
" style="fill:#1f77b4;fill-opacity:0.75;stroke:#000000;stroke-linejoin:miter;"/>
   </g>
   <g id="patch_23">
    <path clip-path="url(#p6807ff00f1)" d="M 389.374716 116.042263 
L 405.226989 116.042263 
L 405.226989 116.042263 
L 389.374716 116.042263 
z
" style="fill:#1f77b4;fill-opacity:0.75;stroke:#000000;stroke-linejoin:miter;"/>
   </g>
   <g id="patch_24">
    <path clip-path="url(#p6807ff00f1)" d="M 405.226989 116.042263 
L 421.079261 116.042263 
L 421.079261 116.042263 
L 405.226989 116.042263 
z
" style="fill:#1f77b4;fill-opacity:0.75;stroke:#000000;stroke-linejoin:miter;"/>
   </g>
   <g id="patch_25">
    <path clip-path="url(#p6807ff00f1)" d="M 421.079261 116.042263 
L 436.931534 116.042263 
L 436.931534 115.322415 
L 421.079261 115.322415 
z
" style="fill:#1f77b4;fill-opacity:0.75;stroke:#000000;stroke-linejoin:miter;"/>
   </g>
   <g id="patch_26">
    <path clip-path="url(#p6807ff00f1)" d="M 436.931534 116.042263 
L 452.783807 116.042263 
L 452.783807 116.042263 
L 436.931534 116.042263 
z
" style="fill:#1f77b4;fill-opacity:0.75;stroke:#000000;stroke-linejoin:miter;"/>
   </g>
   <g id="patch_27">
    <path clip-path="url(#p6807ff00f1)" d="M 452.783807 116.042263 
L 468.63608 116.042263 
L 468.63608 115.322415 
L 452.783807 115.322415 
z
" style="fill:#1f77b4;fill-opacity:0.75;stroke:#000000;stroke-linejoin:miter;"/>
   </g>
   <g id="patch_28">
    <path clip-path="url(#p6807ff00f1)" d="M 468.63608 116.042263 
L 484.488352 116.042263 
L 484.488352 112.443026 
L 468.63608 112.443026 
z
" style="fill:#1f77b4;fill-opacity:0.75;stroke:#000000;stroke-linejoin:miter;"/>
   </g>
   <g id="patch_29">
    <path clip-path="url(#p6807ff00f1)" d="M 484.488352 116.042263 
L 500.340625 116.042263 
L 500.340625 115.562365 
L 484.488352 115.562365 
z
" style="fill:#1f77b4;fill-opacity:0.75;stroke:#000000;stroke-linejoin:miter;"/>
   </g>
   <g id="patch_30">
    <path clip-path="url(#p6807ff00f1)" d="M 500.340625 116.042263 
L 516.192898 116.042263 
L 516.192898 115.562365 
L 500.340625 115.562365 
z
" style="fill:#1f77b4;fill-opacity:0.75;stroke:#000000;stroke-linejoin:miter;"/>
   </g>
   <g id="patch_31">
    <path clip-path="url(#p6807ff00f1)" d="M 516.192898 116.042263 
L 532.04517 116.042263 
L 532.04517 114.842517 
L 516.192898 114.842517 
z
" style="fill:#1f77b4;fill-opacity:0.75;stroke:#000000;stroke-linejoin:miter;"/>
   </g>
   <g id="patch_32">
    <path clip-path="url(#p6807ff00f1)" d="M 532.04517 116.042263 
L 547.897443 116.042263 
L 547.897443 116.042263 
L 532.04517 116.042263 
z
" style="fill:#1f77b4;fill-opacity:0.75;stroke:#000000;stroke-linejoin:miter;"/>
   </g>
   <g id="patch_33">
    <path clip-path="url(#p6807ff00f1)" d="M 547.897443 116.042263 
L 563.749716 116.042263 
L 563.749716 115.082466 
L 547.897443 115.082466 
z
" style="fill:#1f77b4;fill-opacity:0.75;stroke:#000000;stroke-linejoin:miter;"/>
   </g>
   <g id="patch_34">
    <path clip-path="url(#p6807ff00f1)" d="M 563.749716 116.042263 
L 579.601989 116.042263 
L 579.601989 115.802314 
L 563.749716 115.802314 
z
" style="fill:#1f77b4;fill-opacity:0.75;stroke:#000000;stroke-linejoin:miter;"/>
   </g>
   <g id="matplotlib.axis_1">
    <g id="xtick_1">
     <g id="line2d_1">
      <defs>
       <path d="M 0 0 
L 0 3.5 
" id="m30409ba66d" style="stroke:#000000;stroke-width:0.8;"/>
      </defs>
      <g>
       <use style="stroke:#000000;stroke-width:0.8;" x="72.329261" xlink:href="#m30409ba66d" y="116.042263"/>
      </g>
     </g>
     <g id="text_1">
      <!-- 0 -->
      <g transform="translate(69.148011 130.6407)scale(0.1 -0.1)">
       <defs>
        <path d="M 31.78125 66.40625 
Q 24.171875 66.40625 20.328125 58.90625 
Q 16.5 51.421875 16.5 36.375 
Q 16.5 21.390625 20.328125 13.890625 
Q 24.171875 6.390625 31.78125 6.390625 
Q 39.453125 6.390625 43.28125 13.890625 
Q 47.125 21.390625 47.125 36.375 
Q 47.125 51.421875 43.28125 58.90625 
Q 39.453125 66.40625 31.78125 66.40625 
z
M 31.78125 74.21875 
Q 44.046875 74.21875 50.515625 64.515625 
Q 56.984375 54.828125 56.984375 36.375 
Q 56.984375 17.96875 50.515625 8.265625 
Q 44.046875 -1.421875 31.78125 -1.421875 
Q 19.53125 -1.421875 13.0625 8.265625 
Q 6.59375 17.96875 6.59375 36.375 
Q 6.59375 54.828125 13.0625 64.515625 
Q 19.53125 74.21875 31.78125 74.21875 
z
" id="DejaVuSans-48"/>
       </defs>
       <use xlink:href="#DejaVuSans-48"/>
      </g>
     </g>
    </g>
    <g id="xtick_2">
     <g id="line2d_2">
      <g>
       <use style="stroke:#000000;stroke-width:0.8;" x="173.783807" xlink:href="#m30409ba66d" y="116.042263"/>
      </g>
     </g>
     <g id="text_2">
      <!-- 20 -->
      <g transform="translate(167.421307 130.6407)scale(0.1 -0.1)">
       <defs>
        <path d="M 19.1875 8.296875 
L 53.609375 8.296875 
L 53.609375 0 
L 7.328125 0 
L 7.328125 8.296875 
Q 12.9375 14.109375 22.625 23.890625 
Q 32.328125 33.6875 34.8125 36.53125 
Q 39.546875 41.84375 41.421875 45.53125 
Q 43.3125 49.21875 43.3125 52.78125 
Q 43.3125 58.59375 39.234375 62.25 
Q 35.15625 65.921875 28.609375 65.921875 
Q 23.96875 65.921875 18.8125 64.3125 
Q 13.671875 62.703125 7.8125 59.421875 
L 7.8125 69.390625 
Q 13.765625 71.78125 18.9375 73 
Q 24.125 74.21875 28.421875 74.21875 
Q 39.75 74.21875 46.484375 68.546875 
Q 53.21875 62.890625 53.21875 53.421875 
Q 53.21875 48.921875 51.53125 44.890625 
Q 49.859375 40.875 45.40625 35.40625 
Q 44.1875 33.984375 37.640625 27.21875 
Q 31.109375 20.453125 19.1875 8.296875 
z
" id="DejaVuSans-50"/>
       </defs>
       <use xlink:href="#DejaVuSans-50"/>
       <use x="63.623047" xlink:href="#DejaVuSans-48"/>
      </g>
     </g>
    </g>
    <g id="xtick_3">
     <g id="line2d_3">
      <g>
       <use style="stroke:#000000;stroke-width:0.8;" x="275.238352" xlink:href="#m30409ba66d" y="116.042263"/>
      </g>
     </g>
     <g id="text_3">
      <!-- 40 -->
      <g transform="translate(268.875852 130.6407)scale(0.1 -0.1)">
       <defs>
        <path d="M 37.796875 64.3125 
L 12.890625 25.390625 
L 37.796875 25.390625 
z
M 35.203125 72.90625 
L 47.609375 72.90625 
L 47.609375 25.390625 
L 58.015625 25.390625 
L 58.015625 17.1875 
L 47.609375 17.1875 
L 47.609375 0 
L 37.796875 0 
L 37.796875 17.1875 
L 4.890625 17.1875 
L 4.890625 26.703125 
z
" id="DejaVuSans-52"/>
       </defs>
       <use xlink:href="#DejaVuSans-52"/>
       <use x="63.623047" xlink:href="#DejaVuSans-48"/>
      </g>
     </g>
    </g>
    <g id="xtick_4">
     <g id="line2d_4">
      <g>
       <use style="stroke:#000000;stroke-width:0.8;" x="376.692898" xlink:href="#m30409ba66d" y="116.042263"/>
      </g>
     </g>
     <g id="text_4">
      <!-- 60 -->
      <g transform="translate(370.330398 130.6407)scale(0.1 -0.1)">
       <defs>
        <path d="M 33.015625 40.375 
Q 26.375 40.375 22.484375 35.828125 
Q 18.609375 31.296875 18.609375 23.390625 
Q 18.609375 15.53125 22.484375 10.953125 
Q 26.375 6.390625 33.015625 6.390625 
Q 39.65625 6.390625 43.53125 10.953125 
Q 47.40625 15.53125 47.40625 23.390625 
Q 47.40625 31.296875 43.53125 35.828125 
Q 39.65625 40.375 33.015625 40.375 
z
M 52.59375 71.296875 
L 52.59375 62.3125 
Q 48.875 64.0625 45.09375 64.984375 
Q 41.3125 65.921875 37.59375 65.921875 
Q 27.828125 65.921875 22.671875 59.328125 
Q 17.53125 52.734375 16.796875 39.40625 
Q 19.671875 43.65625 24.015625 45.921875 
Q 28.375 48.1875 33.59375 48.1875 
Q 44.578125 48.1875 50.953125 41.515625 
Q 57.328125 34.859375 57.328125 23.390625 
Q 57.328125 12.15625 50.6875 5.359375 
Q 44.046875 -1.421875 33.015625 -1.421875 
Q 20.359375 -1.421875 13.671875 8.265625 
Q 6.984375 17.96875 6.984375 36.375 
Q 6.984375 53.65625 15.1875 63.9375 
Q 23.390625 74.21875 37.203125 74.21875 
Q 40.921875 74.21875 44.703125 73.484375 
Q 48.484375 72.75 52.59375 71.296875 
z
" id="DejaVuSans-54"/>
       </defs>
       <use xlink:href="#DejaVuSans-54"/>
       <use x="63.623047" xlink:href="#DejaVuSans-48"/>
      </g>
     </g>
    </g>
    <g id="xtick_5">
     <g id="line2d_5">
      <g>
       <use style="stroke:#000000;stroke-width:0.8;" x="478.147443" xlink:href="#m30409ba66d" y="116.042263"/>
      </g>
     </g>
     <g id="text_5">
      <!-- 80 -->
      <g transform="translate(471.784943 130.6407)scale(0.1 -0.1)">
       <defs>
        <path d="M 31.78125 34.625 
Q 24.75 34.625 20.71875 30.859375 
Q 16.703125 27.09375 16.703125 20.515625 
Q 16.703125 13.921875 20.71875 10.15625 
Q 24.75 6.390625 31.78125 6.390625 
Q 38.8125 6.390625 42.859375 10.171875 
Q 46.921875 13.96875 46.921875 20.515625 
Q 46.921875 27.09375 42.890625 30.859375 
Q 38.875 34.625 31.78125 34.625 
z
M 21.921875 38.8125 
Q 15.578125 40.375 12.03125 44.71875 
Q 8.5 49.078125 8.5 55.328125 
Q 8.5 64.0625 14.71875 69.140625 
Q 20.953125 74.21875 31.78125 74.21875 
Q 42.671875 74.21875 48.875 69.140625 
Q 55.078125 64.0625 55.078125 55.328125 
Q 55.078125 49.078125 51.53125 44.71875 
Q 48 40.375 41.703125 38.8125 
Q 48.828125 37.15625 52.796875 32.3125 
Q 56.78125 27.484375 56.78125 20.515625 
Q 56.78125 9.90625 50.3125 4.234375 
Q 43.84375 -1.421875 31.78125 -1.421875 
Q 19.734375 -1.421875 13.25 4.234375 
Q 6.78125 9.90625 6.78125 20.515625 
Q 6.78125 27.484375 10.78125 32.3125 
Q 14.796875 37.15625 21.921875 38.8125 
z
M 18.3125 54.390625 
Q 18.3125 48.734375 21.84375 45.5625 
Q 25.390625 42.390625 31.78125 42.390625 
Q 38.140625 42.390625 41.71875 45.5625 
Q 45.3125 48.734375 45.3125 54.390625 
Q 45.3125 60.0625 41.71875 63.234375 
Q 38.140625 66.40625 31.78125 66.40625 
Q 25.390625 66.40625 21.84375 63.234375 
Q 18.3125 60.0625 18.3125 54.390625 
z
" id="DejaVuSans-56"/>
       </defs>
       <use xlink:href="#DejaVuSans-56"/>
       <use x="63.623047" xlink:href="#DejaVuSans-48"/>
      </g>
     </g>
    </g>
    <g id="xtick_6">
     <g id="line2d_6">
      <g>
       <use style="stroke:#000000;stroke-width:0.8;" x="579.601989" xlink:href="#m30409ba66d" y="116.042263"/>
      </g>
     </g>
     <g id="text_6">
      <!-- 100 -->
      <g transform="translate(570.058239 130.6407)scale(0.1 -0.1)">
       <defs>
        <path d="M 12.40625 8.296875 
L 28.515625 8.296875 
L 28.515625 63.921875 
L 10.984375 60.40625 
L 10.984375 69.390625 
L 28.421875 72.90625 
L 38.28125 72.90625 
L 38.28125 8.296875 
L 54.390625 8.296875 
L 54.390625 0 
L 12.40625 0 
z
" id="DejaVuSans-49"/>
       </defs>
       <use xlink:href="#DejaVuSans-49"/>
       <use x="63.623047" xlink:href="#DejaVuSans-48"/>
       <use x="127.246094" xlink:href="#DejaVuSans-48"/>
      </g>
     </g>
    </g>
    <g id="text_7">
     <!-- ZN -->
     <g transform="translate(318.8 144.318825)scale(0.1 -0.1)">
      <defs>
       <path d="M 5.609375 72.90625 
L 62.890625 72.90625 
L 62.890625 65.375 
L 16.796875 8.296875 
L 64.015625 8.296875 
L 64.015625 0 
L 4.5 0 
L 4.5 7.515625 
L 50.59375 64.59375 
L 5.609375 64.59375 
z
" id="DejaVuSans-90"/>
       <path d="M 9.8125 72.90625 
L 23.09375 72.90625 
L 55.421875 11.921875 
L 55.421875 72.90625 
L 64.984375 72.90625 
L 64.984375 0 
L 51.703125 0 
L 19.390625 60.984375 
L 19.390625 0 
L 9.8125 0 
z
" id="DejaVuSans-78"/>
      </defs>
      <use xlink:href="#DejaVuSans-90"/>
      <use x="68.505859" xlink:href="#DejaVuSans-78"/>
     </g>
    </g>
   </g>
   <g id="matplotlib.axis_2">
    <g id="ytick_1">
     <g id="line2d_7">
      <defs>
       <path d="M 0 0 
L -3.5 0 
" id="m3c9b46feb4" style="stroke:#000000;stroke-width:0.8;"/>
      </defs>
      <g>
       <use style="stroke:#000000;stroke-width:0.8;" x="46.965625" xlink:href="#m3c9b46feb4" y="116.042263"/>
      </g>
     </g>
     <g id="text_8">
      <!-- 0 -->
      <g transform="translate(33.603125 119.841482)scale(0.1 -0.1)">
       <use xlink:href="#DejaVuSans-48"/>
      </g>
     </g>
    </g>
    <g id="ytick_2">
     <g id="line2d_8">
      <g>
       <use style="stroke:#000000;stroke-width:0.8;" x="46.965625" xlink:href="#m3c9b46feb4" y="92.047348"/>
      </g>
     </g>
     <g id="text_9">
      <!-- 100 -->
      <g transform="translate(20.878125 95.846567)scale(0.1 -0.1)">
       <use xlink:href="#DejaVuSans-49"/>
       <use x="63.623047" xlink:href="#DejaVuSans-48"/>
       <use x="127.246094" xlink:href="#DejaVuSans-48"/>
      </g>
     </g>
    </g>
    <g id="ytick_3">
     <g id="line2d_9">
      <g>
       <use style="stroke:#000000;stroke-width:0.8;" x="46.965625" xlink:href="#m3c9b46feb4" y="68.052433"/>
      </g>
     </g>
     <g id="text_10">
      <!-- 200 -->
      <g transform="translate(20.878125 71.851652)scale(0.1 -0.1)">
       <use xlink:href="#DejaVuSans-50"/>
       <use x="63.623047" xlink:href="#DejaVuSans-48"/>
       <use x="127.246094" xlink:href="#DejaVuSans-48"/>
      </g>
     </g>
    </g>
    <g id="ytick_4">
     <g id="line2d_10">
      <g>
       <use style="stroke:#000000;stroke-width:0.8;" x="46.965625" xlink:href="#m3c9b46feb4" y="44.057518"/>
      </g>
     </g>
     <g id="text_11">
      <!-- 300 -->
      <g transform="translate(20.878125 47.856737)scale(0.1 -0.1)">
       <defs>
        <path d="M 40.578125 39.3125 
Q 47.65625 37.796875 51.625 33 
Q 55.609375 28.21875 55.609375 21.1875 
Q 55.609375 10.40625 48.1875 4.484375 
Q 40.765625 -1.421875 27.09375 -1.421875 
Q 22.515625 -1.421875 17.65625 -0.515625 
Q 12.796875 0.390625 7.625 2.203125 
L 7.625 11.71875 
Q 11.71875 9.328125 16.59375 8.109375 
Q 21.484375 6.890625 26.8125 6.890625 
Q 36.078125 6.890625 40.9375 10.546875 
Q 45.796875 14.203125 45.796875 21.1875 
Q 45.796875 27.640625 41.28125 31.265625 
Q 36.765625 34.90625 28.71875 34.90625 
L 20.21875 34.90625 
L 20.21875 43.015625 
L 29.109375 43.015625 
Q 36.375 43.015625 40.234375 45.921875 
Q 44.09375 48.828125 44.09375 54.296875 
Q 44.09375 59.90625 40.109375 62.90625 
Q 36.140625 65.921875 28.71875 65.921875 
Q 24.65625 65.921875 20.015625 65.03125 
Q 15.375 64.15625 9.8125 62.3125 
L 9.8125 71.09375 
Q 15.4375 72.65625 20.34375 73.4375 
Q 25.25 74.21875 29.59375 74.21875 
Q 40.828125 74.21875 47.359375 69.109375 
Q 53.90625 64.015625 53.90625 55.328125 
Q 53.90625 49.265625 50.4375 45.09375 
Q 46.96875 40.921875 40.578125 39.3125 
z
" id="DejaVuSans-51"/>
       </defs>
       <use xlink:href="#DejaVuSans-51"/>
       <use x="63.623047" xlink:href="#DejaVuSans-48"/>
       <use x="127.246094" xlink:href="#DejaVuSans-48"/>
      </g>
     </g>
    </g>
    <g id="text_12">
     <!-- Count -->
     <g transform="translate(14.798437 84.028631)rotate(-90)scale(0.1 -0.1)">
      <defs>
       <path d="M 64.40625 67.28125 
L 64.40625 56.890625 
Q 59.421875 61.53125 53.78125 63.8125 
Q 48.140625 66.109375 41.796875 66.109375 
Q 29.296875 66.109375 22.65625 58.46875 
Q 16.015625 50.828125 16.015625 36.375 
Q 16.015625 21.96875 22.65625 14.328125 
Q 29.296875 6.6875 41.796875 6.6875 
Q 48.140625 6.6875 53.78125 8.984375 
Q 59.421875 11.28125 64.40625 15.921875 
L 64.40625 5.609375 
Q 59.234375 2.09375 53.4375 0.328125 
Q 47.65625 -1.421875 41.21875 -1.421875 
Q 24.65625 -1.421875 15.125 8.703125 
Q 5.609375 18.84375 5.609375 36.375 
Q 5.609375 53.953125 15.125 64.078125 
Q 24.65625 74.21875 41.21875 74.21875 
Q 47.75 74.21875 53.53125 72.484375 
Q 59.328125 70.75 64.40625 67.28125 
z
" id="DejaVuSans-67"/>
       <path d="M 30.609375 48.390625 
Q 23.390625 48.390625 19.1875 42.75 
Q 14.984375 37.109375 14.984375 27.296875 
Q 14.984375 17.484375 19.15625 11.84375 
Q 23.34375 6.203125 30.609375 6.203125 
Q 37.796875 6.203125 41.984375 11.859375 
Q 46.1875 17.53125 46.1875 27.296875 
Q 46.1875 37.015625 41.984375 42.703125 
Q 37.796875 48.390625 30.609375 48.390625 
z
M 30.609375 56 
Q 42.328125 56 49.015625 48.375 
Q 55.71875 40.765625 55.71875 27.296875 
Q 55.71875 13.875 49.015625 6.21875 
Q 42.328125 -1.421875 30.609375 -1.421875 
Q 18.84375 -1.421875 12.171875 6.21875 
Q 5.515625 13.875 5.515625 27.296875 
Q 5.515625 40.765625 12.171875 48.375 
Q 18.84375 56 30.609375 56 
z
" id="DejaVuSans-111"/>
       <path d="M 8.5 21.578125 
L 8.5 54.6875 
L 17.484375 54.6875 
L 17.484375 21.921875 
Q 17.484375 14.15625 20.5 10.265625 
Q 23.53125 6.390625 29.59375 6.390625 
Q 36.859375 6.390625 41.078125 11.03125 
Q 45.3125 15.671875 45.3125 23.6875 
L 45.3125 54.6875 
L 54.296875 54.6875 
L 54.296875 0 
L 45.3125 0 
L 45.3125 8.40625 
Q 42.046875 3.421875 37.71875 1 
Q 33.40625 -1.421875 27.6875 -1.421875 
Q 18.265625 -1.421875 13.375 4.4375 
Q 8.5 10.296875 8.5 21.578125 
z
M 31.109375 56 
z
" id="DejaVuSans-117"/>
       <path d="M 54.890625 33.015625 
L 54.890625 0 
L 45.90625 0 
L 45.90625 32.71875 
Q 45.90625 40.484375 42.875 44.328125 
Q 39.84375 48.1875 33.796875 48.1875 
Q 26.515625 48.1875 22.3125 43.546875 
Q 18.109375 38.921875 18.109375 30.90625 
L 18.109375 0 
L 9.078125 0 
L 9.078125 54.6875 
L 18.109375 54.6875 
L 18.109375 46.1875 
Q 21.34375 51.125 25.703125 53.5625 
Q 30.078125 56 35.796875 56 
Q 45.21875 56 50.046875 50.171875 
Q 54.890625 44.34375 54.890625 33.015625 
z
" id="DejaVuSans-110"/>
       <path d="M 18.3125 70.21875 
L 18.3125 54.6875 
L 36.8125 54.6875 
L 36.8125 47.703125 
L 18.3125 47.703125 
L 18.3125 18.015625 
Q 18.3125 11.328125 20.140625 9.421875 
Q 21.96875 7.515625 27.59375 7.515625 
L 36.8125 7.515625 
L 36.8125 0 
L 27.59375 0 
Q 17.1875 0 13.234375 3.875 
Q 9.28125 7.765625 9.28125 18.015625 
L 9.28125 47.703125 
L 2.6875 47.703125 
L 2.6875 54.6875 
L 9.28125 54.6875 
L 9.28125 70.21875 
z
" id="DejaVuSans-116"/>
      </defs>
      <use xlink:href="#DejaVuSans-67"/>
      <use x="69.824219" xlink:href="#DejaVuSans-111"/>
      <use x="131.005859" xlink:href="#DejaVuSans-117"/>
      <use x="194.384766" xlink:href="#DejaVuSans-110"/>
      <use x="257.763672" xlink:href="#DejaVuSans-116"/>
     </g>
    </g>
   </g>
   <g id="patch_35">
    <path d="M 46.965625 116.042263 
L 46.965625 22.318125 
" style="fill:none;stroke:#000000;stroke-linecap:square;stroke-linejoin:miter;stroke-width:0.8;"/>
   </g>
   <g id="patch_36">
    <path d="M 46.965625 116.042263 
L 604.965625 116.042263 
" style="fill:none;stroke:#000000;stroke-linecap:square;stroke-linejoin:miter;stroke-width:0.8;"/>
   </g>
   <g id="text_13">
    <!-- ZN -->
    <g transform="translate(317.366875 16.318125)scale(0.12 -0.12)">
     <use xlink:href="#DejaVuSans-90"/>
     <use x="68.505859" xlink:href="#DejaVuSans-78"/>
    </g>
   </g>
  </g>
  <g id="axes_2">
   <g id="patch_37">
    <path d="M 46.965625 565.918125 
L 604.965625 565.918125 
L 604.965625 134.787091 
L 46.965625 134.787091 
z
" style="fill:#ffffff;"/>
   </g>
   <g id="PolyCollection_1">
    <defs>
     <path d="M 72.329261 -80.669353 
L 72.329261 -425.574181 
L 77.453228 -423.996475 
L 82.577195 -418.781178 
L 87.701162 -410.315918 
L 92.825129 -399.191161 
L 97.949096 -386.138339 
L 103.073063 -371.956591 
L 108.19703 -357.438209 
L 113.320997 -343.30217 
L 118.444964 -330.143011 
L 123.568931 -318.39915 
L 128.692898 -308.341499 
L 133.816865 -300.08027 
L 138.940832 -293.585836 
L 144.064799 -288.718528 
L 149.188765 -285.262263 
L 154.312732 -282.957638 
L 159.436699 -281.531332 
L 164.560666 -280.719926 
L 169.684633 -280.28736 
L 174.8086 -280.036145 
L 179.932567 -279.812937 
L 185.056534 -279.509397 
L 190.180501 -279.059353 
L 195.304468 -278.433305 
L 200.428435 -277.631229 
L 205.552402 -276.674616 
L 210.676369 -275.598543 
L 215.800336 -274.444463 
L 220.924303 -273.254219 
L 226.04827 -272.065578 
L 231.172237 -270.909384 
L 236.296204 -269.808215 
L 241.42017 -268.776303 
L 246.544137 -267.820363 
L 251.668104 -266.941006 
L 256.792071 -266.134383 
L 261.916038 -265.393845 
L 267.040005 -264.711429 
L 272.163972 -264.079094 
L 277.287939 -263.489656 
L 282.411906 -262.937422 
L 287.535873 -262.418524 
L 292.65984 -261.93096 
L 297.783807 -261.474377 
L 302.907774 -261.04962 
L 308.031741 -260.658109 
L 313.155708 -260.301138 
L 318.279675 -259.97919 
L 323.403642 -259.691399 
L 328.527608 -259.435228 
L 333.651575 -259.206467 
L 338.775542 -258.999538 
L 343.899509 -258.808102 
L 349.023476 -258.625867 
L 354.147443 -258.447501 
L 359.27141 -258.269503 
L 364.395377 -258.090924 
L 369.519344 -257.913827 
L 374.643311 -257.743428 
L 379.767278 -257.587907 
L 384.891245 -257.457909 
L 390.015212 -257.365783 
L 395.139179 -257.324653 
L 400.263146 -257.347378 
L 405.387113 -257.445479 
L 410.51108 -257.628093 
L 415.635046 -257.900999 
L 420.759013 -258.265746 
L 425.88298 -258.718949 
L 431.006947 -259.251798 
L 436.130914 -259.849875 
L 441.254881 -260.493367 
L 446.378848 -261.157752 
L 451.502815 -261.815016 
L 456.626782 -262.435367 
L 461.750749 -262.989353 
L 466.874716 -263.450183 
L 471.998683 -263.79598 
L 477.12265 -264.011668 
L 482.246617 -264.090215 
L 487.370584 -264.033029 
L 492.494551 -263.849423 
L 497.618518 -263.555231 
L 502.742485 -263.170765 
L 507.866451 -262.718435 
L 512.990418 -262.220376 
L 518.114385 -261.696423 
L 523.238352 -261.162664 
L 528.362319 -260.630732 
L 533.486286 -260.107814 
L 538.610253 -259.597269 
L 543.73422 -259.09966 
L 548.858187 -258.613964 
L 553.982154 -258.138735 
L 559.106121 -257.673043 
L 564.230088 -257.217091 
L 569.354055 -256.772462 
L 574.478022 -256.342034 
L 579.601989 -255.929645 
L 579.601989 -250.31389 
L 579.601989 -250.31389 
L 574.478022 -249.901501 
L 569.354055 -249.471073 
L 564.230088 -249.026444 
L 559.106121 -248.570492 
L 553.982154 -248.1048 
L 548.858187 -247.62957 
L 543.73422 -247.143874 
L 538.610253 -246.646266 
L 533.486286 -246.135721 
L 528.362319 -245.612803 
L 523.238352 -245.080871 
L 518.114385 -244.547112 
L 512.990418 -244.023158 
L 507.866451 -243.5251 
L 502.742485 -243.07277 
L 497.618518 -242.688303 
L 492.494551 -242.394111 
L 487.370584 -242.210506 
L 482.246617 -242.153319 
L 477.12265 -242.231867 
L 471.998683 -242.447554 
L 466.874716 -242.793351 
L 461.750749 -243.254182 
L 456.626782 -243.808168 
L 451.502815 -244.428518 
L 446.378848 -245.085782 
L 441.254881 -245.750168 
L 436.130914 -246.393659 
L 431.006947 -246.991737 
L 425.88298 -247.524585 
L 420.759013 -247.977788 
L 415.635046 -248.342535 
L 410.51108 -248.615441 
L 405.387113 -248.798056 
L 400.263146 -248.896156 
L 395.139179 -248.918881 
L 390.015212 -248.877752 
L 384.891245 -248.785626 
L 379.767278 -248.655627 
L 374.643311 -248.500106 
L 369.519344 -248.329707 
L 364.395377 -248.15261 
L 359.27141 -247.974032 
L 354.147443 -247.796034 
L 349.023476 -247.617667 
L 343.899509 -247.435432 
L 338.775542 -247.243996 
L 333.651575 -247.037068 
L 328.527608 -246.808307 
L 323.403642 -246.552136 
L 318.279675 -246.264344 
L 313.155708 -245.942397 
L 308.031741 -245.585425 
L 302.907774 -245.193914 
L 297.783807 -244.769157 
L 292.65984 -244.312575 
L 287.535873 -243.825011 
L 282.411906 -243.306112 
L 277.287939 -242.753879 
L 272.163972 -242.164441 
L 267.040005 -241.532106 
L 261.916038 -240.84969 
L 256.792071 -240.109151 
L 251.668104 -239.302528 
L 246.544137 -238.423171 
L 241.42017 -237.467232 
L 236.296204 -236.435319 
L 231.172237 -235.334151 
L 226.04827 -234.177957 
L 220.924303 -232.989315 
L 215.800336 -231.799071 
L 210.676369 -230.644991 
L 205.552402 -229.568918 
L 200.428435 -228.612306 
L 195.304468 -227.81023 
L 190.180501 -227.184182 
L 185.056534 -226.734138 
L 179.932567 -226.430597 
L 174.8086 -226.207389 
L 169.684633 -225.956175 
L 164.560666 -225.523609 
L 159.436699 -224.712202 
L 154.312732 -223.285897 
L 149.188765 -220.981272 
L 144.064799 -217.525006 
L 138.940832 -212.657698 
L 133.816865 -206.163264 
L 128.692898 -197.902035 
L 123.568931 -187.844385 
L 118.444964 -176.100523 
L 113.320997 -162.941364 
L 108.19703 -148.805326 
L 103.073063 -134.286943 
L 97.949096 -120.105196 
L 92.825129 -107.052373 
L 87.701162 -95.927617 
L 82.577195 -87.462357 
L 77.453228 -82.247059 
L 72.329261 -80.669353 
z
" id="mae90c179d3" style="stroke:#3f3f3f;stroke-width:1.5;"/>
    </defs>
    <g clip-path="url(#pfae4fb2d09)">
     <use style="fill:#3274a1;stroke:#3f3f3f;stroke-width:1.5;" x="0" xlink:href="#mae90c179d3" y="603.474375"/>
    </g>
   </g>
   <g id="matplotlib.axis_3">
    <g id="xtick_7">
     <g id="line2d_11">
      <g>
       <use style="stroke:#000000;stroke-width:0.8;" x="72.329261" xlink:href="#m30409ba66d" y="565.918125"/>
      </g>
     </g>
     <g id="text_14">
      <!-- 0 -->
      <g transform="translate(69.148011 580.516563)scale(0.1 -0.1)">
       <use xlink:href="#DejaVuSans-48"/>
      </g>
     </g>
    </g>
    <g id="xtick_8">
     <g id="line2d_12">
      <g>
       <use style="stroke:#000000;stroke-width:0.8;" x="173.783807" xlink:href="#m30409ba66d" y="565.918125"/>
      </g>
     </g>
     <g id="text_15">
      <!-- 20 -->
      <g transform="translate(167.421307 580.516563)scale(0.1 -0.1)">
       <use xlink:href="#DejaVuSans-50"/>
       <use x="63.623047" xlink:href="#DejaVuSans-48"/>
      </g>
     </g>
    </g>
    <g id="xtick_9">
     <g id="line2d_13">
      <g>
       <use style="stroke:#000000;stroke-width:0.8;" x="275.238352" xlink:href="#m30409ba66d" y="565.918125"/>
      </g>
     </g>
     <g id="text_16">
      <!-- 40 -->
      <g transform="translate(268.875852 580.516563)scale(0.1 -0.1)">
       <use xlink:href="#DejaVuSans-52"/>
       <use x="63.623047" xlink:href="#DejaVuSans-48"/>
      </g>
     </g>
    </g>
    <g id="xtick_10">
     <g id="line2d_14">
      <g>
       <use style="stroke:#000000;stroke-width:0.8;" x="376.692898" xlink:href="#m30409ba66d" y="565.918125"/>
      </g>
     </g>
     <g id="text_17">
      <!-- 60 -->
      <g transform="translate(370.330398 580.516563)scale(0.1 -0.1)">
       <use xlink:href="#DejaVuSans-54"/>
       <use x="63.623047" xlink:href="#DejaVuSans-48"/>
      </g>
     </g>
    </g>
    <g id="xtick_11">
     <g id="line2d_15">
      <g>
       <use style="stroke:#000000;stroke-width:0.8;" x="478.147443" xlink:href="#m30409ba66d" y="565.918125"/>
      </g>
     </g>
     <g id="text_18">
      <!-- 80 -->
      <g transform="translate(471.784943 580.516563)scale(0.1 -0.1)">
       <use xlink:href="#DejaVuSans-56"/>
       <use x="63.623047" xlink:href="#DejaVuSans-48"/>
      </g>
     </g>
    </g>
    <g id="xtick_12">
     <g id="line2d_16">
      <g>
       <use style="stroke:#000000;stroke-width:0.8;" x="579.601989" xlink:href="#m30409ba66d" y="565.918125"/>
      </g>
     </g>
     <g id="text_19">
      <!-- 100 -->
      <g transform="translate(570.058239 580.516563)scale(0.1 -0.1)">
       <use xlink:href="#DejaVuSans-49"/>
       <use x="63.623047" xlink:href="#DejaVuSans-48"/>
       <use x="127.246094" xlink:href="#DejaVuSans-48"/>
      </g>
     </g>
    </g>
    <g id="text_20">
     <!-- ZN -->
     <g transform="translate(318.8 594.194688)scale(0.1 -0.1)">
      <use xlink:href="#DejaVuSans-90"/>
      <use x="68.505859" xlink:href="#DejaVuSans-78"/>
     </g>
    </g>
   </g>
   <g id="matplotlib.axis_4">
    <g id="ytick_5">
     <g id="line2d_17">
      <g>
       <use style="stroke:#000000;stroke-width:0.8;" x="46.965625" xlink:href="#m3c9b46feb4" y="350.352608"/>
      </g>
     </g>
    </g>
   </g>
   <g id="line2d_18">
    <path clip-path="url(#pfae4fb2d09)" d="M 72.329261 350.352608 
L 224.51108 350.352608 
" style="fill:none;stroke:#3f3f3f;stroke-linecap:square;stroke-width:1.5;"/>
   </g>
   <g id="line2d_19">
    <path clip-path="url(#pfae4fb2d09)" d="M 72.329261 350.352608 
L 135.738352 350.352608 
" style="fill:none;stroke:#3f3f3f;stroke-linecap:square;stroke-width:4.5;"/>
   </g>
   <g id="patch_38">
    <path d="M 46.965625 565.918125 
L 46.965625 134.787091 
" style="fill:none;stroke:#000000;stroke-linecap:square;stroke-linejoin:miter;stroke-width:0.8;"/>
   </g>
   <g id="patch_39">
    <path d="M 604.965625 565.918125 
L 604.965625 134.787091 
" style="fill:none;stroke:#000000;stroke-linecap:square;stroke-linejoin:miter;stroke-width:0.8;"/>
   </g>
   <g id="patch_40">
    <path d="M 46.965625 565.918125 
L 604.965625 565.918125 
" style="fill:none;stroke:#000000;stroke-linecap:square;stroke-linejoin:miter;stroke-width:0.8;"/>
   </g>
   <g id="patch_41">
    <path d="M 46.965625 134.787091 
L 604.965625 134.787091 
" style="fill:none;stroke:#000000;stroke-linecap:square;stroke-linejoin:miter;stroke-width:0.8;"/>
   </g>
   <g id="PathCollection_1">
    <defs>
     <path d="M 0 1.5 
C 0.397805 1.5 0.77937 1.341951 1.06066 1.06066 
C 1.341951 0.77937 1.5 0.397805 1.5 0 
C 1.5 -0.397805 1.341951 -0.77937 1.06066 -1.06066 
C 0.77937 -1.341951 0.397805 -1.5 0 -1.5 
C -0.397805 -1.5 -0.77937 -1.341951 -1.06066 -1.06066 
C -1.341951 -0.77937 -1.5 -0.397805 -1.5 0 
C -1.5 0.397805 -1.341951 0.77937 -1.06066 1.06066 
C -0.77937 1.341951 -0.397805 1.5 0 1.5 
z
" id="m85ee611b25" style="stroke:#3f3f3f;"/>
    </defs>
    <g clip-path="url(#pfae4fb2d09)">
     <use style="fill:#ffffff;stroke:#3f3f3f;" x="72.329261" xlink:href="#m85ee611b25" y="350.352608"/>
    </g>
   </g>
  </g>
 </g>
 <defs>
  <clipPath id="p6807ff00f1">
   <rect height="93.724138" width="558" x="46.965625" y="22.318125"/>
  </clipPath>
  <clipPath id="pfae4fb2d09">
   <rect height="431.131034" width="558" x="46.965625" y="134.787091"/>
  </clipPath>
 </defs>
</svg>
