<?xml version="1.0" encoding="utf-8" standalone="no"?>
<!DOCTYPE svg PUBLIC "-//W3C//DTD SVG 1.1//EN"
  "http://www.w3.org/Graphics/SVG/1.1/DTD/svg11.dtd">
<!-- Created with matplotlib (https://matplotlib.org/) -->
<svg height="603.474375pt" version="1.1" viewBox="0 0 612.165625 603.474375" width="612.165625pt" xmlns="http://www.w3.org/2000/svg" xmlns:xlink="http://www.w3.org/1999/xlink">
 <metadata>
  <rdf:RDF xmlns:cc="http://creativecommons.org/ns#" xmlns:dc="http://purl.org/dc/elements/1.1/" xmlns:rdf="http://www.w3.org/1999/02/22-rdf-syntax-ns#">
   <cc:Work>
    <dc:type rdf:resource="http://purl.org/dc/dcmitype/StillImage"/>
    <dc:date>2020-10-06T19:10:13.692084</dc:date>
    <dc:format>image/svg+xml</dc:format>
    <dc:creator>
     <cc:Agent>
      <dc:title>Matplotlib v3.3.1, https://matplotlib.org/</dc:title>
     </cc:Agent>
    </dc:creator>
   </cc:Work>
  </rdf:RDF>
 </metadata>
 <defs>
  <style type="text/css">*{stroke-linecap:butt;stroke-linejoin:round;}</style>
 </defs>
 <g id="figure_1">
  <g id="patch_1">
   <path d="M 0 603.474375 
L 612.165625 603.474375 
L 612.165625 0 
L 0 0 
z
" style="fill:none;"/>
  </g>
  <g id="axes_1">
   <g id="patch_2">
    <path d="M 46.965625 116.042263 
L 604.965625 116.042263 
L 604.965625 22.318125 
L 46.965625 22.318125 
z
" style="fill:#ffffff;"/>
   </g>
   <g id="patch_3">
    <path clip-path="url(#p33e639294f)" d="M 72.329261 116.042263 
L 79.003903 116.042263 
L 79.003903 114.264154 
L 72.329261 114.264154 
z
" style="fill:#1f77b4;fill-opacity:0.75;stroke:#000000;stroke-linejoin:miter;stroke-width:0.667464;"/>
   </g>
   <g id="patch_4">
    <path clip-path="url(#p33e639294f)" d="M 79.003903 116.042263 
L 85.678544 116.042263 
L 85.678544 114.619776 
L 79.003903 114.619776 
z
" style="fill:#1f77b4;fill-opacity:0.75;stroke:#000000;stroke-linejoin:miter;stroke-width:0.667464;"/>
   </g>
   <g id="patch_5">
    <path clip-path="url(#p33e639294f)" d="M 85.678544 116.042263 
L 92.353185 116.042263 
L 92.353185 116.042263 
L 85.678544 116.042263 
z
" style="fill:#1f77b4;fill-opacity:0.75;stroke:#000000;stroke-linejoin:miter;stroke-width:0.667464;"/>
   </g>
   <g id="patch_6">
    <path clip-path="url(#p33e639294f)" d="M 92.353185 116.042263 
L 99.027826 116.042263 
L 99.027826 115.331019 
L 92.353185 115.331019 
z
" style="fill:#1f77b4;fill-opacity:0.75;stroke:#000000;stroke-linejoin:miter;stroke-width:0.667464;"/>
   </g>
   <g id="patch_7">
    <path clip-path="url(#p33e639294f)" d="M 99.027826 116.042263 
L 105.702467 116.042263 
L 105.702467 114.975397 
L 99.027826 114.975397 
z
" style="fill:#1f77b4;fill-opacity:0.75;stroke:#000000;stroke-linejoin:miter;stroke-width:0.667464;"/>
   </g>
   <g id="patch_8">
    <path clip-path="url(#p33e639294f)" d="M 105.702467 116.042263 
L 112.377108 116.042263 
L 112.377108 114.975397 
L 105.702467 114.975397 
z
" style="fill:#1f77b4;fill-opacity:0.75;stroke:#000000;stroke-linejoin:miter;stroke-width:0.667464;"/>
   </g>
   <g id="patch_9">
    <path clip-path="url(#p33e639294f)" d="M 112.377108 116.042263 
L 119.051749 116.042263 
L 119.051749 115.686641 
L 112.377108 115.686641 
z
" style="fill:#1f77b4;fill-opacity:0.75;stroke:#000000;stroke-linejoin:miter;stroke-width:0.667464;"/>
   </g>
   <g id="patch_10">
    <path clip-path="url(#p33e639294f)" d="M 119.051749 116.042263 
L 125.726391 116.042263 
L 125.726391 116.042263 
L 119.051749 116.042263 
z
" style="fill:#1f77b4;fill-opacity:0.75;stroke:#000000;stroke-linejoin:miter;stroke-width:0.667464;"/>
   </g>
   <g id="patch_11">
    <path clip-path="url(#p33e639294f)" d="M 125.726391 116.042263 
L 132.401032 116.042263 
L 132.401032 115.686641 
L 125.726391 115.686641 
z
" style="fill:#1f77b4;fill-opacity:0.75;stroke:#000000;stroke-linejoin:miter;stroke-width:0.667464;"/>
   </g>
   <g id="patch_12">
    <path clip-path="url(#p33e639294f)" d="M 132.401032 116.042263 
L 139.075673 116.042263 
L 139.075673 115.331019 
L 132.401032 115.331019 
z
" style="fill:#1f77b4;fill-opacity:0.75;stroke:#000000;stroke-linejoin:miter;stroke-width:0.667464;"/>
   </g>
   <g id="patch_13">
    <path clip-path="url(#p33e639294f)" d="M 139.075673 116.042263 
L 145.750314 116.042263 
L 145.750314 116.042263 
L 139.075673 116.042263 
z
" style="fill:#1f77b4;fill-opacity:0.75;stroke:#000000;stroke-linejoin:miter;stroke-width:0.667464;"/>
   </g>
   <g id="patch_14">
    <path clip-path="url(#p33e639294f)" d="M 145.750314 116.042263 
L 152.424955 116.042263 
L 152.424955 115.686641 
L 145.750314 115.686641 
z
" style="fill:#1f77b4;fill-opacity:0.75;stroke:#000000;stroke-linejoin:miter;stroke-width:0.667464;"/>
   </g>
   <g id="patch_15">
    <path clip-path="url(#p33e639294f)" d="M 152.424955 116.042263 
L 159.099596 116.042263 
L 159.099596 116.042263 
L 152.424955 116.042263 
z
" style="fill:#1f77b4;fill-opacity:0.75;stroke:#000000;stroke-linejoin:miter;stroke-width:0.667464;"/>
   </g>
   <g id="patch_16">
    <path clip-path="url(#p33e639294f)" d="M 159.099596 116.042263 
L 165.774237 116.042263 
L 165.774237 115.331019 
L 159.099596 115.331019 
z
" style="fill:#1f77b4;fill-opacity:0.75;stroke:#000000;stroke-linejoin:miter;stroke-width:0.667464;"/>
   </g>
   <g id="patch_17">
    <path clip-path="url(#p33e639294f)" d="M 165.774237 116.042263 
L 172.448879 116.042263 
L 172.448879 116.042263 
L 165.774237 116.042263 
z
" style="fill:#1f77b4;fill-opacity:0.75;stroke:#000000;stroke-linejoin:miter;stroke-width:0.667464;"/>
   </g>
   <g id="patch_18">
    <path clip-path="url(#p33e639294f)" d="M 172.448879 116.042263 
L 179.12352 116.042263 
L 179.12352 115.331019 
L 172.448879 115.331019 
z
" style="fill:#1f77b4;fill-opacity:0.75;stroke:#000000;stroke-linejoin:miter;stroke-width:0.667464;"/>
   </g>
   <g id="patch_19">
    <path clip-path="url(#p33e639294f)" d="M 179.12352 116.042263 
L 185.798161 116.042263 
L 185.798161 114.975397 
L 179.12352 114.975397 
z
" style="fill:#1f77b4;fill-opacity:0.75;stroke:#000000;stroke-linejoin:miter;stroke-width:0.667464;"/>
   </g>
   <g id="patch_20">
    <path clip-path="url(#p33e639294f)" d="M 185.798161 116.042263 
L 192.472802 116.042263 
L 192.472802 116.042263 
L 185.798161 116.042263 
z
" style="fill:#1f77b4;fill-opacity:0.75;stroke:#000000;stroke-linejoin:miter;stroke-width:0.667464;"/>
   </g>
   <g id="patch_21">
    <path clip-path="url(#p33e639294f)" d="M 192.472802 116.042263 
L 199.147443 116.042263 
L 199.147443 115.331019 
L 192.472802 115.331019 
z
" style="fill:#1f77b4;fill-opacity:0.75;stroke:#000000;stroke-linejoin:miter;stroke-width:0.667464;"/>
   </g>
   <g id="patch_22">
    <path clip-path="url(#p33e639294f)" d="M 199.147443 116.042263 
L 205.822084 116.042263 
L 205.822084 115.331019 
L 199.147443 115.331019 
z
" style="fill:#1f77b4;fill-opacity:0.75;stroke:#000000;stroke-linejoin:miter;stroke-width:0.667464;"/>
   </g>
   <g id="patch_23">
    <path clip-path="url(#p33e639294f)" d="M 205.822084 116.042263 
L 212.496725 116.042263 
L 212.496725 115.686641 
L 205.822084 115.686641 
z
" style="fill:#1f77b4;fill-opacity:0.75;stroke:#000000;stroke-linejoin:miter;stroke-width:0.667464;"/>
   </g>
   <g id="patch_24">
    <path clip-path="url(#p33e639294f)" d="M 212.496725 116.042263 
L 219.171367 116.042263 
L 219.171367 116.042263 
L 212.496725 116.042263 
z
" style="fill:#1f77b4;fill-opacity:0.75;stroke:#000000;stroke-linejoin:miter;stroke-width:0.667464;"/>
   </g>
   <g id="patch_25">
    <path clip-path="url(#p33e639294f)" d="M 219.171367 116.042263 
L 225.846008 116.042263 
L 225.846008 116.042263 
L 219.171367 116.042263 
z
" style="fill:#1f77b4;fill-opacity:0.75;stroke:#000000;stroke-linejoin:miter;stroke-width:0.667464;"/>
   </g>
   <g id="patch_26">
    <path clip-path="url(#p33e639294f)" d="M 225.846008 116.042263 
L 232.520649 116.042263 
L 232.520649 116.042263 
L 225.846008 116.042263 
z
" style="fill:#1f77b4;fill-opacity:0.75;stroke:#000000;stroke-linejoin:miter;stroke-width:0.667464;"/>
   </g>
   <g id="patch_27">
    <path clip-path="url(#p33e639294f)" d="M 232.520649 116.042263 
L 239.19529 116.042263 
L 239.19529 115.686641 
L 232.520649 115.686641 
z
" style="fill:#1f77b4;fill-opacity:0.75;stroke:#000000;stroke-linejoin:miter;stroke-width:0.667464;"/>
   </g>
   <g id="patch_28">
    <path clip-path="url(#p33e639294f)" d="M 239.19529 116.042263 
L 245.869931 116.042263 
L 245.869931 115.686641 
L 239.19529 115.686641 
z
" style="fill:#1f77b4;fill-opacity:0.75;stroke:#000000;stroke-linejoin:miter;stroke-width:0.667464;"/>
   </g>
   <g id="patch_29">
    <path clip-path="url(#p33e639294f)" d="M 245.869931 116.042263 
L 252.544572 116.042263 
L 252.544572 116.042263 
L 245.869931 116.042263 
z
" style="fill:#1f77b4;fill-opacity:0.75;stroke:#000000;stroke-linejoin:miter;stroke-width:0.667464;"/>
   </g>
   <g id="patch_30">
    <path clip-path="url(#p33e639294f)" d="M 252.544572 116.042263 
L 259.219214 116.042263 
L 259.219214 116.042263 
L 252.544572 116.042263 
z
" style="fill:#1f77b4;fill-opacity:0.75;stroke:#000000;stroke-linejoin:miter;stroke-width:0.667464;"/>
   </g>
   <g id="patch_31">
    <path clip-path="url(#p33e639294f)" d="M 259.219214 116.042263 
L 265.893855 116.042263 
L 265.893855 116.042263 
L 259.219214 116.042263 
z
" style="fill:#1f77b4;fill-opacity:0.75;stroke:#000000;stroke-linejoin:miter;stroke-width:0.667464;"/>
   </g>
   <g id="patch_32">
    <path clip-path="url(#p33e639294f)" d="M 265.893855 116.042263 
L 272.568496 116.042263 
L 272.568496 116.042263 
L 265.893855 116.042263 
z
" style="fill:#1f77b4;fill-opacity:0.75;stroke:#000000;stroke-linejoin:miter;stroke-width:0.667464;"/>
   </g>
   <g id="patch_33">
    <path clip-path="url(#p33e639294f)" d="M 272.568496 116.042263 
L 279.243137 116.042263 
L 279.243137 116.042263 
L 272.568496 116.042263 
z
" style="fill:#1f77b4;fill-opacity:0.75;stroke:#000000;stroke-linejoin:miter;stroke-width:0.667464;"/>
   </g>
   <g id="patch_34">
    <path clip-path="url(#p33e639294f)" d="M 279.243137 116.042263 
L 285.917778 116.042263 
L 285.917778 116.042263 
L 279.243137 116.042263 
z
" style="fill:#1f77b4;fill-opacity:0.75;stroke:#000000;stroke-linejoin:miter;stroke-width:0.667464;"/>
   </g>
   <g id="patch_35">
    <path clip-path="url(#p33e639294f)" d="M 285.917778 116.042263 
L 292.592419 116.042263 
L 292.592419 115.686641 
L 285.917778 115.686641 
z
" style="fill:#1f77b4;fill-opacity:0.75;stroke:#000000;stroke-linejoin:miter;stroke-width:0.667464;"/>
   </g>
   <g id="patch_36">
    <path clip-path="url(#p33e639294f)" d="M 292.592419 116.042263 
L 299.26706 116.042263 
L 299.26706 115.686641 
L 292.592419 115.686641 
z
" style="fill:#1f77b4;fill-opacity:0.75;stroke:#000000;stroke-linejoin:miter;stroke-width:0.667464;"/>
   </g>
   <g id="patch_37">
    <path clip-path="url(#p33e639294f)" d="M 299.26706 116.042263 
L 305.941702 116.042263 
L 305.941702 115.686641 
L 299.26706 115.686641 
z
" style="fill:#1f77b4;fill-opacity:0.75;stroke:#000000;stroke-linejoin:miter;stroke-width:0.667464;"/>
   </g>
   <g id="patch_38">
    <path clip-path="url(#p33e639294f)" d="M 305.941702 116.042263 
L 312.616343 116.042263 
L 312.616343 116.042263 
L 305.941702 116.042263 
z
" style="fill:#1f77b4;fill-opacity:0.75;stroke:#000000;stroke-linejoin:miter;stroke-width:0.667464;"/>
   </g>
   <g id="patch_39">
    <path clip-path="url(#p33e639294f)" d="M 312.616343 116.042263 
L 319.290984 116.042263 
L 319.290984 116.042263 
L 312.616343 116.042263 
z
" style="fill:#1f77b4;fill-opacity:0.75;stroke:#000000;stroke-linejoin:miter;stroke-width:0.667464;"/>
   </g>
   <g id="patch_40">
    <path clip-path="url(#p33e639294f)" d="M 319.290984 116.042263 
L 325.965625 116.042263 
L 325.965625 116.042263 
L 319.290984 116.042263 
z
" style="fill:#1f77b4;fill-opacity:0.75;stroke:#000000;stroke-linejoin:miter;stroke-width:0.667464;"/>
   </g>
   <g id="patch_41">
    <path clip-path="url(#p33e639294f)" d="M 325.965625 116.042263 
L 332.640266 116.042263 
L 332.640266 116.042263 
L 325.965625 116.042263 
z
" style="fill:#1f77b4;fill-opacity:0.75;stroke:#000000;stroke-linejoin:miter;stroke-width:0.667464;"/>
   </g>
   <g id="patch_42">
    <path clip-path="url(#p33e639294f)" d="M 332.640266 116.042263 
L 339.314907 116.042263 
L 339.314907 116.042263 
L 332.640266 116.042263 
z
" style="fill:#1f77b4;fill-opacity:0.75;stroke:#000000;stroke-linejoin:miter;stroke-width:0.667464;"/>
   </g>
   <g id="patch_43">
    <path clip-path="url(#p33e639294f)" d="M 339.314907 116.042263 
L 345.989548 116.042263 
L 345.989548 115.686641 
L 339.314907 115.686641 
z
" style="fill:#1f77b4;fill-opacity:0.75;stroke:#000000;stroke-linejoin:miter;stroke-width:0.667464;"/>
   </g>
   <g id="patch_44">
    <path clip-path="url(#p33e639294f)" d="M 345.989548 116.042263 
L 352.66419 116.042263 
L 352.66419 116.042263 
L 345.989548 116.042263 
z
" style="fill:#1f77b4;fill-opacity:0.75;stroke:#000000;stroke-linejoin:miter;stroke-width:0.667464;"/>
   </g>
   <g id="patch_45">
    <path clip-path="url(#p33e639294f)" d="M 352.66419 116.042263 
L 359.338831 116.042263 
L 359.338831 116.042263 
L 352.66419 116.042263 
z
" style="fill:#1f77b4;fill-opacity:0.75;stroke:#000000;stroke-linejoin:miter;stroke-width:0.667464;"/>
   </g>
   <g id="patch_46">
    <path clip-path="url(#p33e639294f)" d="M 359.338831 116.042263 
L 366.013472 116.042263 
L 366.013472 115.686641 
L 359.338831 115.686641 
z
" style="fill:#1f77b4;fill-opacity:0.75;stroke:#000000;stroke-linejoin:miter;stroke-width:0.667464;"/>
   </g>
   <g id="patch_47">
    <path clip-path="url(#p33e639294f)" d="M 366.013472 116.042263 
L 372.688113 116.042263 
L 372.688113 115.686641 
L 366.013472 115.686641 
z
" style="fill:#1f77b4;fill-opacity:0.75;stroke:#000000;stroke-linejoin:miter;stroke-width:0.667464;"/>
   </g>
   <g id="patch_48">
    <path clip-path="url(#p33e639294f)" d="M 372.688113 116.042263 
L 379.362754 116.042263 
L 379.362754 115.686641 
L 372.688113 115.686641 
z
" style="fill:#1f77b4;fill-opacity:0.75;stroke:#000000;stroke-linejoin:miter;stroke-width:0.667464;"/>
   </g>
   <g id="patch_49">
    <path clip-path="url(#p33e639294f)" d="M 379.362754 116.042263 
L 386.037395 116.042263 
L 386.037395 115.686641 
L 379.362754 115.686641 
z
" style="fill:#1f77b4;fill-opacity:0.75;stroke:#000000;stroke-linejoin:miter;stroke-width:0.667464;"/>
   </g>
   <g id="patch_50">
    <path clip-path="url(#p33e639294f)" d="M 386.037395 116.042263 
L 392.712036 116.042263 
L 392.712036 115.686641 
L 386.037395 115.686641 
z
" style="fill:#1f77b4;fill-opacity:0.75;stroke:#000000;stroke-linejoin:miter;stroke-width:0.667464;"/>
   </g>
   <g id="patch_51">
    <path clip-path="url(#p33e639294f)" d="M 392.712036 116.042263 
L 399.386678 116.042263 
L 399.386678 115.686641 
L 392.712036 115.686641 
z
" style="fill:#1f77b4;fill-opacity:0.75;stroke:#000000;stroke-linejoin:miter;stroke-width:0.667464;"/>
   </g>
   <g id="patch_52">
    <path clip-path="url(#p33e639294f)" d="M 399.386678 116.042263 
L 406.061319 116.042263 
L 406.061319 116.042263 
L 399.386678 116.042263 
z
" style="fill:#1f77b4;fill-opacity:0.75;stroke:#000000;stroke-linejoin:miter;stroke-width:0.667464;"/>
   </g>
   <g id="patch_53">
    <path clip-path="url(#p33e639294f)" d="M 406.061319 116.042263 
L 412.73596 116.042263 
L 412.73596 115.331019 
L 406.061319 115.331019 
z
" style="fill:#1f77b4;fill-opacity:0.75;stroke:#000000;stroke-linejoin:miter;stroke-width:0.667464;"/>
   </g>
   <g id="patch_54">
    <path clip-path="url(#p33e639294f)" d="M 412.73596 116.042263 
L 419.410601 116.042263 
L 419.410601 116.042263 
L 412.73596 116.042263 
z
" style="fill:#1f77b4;fill-opacity:0.75;stroke:#000000;stroke-linejoin:miter;stroke-width:0.667464;"/>
   </g>
   <g id="patch_55">
    <path clip-path="url(#p33e639294f)" d="M 419.410601 116.042263 
L 426.085242 116.042263 
L 426.085242 115.686641 
L 419.410601 115.686641 
z
" style="fill:#1f77b4;fill-opacity:0.75;stroke:#000000;stroke-linejoin:miter;stroke-width:0.667464;"/>
   </g>
   <g id="patch_56">
    <path clip-path="url(#p33e639294f)" d="M 426.085242 116.042263 
L 432.759883 116.042263 
L 432.759883 116.042263 
L 426.085242 116.042263 
z
" style="fill:#1f77b4;fill-opacity:0.75;stroke:#000000;stroke-linejoin:miter;stroke-width:0.667464;"/>
   </g>
   <g id="patch_57">
    <path clip-path="url(#p33e639294f)" d="M 432.759883 116.042263 
L 439.434525 116.042263 
L 439.434525 115.686641 
L 432.759883 115.686641 
z
" style="fill:#1f77b4;fill-opacity:0.75;stroke:#000000;stroke-linejoin:miter;stroke-width:0.667464;"/>
   </g>
   <g id="patch_58">
    <path clip-path="url(#p33e639294f)" d="M 439.434525 116.042263 
L 446.109166 116.042263 
L 446.109166 114.975397 
L 439.434525 114.975397 
z
" style="fill:#1f77b4;fill-opacity:0.75;stroke:#000000;stroke-linejoin:miter;stroke-width:0.667464;"/>
   </g>
   <g id="patch_59">
    <path clip-path="url(#p33e639294f)" d="M 446.109166 116.042263 
L 452.783807 116.042263 
L 452.783807 115.686641 
L 446.109166 115.686641 
z
" style="fill:#1f77b4;fill-opacity:0.75;stroke:#000000;stroke-linejoin:miter;stroke-width:0.667464;"/>
   </g>
   <g id="patch_60">
    <path clip-path="url(#p33e639294f)" d="M 452.783807 116.042263 
L 459.458448 116.042263 
L 459.458448 115.686641 
L 452.783807 115.686641 
z
" style="fill:#1f77b4;fill-opacity:0.75;stroke:#000000;stroke-linejoin:miter;stroke-width:0.667464;"/>
   </g>
   <g id="patch_61">
    <path clip-path="url(#p33e639294f)" d="M 459.458448 116.042263 
L 466.133089 116.042263 
L 466.133089 114.975397 
L 459.458448 114.975397 
z
" style="fill:#1f77b4;fill-opacity:0.75;stroke:#000000;stroke-linejoin:miter;stroke-width:0.667464;"/>
   </g>
   <g id="patch_62">
    <path clip-path="url(#p33e639294f)" d="M 466.133089 116.042263 
L 472.80773 116.042263 
L 472.80773 116.042263 
L 466.133089 116.042263 
z
" style="fill:#1f77b4;fill-opacity:0.75;stroke:#000000;stroke-linejoin:miter;stroke-width:0.667464;"/>
   </g>
   <g id="patch_63">
    <path clip-path="url(#p33e639294f)" d="M 472.80773 116.042263 
L 479.482371 116.042263 
L 479.482371 114.619776 
L 472.80773 114.619776 
z
" style="fill:#1f77b4;fill-opacity:0.75;stroke:#000000;stroke-linejoin:miter;stroke-width:0.667464;"/>
   </g>
   <g id="patch_64">
    <path clip-path="url(#p33e639294f)" d="M 479.482371 116.042263 
L 486.157013 116.042263 
L 486.157013 114.975397 
L 479.482371 114.975397 
z
" style="fill:#1f77b4;fill-opacity:0.75;stroke:#000000;stroke-linejoin:miter;stroke-width:0.667464;"/>
   </g>
   <g id="patch_65">
    <path clip-path="url(#p33e639294f)" d="M 486.157013 116.042263 
L 492.831654 116.042263 
L 492.831654 116.042263 
L 486.157013 116.042263 
z
" style="fill:#1f77b4;fill-opacity:0.75;stroke:#000000;stroke-linejoin:miter;stroke-width:0.667464;"/>
   </g>
   <g id="patch_66">
    <path clip-path="url(#p33e639294f)" d="M 492.831654 116.042263 
L 499.506295 116.042263 
L 499.506295 114.619776 
L 492.831654 114.619776 
z
" style="fill:#1f77b4;fill-opacity:0.75;stroke:#000000;stroke-linejoin:miter;stroke-width:0.667464;"/>
   </g>
   <g id="patch_67">
    <path clip-path="url(#p33e639294f)" d="M 499.506295 116.042263 
L 506.180936 116.042263 
L 506.180936 114.619776 
L 499.506295 114.619776 
z
" style="fill:#1f77b4;fill-opacity:0.75;stroke:#000000;stroke-linejoin:miter;stroke-width:0.667464;"/>
   </g>
   <g id="patch_68">
    <path clip-path="url(#p33e639294f)" d="M 506.180936 116.042263 
L 512.855577 116.042263 
L 512.855577 114.619776 
L 506.180936 114.619776 
z
" style="fill:#1f77b4;fill-opacity:0.75;stroke:#000000;stroke-linejoin:miter;stroke-width:0.667464;"/>
   </g>
   <g id="patch_69">
    <path clip-path="url(#p33e639294f)" d="M 512.855577 116.042263 
L 519.530218 116.042263 
L 519.530218 114.264154 
L 512.855577 114.264154 
z
" style="fill:#1f77b4;fill-opacity:0.75;stroke:#000000;stroke-linejoin:miter;stroke-width:0.667464;"/>
   </g>
   <g id="patch_70">
    <path clip-path="url(#p33e639294f)" d="M 519.530218 116.042263 
L 526.204859 116.042263 
L 526.204859 112.841666 
L 519.530218 112.841666 
z
" style="fill:#1f77b4;fill-opacity:0.75;stroke:#000000;stroke-linejoin:miter;stroke-width:0.667464;"/>
   </g>
   <g id="patch_71">
    <path clip-path="url(#p33e639294f)" d="M 526.204859 116.042263 
L 532.879501 116.042263 
L 532.879501 113.55291 
L 526.204859 113.55291 
z
" style="fill:#1f77b4;fill-opacity:0.75;stroke:#000000;stroke-linejoin:miter;stroke-width:0.667464;"/>
   </g>
   <g id="patch_72">
    <path clip-path="url(#p33e639294f)" d="M 532.879501 116.042263 
L 539.554142 116.042263 
L 539.554142 114.264154 
L 532.879501 114.264154 
z
" style="fill:#1f77b4;fill-opacity:0.75;stroke:#000000;stroke-linejoin:miter;stroke-width:0.667464;"/>
   </g>
   <g id="patch_73">
    <path clip-path="url(#p33e639294f)" d="M 539.554142 116.042263 
L 546.228783 116.042263 
L 546.228783 112.841666 
L 539.554142 112.841666 
z
" style="fill:#1f77b4;fill-opacity:0.75;stroke:#000000;stroke-linejoin:miter;stroke-width:0.667464;"/>
   </g>
   <g id="patch_74">
    <path clip-path="url(#p33e639294f)" d="M 546.228783 116.042263 
L 552.903424 116.042263 
L 552.903424 109.996692 
L 546.228783 109.996692 
z
" style="fill:#1f77b4;fill-opacity:0.75;stroke:#000000;stroke-linejoin:miter;stroke-width:0.667464;"/>
   </g>
   <g id="patch_75">
    <path clip-path="url(#p33e639294f)" d="M 552.903424 116.042263 
L 559.578065 116.042263 
L 559.578065 105.017986 
L 552.903424 105.017986 
z
" style="fill:#1f77b4;fill-opacity:0.75;stroke:#000000;stroke-linejoin:miter;stroke-width:0.667464;"/>
   </g>
   <g id="patch_76">
    <path clip-path="url(#p33e639294f)" d="M 559.578065 116.042263 
L 566.252706 116.042263 
L 566.252706 105.729229 
L 559.578065 105.729229 
z
" style="fill:#1f77b4;fill-opacity:0.75;stroke:#000000;stroke-linejoin:miter;stroke-width:0.667464;"/>
   </g>
   <g id="patch_77">
    <path clip-path="url(#p33e639294f)" d="M 566.252706 116.042263 
L 572.927347 116.042263 
L 572.927347 92.571221 
L 566.252706 92.571221 
z
" style="fill:#1f77b4;fill-opacity:0.75;stroke:#000000;stroke-linejoin:miter;stroke-width:0.667464;"/>
   </g>
   <g id="patch_78">
    <path clip-path="url(#p33e639294f)" d="M 572.927347 116.042263 
L 579.601989 116.042263 
L 579.601989 26.781179 
L 572.927347 26.781179 
z
" style="fill:#1f77b4;fill-opacity:0.75;stroke:#000000;stroke-linejoin:miter;stroke-width:0.667464;"/>
   </g>
   <g id="matplotlib.axis_1">
    <g id="xtick_1">
     <g id="line2d_1">
      <defs>
       <path d="M 0 0 
L 0 3.5 
" id="m973646e173" style="stroke:#000000;stroke-width:0.8;"/>
      </defs>
      <g>
       <use style="stroke:#000000;stroke-width:0.8;" x="71.919944" xlink:href="#m973646e173" y="116.042263"/>
      </g>
     </g>
     <g id="text_1">
      <!-- 0 -->
      <g transform="translate(68.738694 130.6407)scale(0.1 -0.1)">
       <defs>
        <path d="M 31.78125 66.40625 
Q 24.171875 66.40625 20.328125 58.90625 
Q 16.5 51.421875 16.5 36.375 
Q 16.5 21.390625 20.328125 13.890625 
Q 24.171875 6.390625 31.78125 6.390625 
Q 39.453125 6.390625 43.28125 13.890625 
Q 47.125 21.390625 47.125 36.375 
Q 47.125 51.421875 43.28125 58.90625 
Q 39.453125 66.40625 31.78125 66.40625 
z
M 31.78125 74.21875 
Q 44.046875 74.21875 50.515625 64.515625 
Q 56.984375 54.828125 56.984375 36.375 
Q 56.984375 17.96875 50.515625 8.265625 
Q 44.046875 -1.421875 31.78125 -1.421875 
Q 19.53125 -1.421875 13.0625 8.265625 
Q 6.59375 17.96875 6.59375 36.375 
Q 6.59375 54.828125 13.0625 64.515625 
Q 19.53125 74.21875 31.78125 74.21875 
z
" id="DejaVuSans-48"/>
       </defs>
       <use xlink:href="#DejaVuSans-48"/>
      </g>
     </g>
    </g>
    <g id="xtick_2">
     <g id="line2d_2">
      <g>
       <use style="stroke:#000000;stroke-width:0.8;" x="135.875857" xlink:href="#m973646e173" y="116.042263"/>
      </g>
     </g>
     <g id="text_2">
      <!-- 50 -->
      <g transform="translate(129.513357 130.6407)scale(0.1 -0.1)">
       <defs>
        <path d="M 10.796875 72.90625 
L 49.515625 72.90625 
L 49.515625 64.59375 
L 19.828125 64.59375 
L 19.828125 46.734375 
Q 21.96875 47.46875 24.109375 47.828125 
Q 26.265625 48.1875 28.421875 48.1875 
Q 40.625 48.1875 47.75 41.5 
Q 54.890625 34.8125 54.890625 23.390625 
Q 54.890625 11.625 47.5625 5.09375 
Q 40.234375 -1.421875 26.90625 -1.421875 
Q 22.3125 -1.421875 17.546875 -0.640625 
Q 12.796875 0.140625 7.71875 1.703125 
L 7.71875 11.625 
Q 12.109375 9.234375 16.796875 8.0625 
Q 21.484375 6.890625 26.703125 6.890625 
Q 35.15625 6.890625 40.078125 11.328125 
Q 45.015625 15.765625 45.015625 23.390625 
Q 45.015625 31 40.078125 35.4375 
Q 35.15625 39.890625 26.703125 39.890625 
Q 22.75 39.890625 18.8125 39.015625 
Q 14.890625 38.140625 10.796875 36.28125 
z
" id="DejaVuSans-53"/>
       </defs>
       <use xlink:href="#DejaVuSans-53"/>
       <use x="63.623047" xlink:href="#DejaVuSans-48"/>
      </g>
     </g>
    </g>
    <g id="xtick_3">
     <g id="line2d_3">
      <g>
       <use style="stroke:#000000;stroke-width:0.8;" x="199.831771" xlink:href="#m973646e173" y="116.042263"/>
      </g>
     </g>
     <g id="text_3">
      <!-- 100 -->
      <g transform="translate(190.288021 130.6407)scale(0.1 -0.1)">
       <defs>
        <path d="M 12.40625 8.296875 
L 28.515625 8.296875 
L 28.515625 63.921875 
L 10.984375 60.40625 
L 10.984375 69.390625 
L 28.421875 72.90625 
L 38.28125 72.90625 
L 38.28125 8.296875 
L 54.390625 8.296875 
L 54.390625 0 
L 12.40625 0 
z
" id="DejaVuSans-49"/>
       </defs>
       <use xlink:href="#DejaVuSans-49"/>
       <use x="63.623047" xlink:href="#DejaVuSans-48"/>
       <use x="127.246094" xlink:href="#DejaVuSans-48"/>
      </g>
     </g>
    </g>
    <g id="xtick_4">
     <g id="line2d_4">
      <g>
       <use style="stroke:#000000;stroke-width:0.8;" x="263.787685" xlink:href="#m973646e173" y="116.042263"/>
      </g>
     </g>
     <g id="text_4">
      <!-- 150 -->
      <g transform="translate(254.243935 130.6407)scale(0.1 -0.1)">
       <use xlink:href="#DejaVuSans-49"/>
       <use x="63.623047" xlink:href="#DejaVuSans-53"/>
       <use x="127.246094" xlink:href="#DejaVuSans-48"/>
      </g>
     </g>
    </g>
    <g id="xtick_5">
     <g id="line2d_5">
      <g>
       <use style="stroke:#000000;stroke-width:0.8;" x="327.743599" xlink:href="#m973646e173" y="116.042263"/>
      </g>
     </g>
     <g id="text_5">
      <!-- 200 -->
      <g transform="translate(318.199849 130.6407)scale(0.1 -0.1)">
       <defs>
        <path d="M 19.1875 8.296875 
L 53.609375 8.296875 
L 53.609375 0 
L 7.328125 0 
L 7.328125 8.296875 
Q 12.9375 14.109375 22.625 23.890625 
Q 32.328125 33.6875 34.8125 36.53125 
Q 39.546875 41.84375 41.421875 45.53125 
Q 43.3125 49.21875 43.3125 52.78125 
Q 43.3125 58.59375 39.234375 62.25 
Q 35.15625 65.921875 28.609375 65.921875 
Q 23.96875 65.921875 18.8125 64.3125 
Q 13.671875 62.703125 7.8125 59.421875 
L 7.8125 69.390625 
Q 13.765625 71.78125 18.9375 73 
Q 24.125 74.21875 28.421875 74.21875 
Q 39.75 74.21875 46.484375 68.546875 
Q 53.21875 62.890625 53.21875 53.421875 
Q 53.21875 48.921875 51.53125 44.890625 
Q 49.859375 40.875 45.40625 35.40625 
Q 44.1875 33.984375 37.640625 27.21875 
Q 31.109375 20.453125 19.1875 8.296875 
z
" id="DejaVuSans-50"/>
       </defs>
       <use xlink:href="#DejaVuSans-50"/>
       <use x="63.623047" xlink:href="#DejaVuSans-48"/>
       <use x="127.246094" xlink:href="#DejaVuSans-48"/>
      </g>
     </g>
    </g>
    <g id="xtick_6">
     <g id="line2d_6">
      <g>
       <use style="stroke:#000000;stroke-width:0.8;" x="391.699513" xlink:href="#m973646e173" y="116.042263"/>
      </g>
     </g>
     <g id="text_6">
      <!-- 250 -->
      <g transform="translate(382.155763 130.6407)scale(0.1 -0.1)">
       <use xlink:href="#DejaVuSans-50"/>
       <use x="63.623047" xlink:href="#DejaVuSans-53"/>
       <use x="127.246094" xlink:href="#DejaVuSans-48"/>
      </g>
     </g>
    </g>
    <g id="xtick_7">
     <g id="line2d_7">
      <g>
       <use style="stroke:#000000;stroke-width:0.8;" x="455.655427" xlink:href="#m973646e173" y="116.042263"/>
      </g>
     </g>
     <g id="text_7">
      <!-- 300 -->
      <g transform="translate(446.111677 130.6407)scale(0.1 -0.1)">
       <defs>
        <path d="M 40.578125 39.3125 
Q 47.65625 37.796875 51.625 33 
Q 55.609375 28.21875 55.609375 21.1875 
Q 55.609375 10.40625 48.1875 4.484375 
Q 40.765625 -1.421875 27.09375 -1.421875 
Q 22.515625 -1.421875 17.65625 -0.515625 
Q 12.796875 0.390625 7.625 2.203125 
L 7.625 11.71875 
Q 11.71875 9.328125 16.59375 8.109375 
Q 21.484375 6.890625 26.8125 6.890625 
Q 36.078125 6.890625 40.9375 10.546875 
Q 45.796875 14.203125 45.796875 21.1875 
Q 45.796875 27.640625 41.28125 31.265625 
Q 36.765625 34.90625 28.71875 34.90625 
L 20.21875 34.90625 
L 20.21875 43.015625 
L 29.109375 43.015625 
Q 36.375 43.015625 40.234375 45.921875 
Q 44.09375 48.828125 44.09375 54.296875 
Q 44.09375 59.90625 40.109375 62.90625 
Q 36.140625 65.921875 28.71875 65.921875 
Q 24.65625 65.921875 20.015625 65.03125 
Q 15.375 64.15625 9.8125 62.3125 
L 9.8125 71.09375 
Q 15.4375 72.65625 20.34375 73.4375 
Q 25.25 74.21875 29.59375 74.21875 
Q 40.828125 74.21875 47.359375 69.109375 
Q 53.90625 64.015625 53.90625 55.328125 
Q 53.90625 49.265625 50.4375 45.09375 
Q 46.96875 40.921875 40.578125 39.3125 
z
" id="DejaVuSans-51"/>
       </defs>
       <use xlink:href="#DejaVuSans-51"/>
       <use x="63.623047" xlink:href="#DejaVuSans-48"/>
       <use x="127.246094" xlink:href="#DejaVuSans-48"/>
      </g>
     </g>
    </g>
    <g id="xtick_8">
     <g id="line2d_8">
      <g>
       <use style="stroke:#000000;stroke-width:0.8;" x="519.611341" xlink:href="#m973646e173" y="116.042263"/>
      </g>
     </g>
     <g id="text_8">
      <!-- 350 -->
      <g transform="translate(510.067591 130.6407)scale(0.1 -0.1)">
       <use xlink:href="#DejaVuSans-51"/>
       <use x="63.623047" xlink:href="#DejaVuSans-53"/>
       <use x="127.246094" xlink:href="#DejaVuSans-48"/>
      </g>
     </g>
    </g>
    <g id="xtick_9">
     <g id="line2d_9">
      <g>
       <use style="stroke:#000000;stroke-width:0.8;" x="583.567255" xlink:href="#m973646e173" y="116.042263"/>
      </g>
     </g>
     <g id="text_9">
      <!-- 400 -->
      <g transform="translate(574.023505 130.6407)scale(0.1 -0.1)">
       <defs>
        <path d="M 37.796875 64.3125 
L 12.890625 25.390625 
L 37.796875 25.390625 
z
M 35.203125 72.90625 
L 47.609375 72.90625 
L 47.609375 25.390625 
L 58.015625 25.390625 
L 58.015625 17.1875 
L 47.609375 17.1875 
L 47.609375 0 
L 37.796875 0 
L 37.796875 17.1875 
L 4.890625 17.1875 
L 4.890625 26.703125 
z
" id="DejaVuSans-52"/>
       </defs>
       <use xlink:href="#DejaVuSans-52"/>
       <use x="63.623047" xlink:href="#DejaVuSans-48"/>
       <use x="127.246094" xlink:href="#DejaVuSans-48"/>
      </g>
     </g>
    </g>
    <g id="text_10">
     <!-- B -->
     <g transform="translate(322.535156 144.318825)scale(0.1 -0.1)">
      <defs>
       <path d="M 19.671875 34.8125 
L 19.671875 8.109375 
L 35.5 8.109375 
Q 43.453125 8.109375 47.28125 11.40625 
Q 51.125 14.703125 51.125 21.484375 
Q 51.125 28.328125 47.28125 31.5625 
Q 43.453125 34.8125 35.5 34.8125 
z
M 19.671875 64.796875 
L 19.671875 42.828125 
L 34.28125 42.828125 
Q 41.5 42.828125 45.03125 45.53125 
Q 48.578125 48.25 48.578125 53.8125 
Q 48.578125 59.328125 45.03125 62.0625 
Q 41.5 64.796875 34.28125 64.796875 
z
M 9.8125 72.90625 
L 35.015625 72.90625 
Q 46.296875 72.90625 52.390625 68.21875 
Q 58.5 63.53125 58.5 54.890625 
Q 58.5 48.1875 55.375 44.234375 
Q 52.25 40.28125 46.1875 39.3125 
Q 53.46875 37.75 57.5 32.78125 
Q 61.53125 27.828125 61.53125 20.40625 
Q 61.53125 10.640625 54.890625 5.3125 
Q 48.25 0 35.984375 0 
L 9.8125 0 
z
" id="DejaVuSans-66"/>
      </defs>
      <use xlink:href="#DejaVuSans-66"/>
     </g>
    </g>
   </g>
   <g id="matplotlib.axis_2">
    <g id="ytick_1">
     <g id="line2d_10">
      <defs>
       <path d="M 0 0 
L -3.5 0 
" id="m6819cf4c34" style="stroke:#000000;stroke-width:0.8;"/>
      </defs>
      <g>
       <use style="stroke:#000000;stroke-width:0.8;" x="46.965625" xlink:href="#m6819cf4c34" y="116.042263"/>
      </g>
     </g>
     <g id="text_11">
      <!-- 0 -->
      <g transform="translate(33.603125 119.841482)scale(0.1 -0.1)">
       <use xlink:href="#DejaVuSans-48"/>
      </g>
     </g>
    </g>
    <g id="ytick_2">
     <g id="line2d_11">
      <g>
       <use style="stroke:#000000;stroke-width:0.8;" x="46.965625" xlink:href="#m6819cf4c34" y="80.480078"/>
      </g>
     </g>
     <g id="text_12">
      <!-- 100 -->
      <g transform="translate(20.878125 84.279297)scale(0.1 -0.1)">
       <use xlink:href="#DejaVuSans-49"/>
       <use x="63.623047" xlink:href="#DejaVuSans-48"/>
       <use x="127.246094" xlink:href="#DejaVuSans-48"/>
      </g>
     </g>
    </g>
    <g id="ytick_3">
     <g id="line2d_12">
      <g>
       <use style="stroke:#000000;stroke-width:0.8;" x="46.965625" xlink:href="#m6819cf4c34" y="44.917893"/>
      </g>
     </g>
     <g id="text_13">
      <!-- 200 -->
      <g transform="translate(20.878125 48.717112)scale(0.1 -0.1)">
       <use xlink:href="#DejaVuSans-50"/>
       <use x="63.623047" xlink:href="#DejaVuSans-48"/>
       <use x="127.246094" xlink:href="#DejaVuSans-48"/>
      </g>
     </g>
    </g>
    <g id="text_14">
     <!-- Count -->
     <g transform="translate(14.798437 84.028631)rotate(-90)scale(0.1 -0.1)">
      <defs>
       <path d="M 64.40625 67.28125 
L 64.40625 56.890625 
Q 59.421875 61.53125 53.78125 63.8125 
Q 48.140625 66.109375 41.796875 66.109375 
Q 29.296875 66.109375 22.65625 58.46875 
Q 16.015625 50.828125 16.015625 36.375 
Q 16.015625 21.96875 22.65625 14.328125 
Q 29.296875 6.6875 41.796875 6.6875 
Q 48.140625 6.6875 53.78125 8.984375 
Q 59.421875 11.28125 64.40625 15.921875 
L 64.40625 5.609375 
Q 59.234375 2.09375 53.4375 0.328125 
Q 47.65625 -1.421875 41.21875 -1.421875 
Q 24.65625 -1.421875 15.125 8.703125 
Q 5.609375 18.84375 5.609375 36.375 
Q 5.609375 53.953125 15.125 64.078125 
Q 24.65625 74.21875 41.21875 74.21875 
Q 47.75 74.21875 53.53125 72.484375 
Q 59.328125 70.75 64.40625 67.28125 
z
" id="DejaVuSans-67"/>
       <path d="M 30.609375 48.390625 
Q 23.390625 48.390625 19.1875 42.75 
Q 14.984375 37.109375 14.984375 27.296875 
Q 14.984375 17.484375 19.15625 11.84375 
Q 23.34375 6.203125 30.609375 6.203125 
Q 37.796875 6.203125 41.984375 11.859375 
Q 46.1875 17.53125 46.1875 27.296875 
Q 46.1875 37.015625 41.984375 42.703125 
Q 37.796875 48.390625 30.609375 48.390625 
z
M 30.609375 56 
Q 42.328125 56 49.015625 48.375 
Q 55.71875 40.765625 55.71875 27.296875 
Q 55.71875 13.875 49.015625 6.21875 
Q 42.328125 -1.421875 30.609375 -1.421875 
Q 18.84375 -1.421875 12.171875 6.21875 
Q 5.515625 13.875 5.515625 27.296875 
Q 5.515625 40.765625 12.171875 48.375 
Q 18.84375 56 30.609375 56 
z
" id="DejaVuSans-111"/>
       <path d="M 8.5 21.578125 
L 8.5 54.6875 
L 17.484375 54.6875 
L 17.484375 21.921875 
Q 17.484375 14.15625 20.5 10.265625 
Q 23.53125 6.390625 29.59375 6.390625 
Q 36.859375 6.390625 41.078125 11.03125 
Q 45.3125 15.671875 45.3125 23.6875 
L 45.3125 54.6875 
L 54.296875 54.6875 
L 54.296875 0 
L 45.3125 0 
L 45.3125 8.40625 
Q 42.046875 3.421875 37.71875 1 
Q 33.40625 -1.421875 27.6875 -1.421875 
Q 18.265625 -1.421875 13.375 4.4375 
Q 8.5 10.296875 8.5 21.578125 
z
M 31.109375 56 
z
" id="DejaVuSans-117"/>
       <path d="M 54.890625 33.015625 
L 54.890625 0 
L 45.90625 0 
L 45.90625 32.71875 
Q 45.90625 40.484375 42.875 44.328125 
Q 39.84375 48.1875 33.796875 48.1875 
Q 26.515625 48.1875 22.3125 43.546875 
Q 18.109375 38.921875 18.109375 30.90625 
L 18.109375 0 
L 9.078125 0 
L 9.078125 54.6875 
L 18.109375 54.6875 
L 18.109375 46.1875 
Q 21.34375 51.125 25.703125 53.5625 
Q 30.078125 56 35.796875 56 
Q 45.21875 56 50.046875 50.171875 
Q 54.890625 44.34375 54.890625 33.015625 
z
" id="DejaVuSans-110"/>
       <path d="M 18.3125 70.21875 
L 18.3125 54.6875 
L 36.8125 54.6875 
L 36.8125 47.703125 
L 18.3125 47.703125 
L 18.3125 18.015625 
Q 18.3125 11.328125 20.140625 9.421875 
Q 21.96875 7.515625 27.59375 7.515625 
L 36.8125 7.515625 
L 36.8125 0 
L 27.59375 0 
Q 17.1875 0 13.234375 3.875 
Q 9.28125 7.765625 9.28125 18.015625 
L 9.28125 47.703125 
L 2.6875 47.703125 
L 2.6875 54.6875 
L 9.28125 54.6875 
L 9.28125 70.21875 
z
" id="DejaVuSans-116"/>
      </defs>
      <use xlink:href="#DejaVuSans-67"/>
      <use x="69.824219" xlink:href="#DejaVuSans-111"/>
      <use x="131.005859" xlink:href="#DejaVuSans-117"/>
      <use x="194.384766" xlink:href="#DejaVuSans-110"/>
      <use x="257.763672" xlink:href="#DejaVuSans-116"/>
     </g>
    </g>
   </g>
   <g id="patch_79">
    <path d="M 46.965625 116.042263 
L 46.965625 22.318125 
" style="fill:none;stroke:#000000;stroke-linecap:square;stroke-linejoin:miter;stroke-width:0.8;"/>
   </g>
   <g id="patch_80">
    <path d="M 46.965625 116.042263 
L 604.965625 116.042263 
" style="fill:none;stroke:#000000;stroke-linecap:square;stroke-linejoin:miter;stroke-width:0.8;"/>
   </g>
   <g id="text_15">
    <!-- B -->
    <g transform="translate(321.849063 16.318125)scale(0.12 -0.12)">
     <use xlink:href="#DejaVuSans-66"/>
    </g>
   </g>
  </g>
  <g id="axes_2">
   <g id="patch_81">
    <path d="M 46.965625 565.918125 
L 604.965625 565.918125 
L 604.965625 134.787091 
L 46.965625 134.787091 
z
" style="fill:#ffffff;"/>
   </g>
   <g id="PolyCollection_1">
    <defs>
     <path d="M 72.329261 -246.491208 
L 72.329261 -259.752326 
L 77.453228 -260.258378 
L 82.577195 -260.675371 
L 87.701162 -260.990138 
L 92.825129 -261.195924 
L 97.949096 -261.292921 
L 103.073063 -261.288138 
L 108.19703 -261.194608 
L 113.320997 -261.030053 
L 118.444964 -260.815147 
L 123.568931 -260.571585 
L 128.692898 -260.320152 
L 133.816865 -260.078983 
L 138.940832 -259.862168 
L 144.064799 -259.678817 
L 149.188765 -259.532638 
L 154.312732 -259.422042 
L 159.436699 -259.340748 
L 164.560666 -259.278789 
L 169.684633 -259.223822 
L 174.8086 -259.162599 
L 179.932567 -259.082442 
L 185.056534 -258.972576 
L 190.180501 -258.825191 
L 195.304468 -258.636133 
L 200.428435 -258.405175 
L 205.552402 -258.135873 
L 210.676369 -257.835054 
L 215.800336 -257.512028 
L 220.924303 -257.177636 
L 226.04827 -256.843247 
L 231.172237 -256.51981 
L 236.296204 -256.217048 
L 241.42017 -255.942828 
L 246.544137 -255.702753 
L 251.668104 -255.49997 
L 256.792071 -255.335188 
L 261.916038 -255.206899 
L 267.040005 -255.111762 
L 272.163972 -255.045141 
L 277.287939 -255.001734 
L 282.411906 -254.976252 
L 287.535873 -254.964062 
L 292.65984 -254.961738 
L 297.783807 -254.967429 
L 302.907774 -254.981011 
L 308.031741 -255.003983 
L 313.155708 -255.039129 
L 318.279675 -255.089984 
L 323.403642 -255.160193 
L 328.527608 -255.252852 
L 333.651575 -255.369929 
L 338.775542 -255.51185 
L 343.899509 -255.677319 
L 349.023476 -255.863381 
L 354.147443 -256.065748 
L 359.27141 -256.279315 
L 364.395377 -256.498827 
L 369.519344 -256.719594 
L 374.643311 -256.938178 
L 379.767278 -257.152955 
L 384.891245 -257.364499 
L 390.015212 -257.57573 
L 395.139179 -257.791824 
L 400.263146 -258.019904 
L 405.387113 -258.268574 
L 410.51108 -258.547381 
L 415.635046 -258.866309 
L 420.759013 -259.235434 
L 425.88298 -259.664844 
L 431.006947 -260.164923 
L 436.130914 -260.747078 
L 441.254881 -261.424938 
L 446.378848 -262.216046 
L 451.502815 -263.143996 
L 456.626782 -264.240955 
L 461.750749 -265.550443 
L 466.874716 -267.130162 
L 471.998683 -269.054571 
L 477.12265 -271.416768 
L 482.246617 -274.329058 
L 487.370584 -277.921466 
L 492.494551 -282.337329 
L 497.618518 -287.725154 
L 502.742485 -294.226134 
L 507.866451 -301.957208 
L 512.990418 -310.990255 
L 518.114385 -321.328985 
L 523.238352 -332.886076 
L 528.362319 -345.46401 
L 533.486286 -358.743537 
L 538.610253 -372.283603 
L 543.73422 -385.535638 
L 548.858187 -397.873423 
L 553.982154 -408.637417 
L 559.106121 -417.189862 
L 564.230088 -422.974621 
L 569.354055 -425.574181 
L 574.478022 -424.755828 
L 579.601989 -420.500089 
L 579.601989 -85.743446 
L 579.601989 -85.743446 
L 574.478022 -81.487706 
L 569.354055 -80.669353 
L 564.230088 -83.268913 
L 559.106121 -89.053673 
L 553.982154 -97.606117 
L 548.858187 -108.370112 
L 543.73422 -120.707896 
L 538.610253 -133.959931 
L 533.486286 -147.499997 
L 528.362319 -160.779524 
L 523.238352 -173.357458 
L 518.114385 -184.91455 
L 512.990418 -195.25328 
L 507.866451 -204.286327 
L 502.742485 -212.017401 
L 497.618518 -218.518381 
L 492.494551 -223.906205 
L 487.370584 -228.322068 
L 482.246617 -231.914476 
L 477.12265 -234.826766 
L 471.998683 -237.188963 
L 466.874716 -239.113373 
L 461.750749 -240.693091 
L 456.626782 -242.00258 
L 451.502815 -243.099539 
L 446.378848 -244.027488 
L 441.254881 -244.818596 
L 436.130914 -245.496457 
L 431.006947 -246.078611 
L 425.88298 -246.57869 
L 420.759013 -247.0081 
L 415.635046 -247.377226 
L 410.51108 -247.696154 
L 405.387113 -247.974961 
L 400.263146 -248.223631 
L 395.139179 -248.451711 
L 390.015212 -248.667804 
L 384.891245 -248.879035 
L 379.767278 -249.09058 
L 374.643311 -249.305357 
L 369.519344 -249.523941 
L 364.395377 -249.744708 
L 359.27141 -249.964219 
L 354.147443 -250.177787 
L 349.023476 -250.380153 
L 343.899509 -250.566216 
L 338.775542 -250.731684 
L 333.651575 -250.873606 
L 328.527608 -250.990682 
L 323.403642 -251.083342 
L 318.279675 -251.153551 
L 313.155708 -251.204405 
L 308.031741 -251.239551 
L 302.907774 -251.262524 
L 297.783807 -251.276106 
L 292.65984 -251.281797 
L 287.535873 -251.279472 
L 282.411906 -251.267282 
L 277.287939 -251.2418 
L 272.163972 -251.198394 
L 267.040005 -251.131772 
L 261.916038 -251.036635 
L 256.792071 -250.908346 
L 251.668104 -250.743565 
L 246.544137 -250.540781 
L 241.42017 -250.300706 
L 236.296204 -250.026486 
L 231.172237 -249.723724 
L 226.04827 -249.400288 
L 220.924303 -249.065898 
L 215.800336 -248.731506 
L 210.676369 -248.40848 
L 205.552402 -248.107661 
L 200.428435 -247.838359 
L 195.304468 -247.607401 
L 190.180501 -247.418343 
L 185.056534 -247.270959 
L 179.932567 -247.161093 
L 174.8086 -247.080936 
L 169.684633 -247.019713 
L 164.560666 -246.964746 
L 159.436699 -246.902786 
L 154.312732 -246.821492 
L 149.188765 -246.710897 
L 144.064799 -246.564717 
L 138.940832 -246.381367 
L 133.816865 -246.164552 
L 128.692898 -245.923382 
L 123.568931 -245.671949 
L 118.444964 -245.428387 
L 113.320997 -245.213482 
L 108.19703 -245.048926 
L 103.073063 -244.955396 
L 97.949096 -244.950613 
L 92.825129 -245.04761 
L 87.701162 -245.253396 
L 82.577195 -245.568164 
L 77.453228 -245.985157 
L 72.329261 -246.491208 
z
" id="m684d058d2e" style="stroke:#3f3f3f;stroke-width:1.5;"/>
    </defs>
    <g clip-path="url(#p39d61e3daf)">
     <use style="fill:#3274a1;stroke:#3f3f3f;stroke-width:1.5;" x="0" xlink:href="#m684d058d2e" y="603.474375"/>
    </g>
   </g>
   <g id="matplotlib.axis_3">
    <g id="xtick_10">
     <g id="line2d_13">
      <g>
       <use style="stroke:#000000;stroke-width:0.8;" x="71.919944" xlink:href="#m973646e173" y="565.918125"/>
      </g>
     </g>
     <g id="text_16">
      <!-- 0 -->
      <g transform="translate(68.738694 580.516563)scale(0.1 -0.1)">
       <use xlink:href="#DejaVuSans-48"/>
      </g>
     </g>
    </g>
    <g id="xtick_11">
     <g id="line2d_14">
      <g>
       <use style="stroke:#000000;stroke-width:0.8;" x="135.875857" xlink:href="#m973646e173" y="565.918125"/>
      </g>
     </g>
     <g id="text_17">
      <!-- 50 -->
      <g transform="translate(129.513357 580.516563)scale(0.1 -0.1)">
       <use xlink:href="#DejaVuSans-53"/>
       <use x="63.623047" xlink:href="#DejaVuSans-48"/>
      </g>
     </g>
    </g>
    <g id="xtick_12">
     <g id="line2d_15">
      <g>
       <use style="stroke:#000000;stroke-width:0.8;" x="199.831771" xlink:href="#m973646e173" y="565.918125"/>
      </g>
     </g>
     <g id="text_18">
      <!-- 100 -->
      <g transform="translate(190.288021 580.516563)scale(0.1 -0.1)">
       <use xlink:href="#DejaVuSans-49"/>
       <use x="63.623047" xlink:href="#DejaVuSans-48"/>
       <use x="127.246094" xlink:href="#DejaVuSans-48"/>
      </g>
     </g>
    </g>
    <g id="xtick_13">
     <g id="line2d_16">
      <g>
       <use style="stroke:#000000;stroke-width:0.8;" x="263.787685" xlink:href="#m973646e173" y="565.918125"/>
      </g>
     </g>
     <g id="text_19">
      <!-- 150 -->
      <g transform="translate(254.243935 580.516563)scale(0.1 -0.1)">
       <use xlink:href="#DejaVuSans-49"/>
       <use x="63.623047" xlink:href="#DejaVuSans-53"/>
       <use x="127.246094" xlink:href="#DejaVuSans-48"/>
      </g>
     </g>
    </g>
    <g id="xtick_14">
     <g id="line2d_17">
      <g>
       <use style="stroke:#000000;stroke-width:0.8;" x="327.743599" xlink:href="#m973646e173" y="565.918125"/>
      </g>
     </g>
     <g id="text_20">
      <!-- 200 -->
      <g transform="translate(318.199849 580.516563)scale(0.1 -0.1)">
       <use xlink:href="#DejaVuSans-50"/>
       <use x="63.623047" xlink:href="#DejaVuSans-48"/>
       <use x="127.246094" xlink:href="#DejaVuSans-48"/>
      </g>
     </g>
    </g>
    <g id="xtick_15">
     <g id="line2d_18">
      <g>
       <use style="stroke:#000000;stroke-width:0.8;" x="391.699513" xlink:href="#m973646e173" y="565.918125"/>
      </g>
     </g>
     <g id="text_21">
      <!-- 250 -->
      <g transform="translate(382.155763 580.516563)scale(0.1 -0.1)">
       <use xlink:href="#DejaVuSans-50"/>
       <use x="63.623047" xlink:href="#DejaVuSans-53"/>
       <use x="127.246094" xlink:href="#DejaVuSans-48"/>
      </g>
     </g>
    </g>
    <g id="xtick_16">
     <g id="line2d_19">
      <g>
       <use style="stroke:#000000;stroke-width:0.8;" x="455.655427" xlink:href="#m973646e173" y="565.918125"/>
      </g>
     </g>
     <g id="text_22">
      <!-- 300 -->
      <g transform="translate(446.111677 580.516563)scale(0.1 -0.1)">
       <use xlink:href="#DejaVuSans-51"/>
       <use x="63.623047" xlink:href="#DejaVuSans-48"/>
       <use x="127.246094" xlink:href="#DejaVuSans-48"/>
      </g>
     </g>
    </g>
    <g id="xtick_17">
     <g id="line2d_20">
      <g>
       <use style="stroke:#000000;stroke-width:0.8;" x="519.611341" xlink:href="#m973646e173" y="565.918125"/>
      </g>
     </g>
     <g id="text_23">
      <!-- 350 -->
      <g transform="translate(510.067591 580.516563)scale(0.1 -0.1)">
       <use xlink:href="#DejaVuSans-51"/>
       <use x="63.623047" xlink:href="#DejaVuSans-53"/>
       <use x="127.246094" xlink:href="#DejaVuSans-48"/>
      </g>
     </g>
    </g>
    <g id="xtick_18">
     <g id="line2d_21">
      <g>
       <use style="stroke:#000000;stroke-width:0.8;" x="583.567255" xlink:href="#m973646e173" y="565.918125"/>
      </g>
     </g>
     <g id="text_24">
      <!-- 400 -->
      <g transform="translate(574.023505 580.516563)scale(0.1 -0.1)">
       <use xlink:href="#DejaVuSans-52"/>
       <use x="63.623047" xlink:href="#DejaVuSans-48"/>
       <use x="127.246094" xlink:href="#DejaVuSans-48"/>
      </g>
     </g>
    </g>
    <g id="text_25">
     <!-- B -->
     <g transform="translate(322.535156 594.194688)scale(0.1 -0.1)">
      <use xlink:href="#DejaVuSans-66"/>
     </g>
    </g>
   </g>
   <g id="matplotlib.axis_4">
    <g id="ytick_4">
     <g id="line2d_22">
      <g>
       <use style="stroke:#000000;stroke-width:0.8;" x="46.965625" xlink:href="#m6819cf4c34" y="350.352608"/>
      </g>
     </g>
    </g>
   </g>
   <g id="line2d_23">
    <path clip-path="url(#p39d61e3daf)" d="M 513.100629 350.352608 
L 579.601989 350.352608 
" style="fill:none;stroke:#3f3f3f;stroke-linecap:square;stroke-width:1.5;"/>
   </g>
   <g id="line2d_24">
    <path clip-path="url(#p39d61e3daf)" d="M 552.072165 350.352608 
L 578.738584 350.352608 
" style="fill:none;stroke:#3f3f3f;stroke-linecap:square;stroke-width:4.5;"/>
   </g>
   <g id="patch_82">
    <path d="M 46.965625 565.918125 
L 46.965625 134.787091 
" style="fill:none;stroke:#000000;stroke-linecap:square;stroke-linejoin:miter;stroke-width:0.8;"/>
   </g>
   <g id="patch_83">
    <path d="M 604.965625 565.918125 
L 604.965625 134.787091 
" style="fill:none;stroke:#000000;stroke-linecap:square;stroke-linejoin:miter;stroke-width:0.8;"/>
   </g>
   <g id="patch_84">
    <path d="M 46.965625 565.918125 
L 604.965625 565.918125 
" style="fill:none;stroke:#000000;stroke-linecap:square;stroke-linejoin:miter;stroke-width:0.8;"/>
   </g>
   <g id="patch_85">
    <path d="M 46.965625 134.787091 
L 604.965625 134.787091 
" style="fill:none;stroke:#000000;stroke-linecap:square;stroke-linejoin:miter;stroke-width:0.8;"/>
   </g>
   <g id="PathCollection_1">
    <defs>
     <path d="M 0 1.5 
C 0.397805 1.5 0.77937 1.341951 1.06066 1.06066 
C 1.341951 0.77937 1.5 0.397805 1.5 0 
C 1.5 -0.397805 1.341951 -0.77937 1.06066 -1.06066 
C 0.77937 -1.341951 0.397805 -1.5 0 -1.5 
C -0.397805 -1.5 -0.77937 -1.341951 -1.06066 -1.06066 
C -1.341951 -0.77937 -1.5 -0.397805 -1.5 0 
C -1.5 0.397805 -1.341951 0.77937 -1.06066 1.06066 
C -0.77937 1.341951 -0.397805 1.5 0 1.5 
z
" id="mbce3d5f2eb" style="stroke:#3f3f3f;"/>
    </defs>
    <g clip-path="url(#p39d61e3daf)">
     <use style="fill:#ffffff;stroke:#3f3f3f;" x="572.618003" xlink:href="#mbce3d5f2eb" y="350.352608"/>
    </g>
   </g>
  </g>
 </g>
 <defs>
  <clipPath id="p33e639294f">
   <rect height="93.724138" width="558" x="46.965625" y="22.318125"/>
  </clipPath>
  <clipPath id="p39d61e3daf">
   <rect height="431.131034" width="558" x="46.965625" y="134.787091"/>
  </clipPath>
 </defs>
</svg>
