<?xml version="1.0" encoding="utf-8" standalone="no"?>
<!DOCTYPE svg PUBLIC "-//W3C//DTD SVG 1.1//EN"
  "http://www.w3.org/Graphics/SVG/1.1/DTD/svg11.dtd">
<!-- Created with matplotlib (https://matplotlib.org/) -->
<svg height="603.474375pt" version="1.1" viewBox="0 0 612.165625 603.474375" width="612.165625pt" xmlns="http://www.w3.org/2000/svg" xmlns:xlink="http://www.w3.org/1999/xlink">
 <metadata>
  <rdf:RDF xmlns:cc="http://creativecommons.org/ns#" xmlns:dc="http://purl.org/dc/elements/1.1/" xmlns:rdf="http://www.w3.org/1999/02/22-rdf-syntax-ns#">
   <cc:Work>
    <dc:type rdf:resource="http://purl.org/dc/dcmitype/StillImage"/>
    <dc:date>2020-10-06T19:10:11.230688</dc:date>
    <dc:format>image/svg+xml</dc:format>
    <dc:creator>
     <cc:Agent>
      <dc:title>Matplotlib v3.3.1, https://matplotlib.org/</dc:title>
     </cc:Agent>
    </dc:creator>
   </cc:Work>
  </rdf:RDF>
 </metadata>
 <defs>
  <style type="text/css">*{stroke-linecap:butt;stroke-linejoin:round;}</style>
 </defs>
 <g id="figure_1">
  <g id="patch_1">
   <path d="M 0 603.474375 
L 612.165625 603.474375 
L 612.165625 0 
L 0 0 
z
" style="fill:none;"/>
  </g>
  <g id="axes_1">
   <g id="patch_2">
    <path d="M 46.965625 116.042263 
L 604.965625 116.042263 
L 604.965625 22.318125 
L 46.965625 22.318125 
z
" style="fill:#ffffff;"/>
   </g>
   <g id="patch_3">
    <path clip-path="url(#pcc05352fe0)" d="M 72.329261 116.042263 
L 123.056534 116.042263 
L 123.056534 80.859062 
L 72.329261 80.859062 
z
" style="fill:#1f77b4;fill-opacity:0.75;stroke:#000000;stroke-linejoin:miter;"/>
   </g>
   <g id="patch_4">
    <path clip-path="url(#pcc05352fe0)" d="M 123.056534 116.042263 
L 173.783807 116.042263 
L 173.783807 50.888187 
L 123.056534 50.888187 
z
" style="fill:#1f77b4;fill-opacity:0.75;stroke:#000000;stroke-linejoin:miter;"/>
   </g>
   <g id="patch_5">
    <path clip-path="url(#pcc05352fe0)" d="M 173.783807 116.042263 
L 224.51108 116.042263 
L 224.51108 45.675861 
L 173.783807 45.675861 
z
" style="fill:#1f77b4;fill-opacity:0.75;stroke:#000000;stroke-linejoin:miter;"/>
   </g>
   <g id="patch_6">
    <path clip-path="url(#pcc05352fe0)" d="M 224.51108 116.042263 
L 275.238352 116.042263 
L 275.238352 95.192959 
L 224.51108 95.192959 
z
" style="fill:#1f77b4;fill-opacity:0.75;stroke:#000000;stroke-linejoin:miter;"/>
   </g>
   <g id="patch_7">
    <path clip-path="url(#pcc05352fe0)" d="M 275.238352 116.042263 
L 325.965625 116.042263 
L 325.965625 67.828247 
L 275.238352 67.828247 
z
" style="fill:#1f77b4;fill-opacity:0.75;stroke:#000000;stroke-linejoin:miter;"/>
   </g>
   <g id="patch_8">
    <path clip-path="url(#pcc05352fe0)" d="M 325.965625 116.042263 
L 376.692898 116.042263 
L 376.692898 115.390722 
L 325.965625 115.390722 
z
" style="fill:#1f77b4;fill-opacity:0.75;stroke:#000000;stroke-linejoin:miter;"/>
   </g>
   <g id="patch_9">
    <path clip-path="url(#pcc05352fe0)" d="M 376.692898 116.042263 
L 427.42017 116.042263 
L 427.42017 116.042263 
L 376.692898 116.042263 
z
" style="fill:#1f77b4;fill-opacity:0.75;stroke:#000000;stroke-linejoin:miter;"/>
   </g>
   <g id="patch_10">
    <path clip-path="url(#pcc05352fe0)" d="M 427.42017 116.042263 
L 478.147443 116.042263 
L 478.147443 116.042263 
L 427.42017 116.042263 
z
" style="fill:#1f77b4;fill-opacity:0.75;stroke:#000000;stroke-linejoin:miter;"/>
   </g>
   <g id="patch_11">
    <path clip-path="url(#pcc05352fe0)" d="M 478.147443 116.042263 
L 528.874716 116.042263 
L 528.874716 116.042263 
L 478.147443 116.042263 
z
" style="fill:#1f77b4;fill-opacity:0.75;stroke:#000000;stroke-linejoin:miter;"/>
   </g>
   <g id="patch_12">
    <path clip-path="url(#pcc05352fe0)" d="M 528.874716 116.042263 
L 579.601989 116.042263 
L 579.601989 26.781179 
L 528.874716 26.781179 
z
" style="fill:#1f77b4;fill-opacity:0.75;stroke:#000000;stroke-linejoin:miter;"/>
   </g>
   <g id="matplotlib.axis_1">
    <g id="xtick_1">
     <g id="line2d_1">
      <defs>
       <path d="M 0 0 
L 0 3.5 
" id="m21c667bf8e" style="stroke:#000000;stroke-width:0.8;"/>
      </defs>
      <g>
       <use style="stroke:#000000;stroke-width:0.8;" x="84.914272" xlink:href="#m21c667bf8e" y="116.042263"/>
      </g>
     </g>
     <g id="text_1">
      <!-- 200 -->
      <g transform="translate(75.370522 130.6407)scale(0.1 -0.1)">
       <defs>
        <path d="M 19.1875 8.296875 
L 53.609375 8.296875 
L 53.609375 0 
L 7.328125 0 
L 7.328125 8.296875 
Q 12.9375 14.109375 22.625 23.890625 
Q 32.328125 33.6875 34.8125 36.53125 
Q 39.546875 41.84375 41.421875 45.53125 
Q 43.3125 49.21875 43.3125 52.78125 
Q 43.3125 58.59375 39.234375 62.25 
Q 35.15625 65.921875 28.609375 65.921875 
Q 23.96875 65.921875 18.8125 64.3125 
Q 13.671875 62.703125 7.8125 59.421875 
L 7.8125 69.390625 
Q 13.765625 71.78125 18.9375 73 
Q 24.125 74.21875 28.421875 74.21875 
Q 39.75 74.21875 46.484375 68.546875 
Q 53.21875 62.890625 53.21875 53.421875 
Q 53.21875 48.921875 51.53125 44.890625 
Q 49.859375 40.875 45.40625 35.40625 
Q 44.1875 33.984375 37.640625 27.21875 
Q 31.109375 20.453125 19.1875 8.296875 
z
" id="DejaVuSans-50"/>
        <path d="M 31.78125 66.40625 
Q 24.171875 66.40625 20.328125 58.90625 
Q 16.5 51.421875 16.5 36.375 
Q 16.5 21.390625 20.328125 13.890625 
Q 24.171875 6.390625 31.78125 6.390625 
Q 39.453125 6.390625 43.28125 13.890625 
Q 47.125 21.390625 47.125 36.375 
Q 47.125 51.421875 43.28125 58.90625 
Q 39.453125 66.40625 31.78125 66.40625 
z
M 31.78125 74.21875 
Q 44.046875 74.21875 50.515625 64.515625 
Q 56.984375 54.828125 56.984375 36.375 
Q 56.984375 17.96875 50.515625 8.265625 
Q 44.046875 -1.421875 31.78125 -1.421875 
Q 19.53125 -1.421875 13.0625 8.265625 
Q 6.59375 17.96875 6.59375 36.375 
Q 6.59375 54.828125 13.0625 64.515625 
Q 19.53125 74.21875 31.78125 74.21875 
z
" id="DejaVuSans-48"/>
       </defs>
       <use xlink:href="#DejaVuSans-50"/>
       <use x="63.623047" xlink:href="#DejaVuSans-48"/>
       <use x="127.246094" xlink:href="#DejaVuSans-48"/>
      </g>
     </g>
    </g>
    <g id="xtick_2">
     <g id="line2d_2">
      <g>
       <use style="stroke:#000000;stroke-width:0.8;" x="181.722044" xlink:href="#m21c667bf8e" y="116.042263"/>
      </g>
     </g>
     <g id="text_2">
      <!-- 300 -->
      <g transform="translate(172.178294 130.6407)scale(0.1 -0.1)">
       <defs>
        <path d="M 40.578125 39.3125 
Q 47.65625 37.796875 51.625 33 
Q 55.609375 28.21875 55.609375 21.1875 
Q 55.609375 10.40625 48.1875 4.484375 
Q 40.765625 -1.421875 27.09375 -1.421875 
Q 22.515625 -1.421875 17.65625 -0.515625 
Q 12.796875 0.390625 7.625 2.203125 
L 7.625 11.71875 
Q 11.71875 9.328125 16.59375 8.109375 
Q 21.484375 6.890625 26.8125 6.890625 
Q 36.078125 6.890625 40.9375 10.546875 
Q 45.796875 14.203125 45.796875 21.1875 
Q 45.796875 27.640625 41.28125 31.265625 
Q 36.765625 34.90625 28.71875 34.90625 
L 20.21875 34.90625 
L 20.21875 43.015625 
L 29.109375 43.015625 
Q 36.375 43.015625 40.234375 45.921875 
Q 44.09375 48.828125 44.09375 54.296875 
Q 44.09375 59.90625 40.109375 62.90625 
Q 36.140625 65.921875 28.71875 65.921875 
Q 24.65625 65.921875 20.015625 65.03125 
Q 15.375 64.15625 9.8125 62.3125 
L 9.8125 71.09375 
Q 15.4375 72.65625 20.34375 73.4375 
Q 25.25 74.21875 29.59375 74.21875 
Q 40.828125 74.21875 47.359375 69.109375 
Q 53.90625 64.015625 53.90625 55.328125 
Q 53.90625 49.265625 50.4375 45.09375 
Q 46.96875 40.921875 40.578125 39.3125 
z
" id="DejaVuSans-51"/>
       </defs>
       <use xlink:href="#DejaVuSans-51"/>
       <use x="63.623047" xlink:href="#DejaVuSans-48"/>
       <use x="127.246094" xlink:href="#DejaVuSans-48"/>
      </g>
     </g>
    </g>
    <g id="xtick_3">
     <g id="line2d_3">
      <g>
       <use style="stroke:#000000;stroke-width:0.8;" x="278.529817" xlink:href="#m21c667bf8e" y="116.042263"/>
      </g>
     </g>
     <g id="text_3">
      <!-- 400 -->
      <g transform="translate(268.986067 130.6407)scale(0.1 -0.1)">
       <defs>
        <path d="M 37.796875 64.3125 
L 12.890625 25.390625 
L 37.796875 25.390625 
z
M 35.203125 72.90625 
L 47.609375 72.90625 
L 47.609375 25.390625 
L 58.015625 25.390625 
L 58.015625 17.1875 
L 47.609375 17.1875 
L 47.609375 0 
L 37.796875 0 
L 37.796875 17.1875 
L 4.890625 17.1875 
L 4.890625 26.703125 
z
" id="DejaVuSans-52"/>
       </defs>
       <use xlink:href="#DejaVuSans-52"/>
       <use x="63.623047" xlink:href="#DejaVuSans-48"/>
       <use x="127.246094" xlink:href="#DejaVuSans-48"/>
      </g>
     </g>
    </g>
    <g id="xtick_4">
     <g id="line2d_4">
      <g>
       <use style="stroke:#000000;stroke-width:0.8;" x="375.337589" xlink:href="#m21c667bf8e" y="116.042263"/>
      </g>
     </g>
     <g id="text_4">
      <!-- 500 -->
      <g transform="translate(365.793839 130.6407)scale(0.1 -0.1)">
       <defs>
        <path d="M 10.796875 72.90625 
L 49.515625 72.90625 
L 49.515625 64.59375 
L 19.828125 64.59375 
L 19.828125 46.734375 
Q 21.96875 47.46875 24.109375 47.828125 
Q 26.265625 48.1875 28.421875 48.1875 
Q 40.625 48.1875 47.75 41.5 
Q 54.890625 34.8125 54.890625 23.390625 
Q 54.890625 11.625 47.5625 5.09375 
Q 40.234375 -1.421875 26.90625 -1.421875 
Q 22.3125 -1.421875 17.546875 -0.640625 
Q 12.796875 0.140625 7.71875 1.703125 
L 7.71875 11.625 
Q 12.109375 9.234375 16.796875 8.0625 
Q 21.484375 6.890625 26.703125 6.890625 
Q 35.15625 6.890625 40.078125 11.328125 
Q 45.015625 15.765625 45.015625 23.390625 
Q 45.015625 31 40.078125 35.4375 
Q 35.15625 39.890625 26.703125 39.890625 
Q 22.75 39.890625 18.8125 39.015625 
Q 14.890625 38.140625 10.796875 36.28125 
z
" id="DejaVuSans-53"/>
       </defs>
       <use xlink:href="#DejaVuSans-53"/>
       <use x="63.623047" xlink:href="#DejaVuSans-48"/>
       <use x="127.246094" xlink:href="#DejaVuSans-48"/>
      </g>
     </g>
    </g>
    <g id="xtick_5">
     <g id="line2d_5">
      <g>
       <use style="stroke:#000000;stroke-width:0.8;" x="472.145361" xlink:href="#m21c667bf8e" y="116.042263"/>
      </g>
     </g>
     <g id="text_5">
      <!-- 600 -->
      <g transform="translate(462.601611 130.6407)scale(0.1 -0.1)">
       <defs>
        <path d="M 33.015625 40.375 
Q 26.375 40.375 22.484375 35.828125 
Q 18.609375 31.296875 18.609375 23.390625 
Q 18.609375 15.53125 22.484375 10.953125 
Q 26.375 6.390625 33.015625 6.390625 
Q 39.65625 6.390625 43.53125 10.953125 
Q 47.40625 15.53125 47.40625 23.390625 
Q 47.40625 31.296875 43.53125 35.828125 
Q 39.65625 40.375 33.015625 40.375 
z
M 52.59375 71.296875 
L 52.59375 62.3125 
Q 48.875 64.0625 45.09375 64.984375 
Q 41.3125 65.921875 37.59375 65.921875 
Q 27.828125 65.921875 22.671875 59.328125 
Q 17.53125 52.734375 16.796875 39.40625 
Q 19.671875 43.65625 24.015625 45.921875 
Q 28.375 48.1875 33.59375 48.1875 
Q 44.578125 48.1875 50.953125 41.515625 
Q 57.328125 34.859375 57.328125 23.390625 
Q 57.328125 12.15625 50.6875 5.359375 
Q 44.046875 -1.421875 33.015625 -1.421875 
Q 20.359375 -1.421875 13.671875 8.265625 
Q 6.984375 17.96875 6.984375 36.375 
Q 6.984375 53.65625 15.1875 63.9375 
Q 23.390625 74.21875 37.203125 74.21875 
Q 40.921875 74.21875 44.703125 73.484375 
Q 48.484375 72.75 52.59375 71.296875 
z
" id="DejaVuSans-54"/>
       </defs>
       <use xlink:href="#DejaVuSans-54"/>
       <use x="63.623047" xlink:href="#DejaVuSans-48"/>
       <use x="127.246094" xlink:href="#DejaVuSans-48"/>
      </g>
     </g>
    </g>
    <g id="xtick_6">
     <g id="line2d_6">
      <g>
       <use style="stroke:#000000;stroke-width:0.8;" x="568.953134" xlink:href="#m21c667bf8e" y="116.042263"/>
      </g>
     </g>
     <g id="text_6">
      <!-- 700 -->
      <g transform="translate(559.409384 130.6407)scale(0.1 -0.1)">
       <defs>
        <path d="M 8.203125 72.90625 
L 55.078125 72.90625 
L 55.078125 68.703125 
L 28.609375 0 
L 18.3125 0 
L 43.21875 64.59375 
L 8.203125 64.59375 
z
" id="DejaVuSans-55"/>
       </defs>
       <use xlink:href="#DejaVuSans-55"/>
       <use x="63.623047" xlink:href="#DejaVuSans-48"/>
       <use x="127.246094" xlink:href="#DejaVuSans-48"/>
      </g>
     </g>
    </g>
    <g id="text_7">
     <!-- TAX -->
     <g transform="translate(316.453906 144.318825)scale(0.1 -0.1)">
      <defs>
       <path d="M -0.296875 72.90625 
L 61.375 72.90625 
L 61.375 64.59375 
L 35.5 64.59375 
L 35.5 0 
L 25.59375 0 
L 25.59375 64.59375 
L -0.296875 64.59375 
z
" id="DejaVuSans-84"/>
       <path d="M 34.1875 63.1875 
L 20.796875 26.90625 
L 47.609375 26.90625 
z
M 28.609375 72.90625 
L 39.796875 72.90625 
L 67.578125 0 
L 57.328125 0 
L 50.6875 18.703125 
L 17.828125 18.703125 
L 11.1875 0 
L 0.78125 0 
z
" id="DejaVuSans-65"/>
       <path d="M 6.296875 72.90625 
L 16.890625 72.90625 
L 35.015625 45.796875 
L 53.21875 72.90625 
L 63.8125 72.90625 
L 40.375 37.890625 
L 65.375 0 
L 54.78125 0 
L 34.28125 31 
L 13.625 0 
L 2.984375 0 
L 29 38.921875 
z
" id="DejaVuSans-88"/>
      </defs>
      <use xlink:href="#DejaVuSans-84"/>
      <use x="53.333984" xlink:href="#DejaVuSans-65"/>
      <use x="121.742188" xlink:href="#DejaVuSans-88"/>
     </g>
    </g>
   </g>
   <g id="matplotlib.axis_2">
    <g id="ytick_1">
     <g id="line2d_7">
      <defs>
       <path d="M 0 0 
L -3.5 0 
" id="mc82606b304" style="stroke:#000000;stroke-width:0.8;"/>
      </defs>
      <g>
       <use style="stroke:#000000;stroke-width:0.8;" x="46.965625" xlink:href="#mc82606b304" y="116.042263"/>
      </g>
     </g>
     <g id="text_8">
      <!-- 0 -->
      <g transform="translate(33.603125 119.841482)scale(0.1 -0.1)">
       <use xlink:href="#DejaVuSans-48"/>
      </g>
     </g>
    </g>
    <g id="ytick_2">
     <g id="line2d_8">
      <g>
       <use style="stroke:#000000;stroke-width:0.8;" x="46.965625" xlink:href="#mc82606b304" y="83.465225"/>
      </g>
     </g>
     <g id="text_9">
      <!-- 50 -->
      <g transform="translate(27.240625 87.264444)scale(0.1 -0.1)">
       <use xlink:href="#DejaVuSans-53"/>
       <use x="63.623047" xlink:href="#DejaVuSans-48"/>
      </g>
     </g>
    </g>
    <g id="ytick_3">
     <g id="line2d_9">
      <g>
       <use style="stroke:#000000;stroke-width:0.8;" x="46.965625" xlink:href="#mc82606b304" y="50.888187"/>
      </g>
     </g>
     <g id="text_10">
      <!-- 100 -->
      <g transform="translate(20.878125 54.687406)scale(0.1 -0.1)">
       <defs>
        <path d="M 12.40625 8.296875 
L 28.515625 8.296875 
L 28.515625 63.921875 
L 10.984375 60.40625 
L 10.984375 69.390625 
L 28.421875 72.90625 
L 38.28125 72.90625 
L 38.28125 8.296875 
L 54.390625 8.296875 
L 54.390625 0 
L 12.40625 0 
z
" id="DejaVuSans-49"/>
       </defs>
       <use xlink:href="#DejaVuSans-49"/>
       <use x="63.623047" xlink:href="#DejaVuSans-48"/>
       <use x="127.246094" xlink:href="#DejaVuSans-48"/>
      </g>
     </g>
    </g>
    <g id="text_11">
     <!-- Count -->
     <g transform="translate(14.798437 84.028631)rotate(-90)scale(0.1 -0.1)">
      <defs>
       <path d="M 64.40625 67.28125 
L 64.40625 56.890625 
Q 59.421875 61.53125 53.78125 63.8125 
Q 48.140625 66.109375 41.796875 66.109375 
Q 29.296875 66.109375 22.65625 58.46875 
Q 16.015625 50.828125 16.015625 36.375 
Q 16.015625 21.96875 22.65625 14.328125 
Q 29.296875 6.6875 41.796875 6.6875 
Q 48.140625 6.6875 53.78125 8.984375 
Q 59.421875 11.28125 64.40625 15.921875 
L 64.40625 5.609375 
Q 59.234375 2.09375 53.4375 0.328125 
Q 47.65625 -1.421875 41.21875 -1.421875 
Q 24.65625 -1.421875 15.125 8.703125 
Q 5.609375 18.84375 5.609375 36.375 
Q 5.609375 53.953125 15.125 64.078125 
Q 24.65625 74.21875 41.21875 74.21875 
Q 47.75 74.21875 53.53125 72.484375 
Q 59.328125 70.75 64.40625 67.28125 
z
" id="DejaVuSans-67"/>
       <path d="M 30.609375 48.390625 
Q 23.390625 48.390625 19.1875 42.75 
Q 14.984375 37.109375 14.984375 27.296875 
Q 14.984375 17.484375 19.15625 11.84375 
Q 23.34375 6.203125 30.609375 6.203125 
Q 37.796875 6.203125 41.984375 11.859375 
Q 46.1875 17.53125 46.1875 27.296875 
Q 46.1875 37.015625 41.984375 42.703125 
Q 37.796875 48.390625 30.609375 48.390625 
z
M 30.609375 56 
Q 42.328125 56 49.015625 48.375 
Q 55.71875 40.765625 55.71875 27.296875 
Q 55.71875 13.875 49.015625 6.21875 
Q 42.328125 -1.421875 30.609375 -1.421875 
Q 18.84375 -1.421875 12.171875 6.21875 
Q 5.515625 13.875 5.515625 27.296875 
Q 5.515625 40.765625 12.171875 48.375 
Q 18.84375 56 30.609375 56 
z
" id="DejaVuSans-111"/>
       <path d="M 8.5 21.578125 
L 8.5 54.6875 
L 17.484375 54.6875 
L 17.484375 21.921875 
Q 17.484375 14.15625 20.5 10.265625 
Q 23.53125 6.390625 29.59375 6.390625 
Q 36.859375 6.390625 41.078125 11.03125 
Q 45.3125 15.671875 45.3125 23.6875 
L 45.3125 54.6875 
L 54.296875 54.6875 
L 54.296875 0 
L 45.3125 0 
L 45.3125 8.40625 
Q 42.046875 3.421875 37.71875 1 
Q 33.40625 -1.421875 27.6875 -1.421875 
Q 18.265625 -1.421875 13.375 4.4375 
Q 8.5 10.296875 8.5 21.578125 
z
M 31.109375 56 
z
" id="DejaVuSans-117"/>
       <path d="M 54.890625 33.015625 
L 54.890625 0 
L 45.90625 0 
L 45.90625 32.71875 
Q 45.90625 40.484375 42.875 44.328125 
Q 39.84375 48.1875 33.796875 48.1875 
Q 26.515625 48.1875 22.3125 43.546875 
Q 18.109375 38.921875 18.109375 30.90625 
L 18.109375 0 
L 9.078125 0 
L 9.078125 54.6875 
L 18.109375 54.6875 
L 18.109375 46.1875 
Q 21.34375 51.125 25.703125 53.5625 
Q 30.078125 56 35.796875 56 
Q 45.21875 56 50.046875 50.171875 
Q 54.890625 44.34375 54.890625 33.015625 
z
" id="DejaVuSans-110"/>
       <path d="M 18.3125 70.21875 
L 18.3125 54.6875 
L 36.8125 54.6875 
L 36.8125 47.703125 
L 18.3125 47.703125 
L 18.3125 18.015625 
Q 18.3125 11.328125 20.140625 9.421875 
Q 21.96875 7.515625 27.59375 7.515625 
L 36.8125 7.515625 
L 36.8125 0 
L 27.59375 0 
Q 17.1875 0 13.234375 3.875 
Q 9.28125 7.765625 9.28125 18.015625 
L 9.28125 47.703125 
L 2.6875 47.703125 
L 2.6875 54.6875 
L 9.28125 54.6875 
L 9.28125 70.21875 
z
" id="DejaVuSans-116"/>
      </defs>
      <use xlink:href="#DejaVuSans-67"/>
      <use x="69.824219" xlink:href="#DejaVuSans-111"/>
      <use x="131.005859" xlink:href="#DejaVuSans-117"/>
      <use x="194.384766" xlink:href="#DejaVuSans-110"/>
      <use x="257.763672" xlink:href="#DejaVuSans-116"/>
     </g>
    </g>
   </g>
   <g id="patch_13">
    <path d="M 46.965625 116.042263 
L 46.965625 22.318125 
" style="fill:none;stroke:#000000;stroke-linecap:square;stroke-linejoin:miter;stroke-width:0.8;"/>
   </g>
   <g id="patch_14">
    <path d="M 46.965625 116.042263 
L 604.965625 116.042263 
" style="fill:none;stroke:#000000;stroke-linecap:square;stroke-linejoin:miter;stroke-width:0.8;"/>
   </g>
   <g id="text_12">
    <!-- TAX -->
    <g transform="translate(314.551562 16.318125)scale(0.12 -0.12)">
     <use xlink:href="#DejaVuSans-84"/>
     <use x="53.333984" xlink:href="#DejaVuSans-65"/>
     <use x="121.742188" xlink:href="#DejaVuSans-88"/>
    </g>
   </g>
  </g>
  <g id="axes_2">
   <g id="patch_15">
    <path d="M 46.965625 565.918125 
L 604.965625 565.918125 
L 604.965625 134.787091 
L 46.965625 134.787091 
z
" style="fill:#ffffff;"/>
   </g>
   <g id="PolyCollection_1">
    <defs>
     <path d="M 72.329261 -193.307644 
L 72.329261 -312.93589 
L 77.453228 -319.553887 
L 82.577195 -326.476254 
L 87.701162 -333.663694 
L 92.825129 -341.069656 
L 97.949096 -348.639892 
L 103.073063 -356.312043 
L 108.19703 -364.01536 
L 113.320997 -371.67067 
L 118.444964 -379.190717 
L 123.568931 -386.481003 
L 128.692898 -393.441246 
L 133.816865 -399.967503 
L 138.940832 -405.955002 
L 144.064799 -411.301605 
L 149.188765 -415.911803 
L 154.312732 -419.701024 
L 159.436699 -422.599999 
L 164.560666 -424.558874 
L 169.684633 -425.550729 
L 174.8086 -425.574181 
L 179.932567 -424.654774 
L 185.056534 -422.844945 
L 190.180501 -420.222439 
L 195.304468 -416.88719 
L 200.428435 -412.956766 
L 205.552402 -408.560657 
L 210.676369 -403.833733 
L 215.800336 -398.909334 
L 220.924303 -393.91246 
L 226.04827 -388.953534 
L 231.172237 -384.123212 
L 236.296204 -379.488572 
L 241.42017 -375.090962 
L 246.544137 -370.945616 
L 251.668104 -367.043031 
L 256.792071 -363.351933 
L 261.916038 -359.823584 
L 267.040005 -356.397022 
L 272.163972 -353.004853 
L 277.287939 -349.579098 
L 282.411906 -346.056711 
L 287.535873 -342.38435 
L 292.65984 -338.522146 
L 297.783807 -334.446234 
L 302.907774 -330.149995 
L 308.031741 -325.644 
L 313.155708 -320.954793 
L 318.279675 -316.12269 
L 323.403642 -311.198856 
L 328.527608 -306.241933 
L 333.651575 -301.3145 
L 338.775542 -296.479643 
L 343.899509 -291.797853 
L 349.023476 -287.324441 
L 354.147443 -283.107608 
L 359.27141 -279.187212 
L 364.395377 -275.594276 
L 369.519344 -272.351185 
L 374.643311 -269.4725 
L 379.767278 -266.966286 
L 384.891245 -264.835818 
L 390.015212 -263.081538 
L 395.139179 -261.703098 
L 400.263146 -260.701353 
L 405.387113 -260.08015 
L 410.51108 -259.847783 
L 415.635046 -260.017965 
L 420.759013 -260.610229 
L 425.88298 -261.649638 
L 431.006947 -263.165741 
L 436.130914 -265.190757 
L 441.254881 -267.756979 
L 446.378848 -270.893486 
L 451.502815 -274.622295 
L 456.626782 -278.95415 
L 461.750749 -283.884228 
L 466.874716 -289.38808 
L 471.998683 -295.41818 
L 477.12265 -301.901441 
L 482.246617 -308.738073 
L 487.370584 -315.802045 
L 492.494551 -322.943374 
L 497.618518 -329.992279 
L 502.742485 -336.765119 
L 507.866451 -343.071864 
L 512.990418 -348.724674 
L 518.114385 -353.547062 
L 523.238352 -357.382989 
L 528.362319 -360.105243 
L 533.486286 -361.62246 
L 538.610253 -361.884226 
L 543.73422 -360.883867 
L 548.858187 -358.6587 
L 553.982154 -355.287735 
L 559.106121 -350.887018 
L 564.230088 -345.602998 
L 569.354055 -339.604447 
L 574.478022 -333.07355 
L 579.601989 -326.196818 
L 579.601989 -180.046717 
L 579.601989 -180.046717 
L 574.478022 -173.169984 
L 569.354055 -166.639087 
L 564.230088 -160.640536 
L 559.106121 -155.356517 
L 553.982154 -150.9558 
L 548.858187 -147.584835 
L 543.73422 -145.359668 
L 538.610253 -144.359308 
L 533.486286 -144.621074 
L 528.362319 -146.138291 
L 523.238352 -148.860546 
L 518.114385 -152.696472 
L 512.990418 -157.51886 
L 507.866451 -163.171671 
L 502.742485 -169.478416 
L 497.618518 -176.251256 
L 492.494551 -183.30016 
L 487.370584 -190.44149 
L 482.246617 -197.505462 
L 477.12265 -204.342093 
L 471.998683 -210.825355 
L 466.874716 -216.855454 
L 461.750749 -222.359306 
L 456.626782 -227.289384 
L 451.502815 -231.621239 
L 446.378848 -235.350048 
L 441.254881 -238.486556 
L 436.130914 -241.052777 
L 431.006947 -243.077793 
L 425.88298 -244.593897 
L 420.759013 -245.633305 
L 415.635046 -246.22557 
L 410.51108 -246.395752 
L 405.387113 -246.163384 
L 400.263146 -245.542182 
L 395.139179 -244.540437 
L 390.015212 -243.161997 
L 384.891245 -241.407717 
L 379.767278 -239.277249 
L 374.643311 -236.771034 
L 369.519344 -233.89235 
L 364.395377 -230.649259 
L 359.27141 -227.056323 
L 354.147443 -223.135926 
L 349.023476 -218.919093 
L 343.899509 -214.445682 
L 338.775542 -209.763891 
L 333.651575 -204.929034 
L 328.527608 -200.001602 
L 323.403642 -195.044678 
L 318.279675 -190.120845 
L 313.155708 -185.288742 
L 308.031741 -180.599534 
L 302.907774 -176.09354 
L 297.783807 -171.7973 
L 292.65984 -167.721388 
L 287.535873 -163.859184 
L 282.411906 -160.186824 
L 277.287939 -156.664436 
L 272.163972 -153.238682 
L 267.040005 -149.846512 
L 261.916038 -146.419951 
L 256.792071 -142.891601 
L 251.668104 -139.200504 
L 246.544137 -135.297918 
L 241.42017 -131.152573 
L 236.296204 -126.754963 
L 231.172237 -122.120323 
L 226.04827 -117.290001 
L 220.924303 -112.331075 
L 215.800336 -107.3342 
L 210.676369 -102.409802 
L 205.552402 -97.682878 
L 200.428435 -93.286768 
L 195.304468 -89.356345 
L 190.180501 -86.021096 
L 185.056534 -83.39859 
L 179.932567 -81.58876 
L 174.8086 -80.669353 
L 169.684633 -80.692806 
L 164.560666 -81.684661 
L 159.436699 -83.643535 
L 154.312732 -86.54251 
L 149.188765 -90.331731 
L 144.064799 -94.94193 
L 138.940832 -100.288533 
L 133.816865 -106.276031 
L 128.692898 -112.802289 
L 123.568931 -119.762531 
L 118.444964 -127.052818 
L 113.320997 -134.572864 
L 108.19703 -142.228174 
L 103.073063 -149.931492 
L 97.949096 -157.603643 
L 92.825129 -165.173879 
L 87.701162 -172.579841 
L 82.577195 -179.76728 
L 77.453228 -186.689648 
L 72.329261 -193.307644 
z
" id="m474a9cc2b1" style="stroke:#3f3f3f;stroke-width:1.5;"/>
    </defs>
    <g clip-path="url(#pdd1374dac2)">
     <use style="fill:#3274a1;stroke:#3f3f3f;stroke-width:1.5;" x="0" xlink:href="#m474a9cc2b1" y="603.474375"/>
    </g>
   </g>
   <g id="matplotlib.axis_3">
    <g id="xtick_7">
     <g id="line2d_10">
      <g>
       <use style="stroke:#000000;stroke-width:0.8;" x="84.914272" xlink:href="#m21c667bf8e" y="565.918125"/>
      </g>
     </g>
     <g id="text_13">
      <!-- 200 -->
      <g transform="translate(75.370522 580.516563)scale(0.1 -0.1)">
       <use xlink:href="#DejaVuSans-50"/>
       <use x="63.623047" xlink:href="#DejaVuSans-48"/>
       <use x="127.246094" xlink:href="#DejaVuSans-48"/>
      </g>
     </g>
    </g>
    <g id="xtick_8">
     <g id="line2d_11">
      <g>
       <use style="stroke:#000000;stroke-width:0.8;" x="181.722044" xlink:href="#m21c667bf8e" y="565.918125"/>
      </g>
     </g>
     <g id="text_14">
      <!-- 300 -->
      <g transform="translate(172.178294 580.516563)scale(0.1 -0.1)">
       <use xlink:href="#DejaVuSans-51"/>
       <use x="63.623047" xlink:href="#DejaVuSans-48"/>
       <use x="127.246094" xlink:href="#DejaVuSans-48"/>
      </g>
     </g>
    </g>
    <g id="xtick_9">
     <g id="line2d_12">
      <g>
       <use style="stroke:#000000;stroke-width:0.8;" x="278.529817" xlink:href="#m21c667bf8e" y="565.918125"/>
      </g>
     </g>
     <g id="text_15">
      <!-- 400 -->
      <g transform="translate(268.986067 580.516563)scale(0.1 -0.1)">
       <use xlink:href="#DejaVuSans-52"/>
       <use x="63.623047" xlink:href="#DejaVuSans-48"/>
       <use x="127.246094" xlink:href="#DejaVuSans-48"/>
      </g>
     </g>
    </g>
    <g id="xtick_10">
     <g id="line2d_13">
      <g>
       <use style="stroke:#000000;stroke-width:0.8;" x="375.337589" xlink:href="#m21c667bf8e" y="565.918125"/>
      </g>
     </g>
     <g id="text_16">
      <!-- 500 -->
      <g transform="translate(365.793839 580.516563)scale(0.1 -0.1)">
       <use xlink:href="#DejaVuSans-53"/>
       <use x="63.623047" xlink:href="#DejaVuSans-48"/>
       <use x="127.246094" xlink:href="#DejaVuSans-48"/>
      </g>
     </g>
    </g>
    <g id="xtick_11">
     <g id="line2d_14">
      <g>
       <use style="stroke:#000000;stroke-width:0.8;" x="472.145361" xlink:href="#m21c667bf8e" y="565.918125"/>
      </g>
     </g>
     <g id="text_17">
      <!-- 600 -->
      <g transform="translate(462.601611 580.516563)scale(0.1 -0.1)">
       <use xlink:href="#DejaVuSans-54"/>
       <use x="63.623047" xlink:href="#DejaVuSans-48"/>
       <use x="127.246094" xlink:href="#DejaVuSans-48"/>
      </g>
     </g>
    </g>
    <g id="xtick_12">
     <g id="line2d_15">
      <g>
       <use style="stroke:#000000;stroke-width:0.8;" x="568.953134" xlink:href="#m21c667bf8e" y="565.918125"/>
      </g>
     </g>
     <g id="text_18">
      <!-- 700 -->
      <g transform="translate(559.409384 580.516563)scale(0.1 -0.1)">
       <use xlink:href="#DejaVuSans-55"/>
       <use x="63.623047" xlink:href="#DejaVuSans-48"/>
       <use x="127.246094" xlink:href="#DejaVuSans-48"/>
      </g>
     </g>
    </g>
    <g id="text_19">
     <!-- TAX -->
     <g transform="translate(316.453906 594.194688)scale(0.1 -0.1)">
      <use xlink:href="#DejaVuSans-84"/>
      <use x="53.333984" xlink:href="#DejaVuSans-65"/>
      <use x="121.742188" xlink:href="#DejaVuSans-88"/>
     </g>
    </g>
   </g>
   <g id="matplotlib.axis_4">
    <g id="ytick_4">
     <g id="line2d_16">
      <g>
       <use style="stroke:#000000;stroke-width:0.8;" x="46.965625" xlink:href="#mc82606b304" y="350.352608"/>
      </g>
     </g>
    </g>
   </g>
   <g id="line2d_17">
    <path clip-path="url(#pdd1374dac2)" d="M 72.329261 350.352608 
L 579.601989 350.352608 
" style="fill:none;stroke:#3f3f3f;stroke-linecap:square;stroke-width:1.5;"/>
   </g>
   <g id="line2d_18">
    <path clip-path="url(#pdd1374dac2)" d="M 161.392412 350.352608 
L 536.038491 350.352608 
" style="fill:none;stroke:#3f3f3f;stroke-linecap:square;stroke-width:4.5;"/>
   </g>
   <g id="patch_16">
    <path d="M 46.965625 565.918125 
L 46.965625 134.787091 
" style="fill:none;stroke:#000000;stroke-linecap:square;stroke-linejoin:miter;stroke-width:0.8;"/>
   </g>
   <g id="patch_17">
    <path d="M 604.965625 565.918125 
L 604.965625 134.787091 
" style="fill:none;stroke:#000000;stroke-linecap:square;stroke-linejoin:miter;stroke-width:0.8;"/>
   </g>
   <g id="patch_18">
    <path d="M 46.965625 565.918125 
L 604.965625 565.918125 
" style="fill:none;stroke:#000000;stroke-linecap:square;stroke-linejoin:miter;stroke-width:0.8;"/>
   </g>
   <g id="patch_19">
    <path d="M 46.965625 134.787091 
L 604.965625 134.787091 
" style="fill:none;stroke:#000000;stroke-linecap:square;stroke-linejoin:miter;stroke-width:0.8;"/>
   </g>
   <g id="PathCollection_1">
    <defs>
     <path d="M 0 1.5 
C 0.397805 1.5 0.77937 1.341951 1.06066 1.06066 
C 1.341951 0.77937 1.5 0.397805 1.5 0 
C 1.5 -0.397805 1.341951 -0.77937 1.06066 -1.06066 
C 0.77937 -1.341951 0.397805 -1.5 0 -1.5 
C -0.397805 -1.5 -0.77937 -1.341951 -1.06066 -1.06066 
C -1.341951 -0.77937 -1.5 -0.397805 -1.5 0 
C -1.5 0.397805 -1.341951 0.77937 -1.06066 1.06066 
C -0.77937 1.341951 -0.397805 1.5 0 1.5 
z
" id="me564287349" style="stroke:#3f3f3f;"/>
    </defs>
    <g clip-path="url(#pdd1374dac2)">
     <use style="fill:#ffffff;stroke:#3f3f3f;" x="210.764376" xlink:href="#me564287349" y="350.352608"/>
    </g>
   </g>
  </g>
 </g>
 <defs>
  <clipPath id="pcc05352fe0">
   <rect height="93.724138" width="558" x="46.965625" y="22.318125"/>
  </clipPath>
  <clipPath id="pdd1374dac2">
   <rect height="431.131034" width="558" x="46.965625" y="134.787091"/>
  </clipPath>
 </defs>
</svg>
