<?xml version="1.0" encoding="utf-8" standalone="no"?>
<!DOCTYPE svg PUBLIC "-//W3C//DTD SVG 1.1//EN"
  "http://www.w3.org/Graphics/SVG/1.1/DTD/svg11.dtd">
<!-- Created with matplotlib (https://matplotlib.org/) -->
<svg height="603.474375pt" version="1.1" viewBox="0 0 612.165625 603.474375" width="612.165625pt" xmlns="http://www.w3.org/2000/svg" xmlns:xlink="http://www.w3.org/1999/xlink">
 <metadata>
  <rdf:RDF xmlns:cc="http://creativecommons.org/ns#" xmlns:dc="http://purl.org/dc/elements/1.1/" xmlns:rdf="http://www.w3.org/1999/02/22-rdf-syntax-ns#">
   <cc:Work>
    <dc:type rdf:resource="http://purl.org/dc/dcmitype/StillImage"/>
    <dc:date>2020-10-06T19:10:12.459084</dc:date>
    <dc:format>image/svg+xml</dc:format>
    <dc:creator>
     <cc:Agent>
      <dc:title>Matplotlib v3.3.1, https://matplotlib.org/</dc:title>
     </cc:Agent>
    </dc:creator>
   </cc:Work>
  </rdf:RDF>
 </metadata>
 <defs>
  <style type="text/css">*{stroke-linecap:butt;stroke-linejoin:round;}</style>
 </defs>
 <g id="figure_1">
  <g id="patch_1">
   <path d="M 0 603.474375 
L 612.165625 603.474375 
L 612.165625 0 
L 0 0 
z
" style="fill:none;"/>
  </g>
  <g id="axes_1">
   <g id="patch_2">
    <path d="M 46.965625 116.042263 
L 604.965625 116.042263 
L 604.965625 22.318125 
L 46.965625 22.318125 
z
" style="fill:#ffffff;"/>
   </g>
   <g id="patch_3">
    <path clip-path="url(#p94e44bff48)" d="M 72.329261 116.042263 
L 108.563028 116.042263 
L 108.563028 106.808358 
L 72.329261 106.808358 
z
" style="fill:#1f77b4;fill-opacity:0.75;stroke:#000000;stroke-linejoin:miter;"/>
   </g>
   <g id="patch_4">
    <path clip-path="url(#p94e44bff48)" d="M 108.563028 116.042263 
L 144.796794 116.042263 
L 144.796794 115.426669 
L 108.563028 115.426669 
z
" style="fill:#1f77b4;fill-opacity:0.75;stroke:#000000;stroke-linejoin:miter;"/>
   </g>
   <g id="patch_5">
    <path clip-path="url(#p94e44bff48)" d="M 144.796794 116.042263 
L 181.03056 116.042263 
L 181.03056 115.426669 
L 144.796794 115.426669 
z
" style="fill:#1f77b4;fill-opacity:0.75;stroke:#000000;stroke-linejoin:miter;"/>
   </g>
   <g id="patch_6">
    <path clip-path="url(#p94e44bff48)" d="M 181.03056 116.042263 
L 217.264326 116.042263 
L 217.264326 82.18461 
L 181.03056 82.18461 
z
" style="fill:#1f77b4;fill-opacity:0.75;stroke:#000000;stroke-linejoin:miter;"/>
   </g>
   <g id="patch_7">
    <path clip-path="url(#p94e44bff48)" d="M 217.264326 116.042263 
L 253.498093 116.042263 
L 253.498093 111.117513 
L 217.264326 111.117513 
z
" style="fill:#1f77b4;fill-opacity:0.75;stroke:#000000;stroke-linejoin:miter;"/>
   </g>
   <g id="patch_8">
    <path clip-path="url(#p94e44bff48)" d="M 253.498093 116.042263 
L 289.731859 116.042263 
L 289.731859 96.343265 
L 253.498093 96.343265 
z
" style="fill:#1f77b4;fill-opacity:0.75;stroke:#000000;stroke-linejoin:miter;"/>
   </g>
   <g id="patch_9">
    <path clip-path="url(#p94e44bff48)" d="M 289.731859 116.042263 
L 325.965625 116.042263 
L 325.965625 108.039545 
L 289.731859 108.039545 
z
" style="fill:#1f77b4;fill-opacity:0.75;stroke:#000000;stroke-linejoin:miter;"/>
   </g>
   <g id="patch_10">
    <path clip-path="url(#p94e44bff48)" d="M 325.965625 116.042263 
L 362.199391 116.042263 
L 362.199391 79.106642 
L 325.965625 79.106642 
z
" style="fill:#1f77b4;fill-opacity:0.75;stroke:#000000;stroke-linejoin:miter;"/>
   </g>
   <g id="patch_11">
    <path clip-path="url(#p94e44bff48)" d="M 362.199391 116.042263 
L 398.433157 116.042263 
L 398.433157 85.262579 
L 362.199391 85.262579 
z
" style="fill:#1f77b4;fill-opacity:0.75;stroke:#000000;stroke-linejoin:miter;"/>
   </g>
   <g id="patch_12">
    <path clip-path="url(#p94e44bff48)" d="M 398.433157 116.042263 
L 434.666924 116.042263 
L 434.666924 82.800204 
L 398.433157 82.800204 
z
" style="fill:#1f77b4;fill-opacity:0.75;stroke:#000000;stroke-linejoin:miter;"/>
   </g>
   <g id="patch_13">
    <path clip-path="url(#p94e44bff48)" d="M 434.666924 116.042263 
L 470.90069 116.042263 
L 470.90069 106.192764 
L 434.666924 106.192764 
z
" style="fill:#1f77b4;fill-opacity:0.75;stroke:#000000;stroke-linejoin:miter;"/>
   </g>
   <g id="patch_14">
    <path clip-path="url(#p94e44bff48)" d="M 470.90069 116.042263 
L 507.134456 116.042263 
L 507.134456 26.781179 
L 470.90069 26.781179 
z
" style="fill:#1f77b4;fill-opacity:0.75;stroke:#000000;stroke-linejoin:miter;"/>
   </g>
   <g id="patch_15">
    <path clip-path="url(#p94e44bff48)" d="M 507.134456 116.042263 
L 543.368222 116.042263 
L 543.368222 82.800204 
L 507.134456 82.800204 
z
" style="fill:#1f77b4;fill-opacity:0.75;stroke:#000000;stroke-linejoin:miter;"/>
   </g>
   <g id="patch_16">
    <path clip-path="url(#p94e44bff48)" d="M 543.368222 116.042263 
L 579.601989 116.042263 
L 579.601989 114.811076 
L 543.368222 114.811076 
z
" style="fill:#1f77b4;fill-opacity:0.75;stroke:#000000;stroke-linejoin:miter;"/>
   </g>
   <g id="matplotlib.axis_1">
    <g id="xtick_1">
     <g id="line2d_1">
      <defs>
       <path d="M 0 0 
L 0 3.5 
" id="m10b4346946" style="stroke:#000000;stroke-width:0.8;"/>
      </defs>
      <g>
       <use style="stroke:#000000;stroke-width:0.8;" x="147.880519" xlink:href="#m10b4346946" y="116.042263"/>
      </g>
     </g>
     <g id="text_1">
      <!-- 14 -->
      <g transform="translate(141.518019 130.6407)scale(0.1 -0.1)">
       <defs>
        <path d="M 12.40625 8.296875 
L 28.515625 8.296875 
L 28.515625 63.921875 
L 10.984375 60.40625 
L 10.984375 69.390625 
L 28.421875 72.90625 
L 38.28125 72.90625 
L 38.28125 8.296875 
L 54.390625 8.296875 
L 54.390625 0 
L 12.40625 0 
z
" id="DejaVuSans-49"/>
        <path d="M 37.796875 64.3125 
L 12.890625 25.390625 
L 37.796875 25.390625 
z
M 35.203125 72.90625 
L 47.609375 72.90625 
L 47.609375 25.390625 
L 58.015625 25.390625 
L 58.015625 17.1875 
L 47.609375 17.1875 
L 47.609375 0 
L 37.796875 0 
L 37.796875 17.1875 
L 4.890625 17.1875 
L 4.890625 26.703125 
z
" id="DejaVuSans-52"/>
       </defs>
       <use xlink:href="#DejaVuSans-49"/>
       <use x="63.623047" xlink:href="#DejaVuSans-52"/>
      </g>
     </g>
    </g>
    <g id="xtick_2">
     <g id="line2d_2">
      <g>
       <use style="stroke:#000000;stroke-width:0.8;" x="255.810886" xlink:href="#m10b4346946" y="116.042263"/>
      </g>
     </g>
     <g id="text_2">
      <!-- 16 -->
      <g transform="translate(249.448386 130.6407)scale(0.1 -0.1)">
       <defs>
        <path d="M 33.015625 40.375 
Q 26.375 40.375 22.484375 35.828125 
Q 18.609375 31.296875 18.609375 23.390625 
Q 18.609375 15.53125 22.484375 10.953125 
Q 26.375 6.390625 33.015625 6.390625 
Q 39.65625 6.390625 43.53125 10.953125 
Q 47.40625 15.53125 47.40625 23.390625 
Q 47.40625 31.296875 43.53125 35.828125 
Q 39.65625 40.375 33.015625 40.375 
z
M 52.59375 71.296875 
L 52.59375 62.3125 
Q 48.875 64.0625 45.09375 64.984375 
Q 41.3125 65.921875 37.59375 65.921875 
Q 27.828125 65.921875 22.671875 59.328125 
Q 17.53125 52.734375 16.796875 39.40625 
Q 19.671875 43.65625 24.015625 45.921875 
Q 28.375 48.1875 33.59375 48.1875 
Q 44.578125 48.1875 50.953125 41.515625 
Q 57.328125 34.859375 57.328125 23.390625 
Q 57.328125 12.15625 50.6875 5.359375 
Q 44.046875 -1.421875 33.015625 -1.421875 
Q 20.359375 -1.421875 13.671875 8.265625 
Q 6.984375 17.96875 6.984375 36.375 
Q 6.984375 53.65625 15.1875 63.9375 
Q 23.390625 74.21875 37.203125 74.21875 
Q 40.921875 74.21875 44.703125 73.484375 
Q 48.484375 72.75 52.59375 71.296875 
z
" id="DejaVuSans-54"/>
       </defs>
       <use xlink:href="#DejaVuSans-49"/>
       <use x="63.623047" xlink:href="#DejaVuSans-54"/>
      </g>
     </g>
    </g>
    <g id="xtick_3">
     <g id="line2d_3">
      <g>
       <use style="stroke:#000000;stroke-width:0.8;" x="363.741254" xlink:href="#m10b4346946" y="116.042263"/>
      </g>
     </g>
     <g id="text_3">
      <!-- 18 -->
      <g transform="translate(357.378754 130.6407)scale(0.1 -0.1)">
       <defs>
        <path d="M 31.78125 34.625 
Q 24.75 34.625 20.71875 30.859375 
Q 16.703125 27.09375 16.703125 20.515625 
Q 16.703125 13.921875 20.71875 10.15625 
Q 24.75 6.390625 31.78125 6.390625 
Q 38.8125 6.390625 42.859375 10.171875 
Q 46.921875 13.96875 46.921875 20.515625 
Q 46.921875 27.09375 42.890625 30.859375 
Q 38.875 34.625 31.78125 34.625 
z
M 21.921875 38.8125 
Q 15.578125 40.375 12.03125 44.71875 
Q 8.5 49.078125 8.5 55.328125 
Q 8.5 64.0625 14.71875 69.140625 
Q 20.953125 74.21875 31.78125 74.21875 
Q 42.671875 74.21875 48.875 69.140625 
Q 55.078125 64.0625 55.078125 55.328125 
Q 55.078125 49.078125 51.53125 44.71875 
Q 48 40.375 41.703125 38.8125 
Q 48.828125 37.15625 52.796875 32.3125 
Q 56.78125 27.484375 56.78125 20.515625 
Q 56.78125 9.90625 50.3125 4.234375 
Q 43.84375 -1.421875 31.78125 -1.421875 
Q 19.734375 -1.421875 13.25 4.234375 
Q 6.78125 9.90625 6.78125 20.515625 
Q 6.78125 27.484375 10.78125 32.3125 
Q 14.796875 37.15625 21.921875 38.8125 
z
M 18.3125 54.390625 
Q 18.3125 48.734375 21.84375 45.5625 
Q 25.390625 42.390625 31.78125 42.390625 
Q 38.140625 42.390625 41.71875 45.5625 
Q 45.3125 48.734375 45.3125 54.390625 
Q 45.3125 60.0625 41.71875 63.234375 
Q 38.140625 66.40625 31.78125 66.40625 
Q 25.390625 66.40625 21.84375 63.234375 
Q 18.3125 60.0625 18.3125 54.390625 
z
" id="DejaVuSans-56"/>
       </defs>
       <use xlink:href="#DejaVuSans-49"/>
       <use x="63.623047" xlink:href="#DejaVuSans-56"/>
      </g>
     </g>
    </g>
    <g id="xtick_4">
     <g id="line2d_4">
      <g>
       <use style="stroke:#000000;stroke-width:0.8;" x="471.671621" xlink:href="#m10b4346946" y="116.042263"/>
      </g>
     </g>
     <g id="text_4">
      <!-- 20 -->
      <g transform="translate(465.309121 130.6407)scale(0.1 -0.1)">
       <defs>
        <path d="M 19.1875 8.296875 
L 53.609375 8.296875 
L 53.609375 0 
L 7.328125 0 
L 7.328125 8.296875 
Q 12.9375 14.109375 22.625 23.890625 
Q 32.328125 33.6875 34.8125 36.53125 
Q 39.546875 41.84375 41.421875 45.53125 
Q 43.3125 49.21875 43.3125 52.78125 
Q 43.3125 58.59375 39.234375 62.25 
Q 35.15625 65.921875 28.609375 65.921875 
Q 23.96875 65.921875 18.8125 64.3125 
Q 13.671875 62.703125 7.8125 59.421875 
L 7.8125 69.390625 
Q 13.765625 71.78125 18.9375 73 
Q 24.125 74.21875 28.421875 74.21875 
Q 39.75 74.21875 46.484375 68.546875 
Q 53.21875 62.890625 53.21875 53.421875 
Q 53.21875 48.921875 51.53125 44.890625 
Q 49.859375 40.875 45.40625 35.40625 
Q 44.1875 33.984375 37.640625 27.21875 
Q 31.109375 20.453125 19.1875 8.296875 
z
" id="DejaVuSans-50"/>
        <path d="M 31.78125 66.40625 
Q 24.171875 66.40625 20.328125 58.90625 
Q 16.5 51.421875 16.5 36.375 
Q 16.5 21.390625 20.328125 13.890625 
Q 24.171875 6.390625 31.78125 6.390625 
Q 39.453125 6.390625 43.28125 13.890625 
Q 47.125 21.390625 47.125 36.375 
Q 47.125 51.421875 43.28125 58.90625 
Q 39.453125 66.40625 31.78125 66.40625 
z
M 31.78125 74.21875 
Q 44.046875 74.21875 50.515625 64.515625 
Q 56.984375 54.828125 56.984375 36.375 
Q 56.984375 17.96875 50.515625 8.265625 
Q 44.046875 -1.421875 31.78125 -1.421875 
Q 19.53125 -1.421875 13.0625 8.265625 
Q 6.59375 17.96875 6.59375 36.375 
Q 6.59375 54.828125 13.0625 64.515625 
Q 19.53125 74.21875 31.78125 74.21875 
z
" id="DejaVuSans-48"/>
       </defs>
       <use xlink:href="#DejaVuSans-50"/>
       <use x="63.623047" xlink:href="#DejaVuSans-48"/>
      </g>
     </g>
    </g>
    <g id="xtick_5">
     <g id="line2d_5">
      <g>
       <use style="stroke:#000000;stroke-width:0.8;" x="579.601989" xlink:href="#m10b4346946" y="116.042263"/>
      </g>
     </g>
     <g id="text_5">
      <!-- 22 -->
      <g transform="translate(573.239489 130.6407)scale(0.1 -0.1)">
       <use xlink:href="#DejaVuSans-50"/>
       <use x="63.623047" xlink:href="#DejaVuSans-50"/>
      </g>
     </g>
    </g>
    <g id="text_6">
     <!-- PTRATIO -->
     <g transform="translate(305.125 144.318825)scale(0.1 -0.1)">
      <defs>
       <path d="M 19.671875 64.796875 
L 19.671875 37.40625 
L 32.078125 37.40625 
Q 38.96875 37.40625 42.71875 40.96875 
Q 46.484375 44.53125 46.484375 51.125 
Q 46.484375 57.671875 42.71875 61.234375 
Q 38.96875 64.796875 32.078125 64.796875 
z
M 9.8125 72.90625 
L 32.078125 72.90625 
Q 44.34375 72.90625 50.609375 67.359375 
Q 56.890625 61.8125 56.890625 51.125 
Q 56.890625 40.328125 50.609375 34.8125 
Q 44.34375 29.296875 32.078125 29.296875 
L 19.671875 29.296875 
L 19.671875 0 
L 9.8125 0 
z
" id="DejaVuSans-80"/>
       <path d="M -0.296875 72.90625 
L 61.375 72.90625 
L 61.375 64.59375 
L 35.5 64.59375 
L 35.5 0 
L 25.59375 0 
L 25.59375 64.59375 
L -0.296875 64.59375 
z
" id="DejaVuSans-84"/>
       <path d="M 44.390625 34.1875 
Q 47.5625 33.109375 50.5625 29.59375 
Q 53.5625 26.078125 56.59375 19.921875 
L 66.609375 0 
L 56 0 
L 46.6875 18.703125 
Q 43.0625 26.03125 39.671875 28.421875 
Q 36.28125 30.8125 30.421875 30.8125 
L 19.671875 30.8125 
L 19.671875 0 
L 9.8125 0 
L 9.8125 72.90625 
L 32.078125 72.90625 
Q 44.578125 72.90625 50.734375 67.671875 
Q 56.890625 62.453125 56.890625 51.90625 
Q 56.890625 45.015625 53.6875 40.46875 
Q 50.484375 35.9375 44.390625 34.1875 
z
M 19.671875 64.796875 
L 19.671875 38.921875 
L 32.078125 38.921875 
Q 39.203125 38.921875 42.84375 42.21875 
Q 46.484375 45.515625 46.484375 51.90625 
Q 46.484375 58.296875 42.84375 61.546875 
Q 39.203125 64.796875 32.078125 64.796875 
z
" id="DejaVuSans-82"/>
       <path d="M 34.1875 63.1875 
L 20.796875 26.90625 
L 47.609375 26.90625 
z
M 28.609375 72.90625 
L 39.796875 72.90625 
L 67.578125 0 
L 57.328125 0 
L 50.6875 18.703125 
L 17.828125 18.703125 
L 11.1875 0 
L 0.78125 0 
z
" id="DejaVuSans-65"/>
       <path d="M 9.8125 72.90625 
L 19.671875 72.90625 
L 19.671875 0 
L 9.8125 0 
z
" id="DejaVuSans-73"/>
       <path d="M 39.40625 66.21875 
Q 28.65625 66.21875 22.328125 58.203125 
Q 16.015625 50.203125 16.015625 36.375 
Q 16.015625 22.609375 22.328125 14.59375 
Q 28.65625 6.59375 39.40625 6.59375 
Q 50.140625 6.59375 56.421875 14.59375 
Q 62.703125 22.609375 62.703125 36.375 
Q 62.703125 50.203125 56.421875 58.203125 
Q 50.140625 66.21875 39.40625 66.21875 
z
M 39.40625 74.21875 
Q 54.734375 74.21875 63.90625 63.9375 
Q 73.09375 53.65625 73.09375 36.375 
Q 73.09375 19.140625 63.90625 8.859375 
Q 54.734375 -1.421875 39.40625 -1.421875 
Q 24.03125 -1.421875 14.8125 8.828125 
Q 5.609375 19.09375 5.609375 36.375 
Q 5.609375 53.65625 14.8125 63.9375 
Q 24.03125 74.21875 39.40625 74.21875 
z
" id="DejaVuSans-79"/>
      </defs>
      <use xlink:href="#DejaVuSans-80"/>
      <use x="60.302734" xlink:href="#DejaVuSans-84"/>
      <use x="121.386719" xlink:href="#DejaVuSans-82"/>
      <use x="186.869141" xlink:href="#DejaVuSans-65"/>
      <use x="247.527344" xlink:href="#DejaVuSans-84"/>
      <use x="308.611328" xlink:href="#DejaVuSans-73"/>
      <use x="338.103516" xlink:href="#DejaVuSans-79"/>
     </g>
    </g>
   </g>
   <g id="matplotlib.axis_2">
    <g id="ytick_1">
     <g id="line2d_6">
      <defs>
       <path d="M 0 0 
L -3.5 0 
" id="ma681526b9f" style="stroke:#000000;stroke-width:0.8;"/>
      </defs>
      <g>
       <use style="stroke:#000000;stroke-width:0.8;" x="46.965625" xlink:href="#ma681526b9f" y="116.042263"/>
      </g>
     </g>
     <g id="text_7">
      <!-- 0 -->
      <g transform="translate(33.603125 119.841482)scale(0.1 -0.1)">
       <use xlink:href="#DejaVuSans-48"/>
      </g>
     </g>
    </g>
    <g id="ytick_2">
     <g id="line2d_7">
      <g>
       <use style="stroke:#000000;stroke-width:0.8;" x="46.965625" xlink:href="#ma681526b9f" y="85.262579"/>
      </g>
     </g>
     <g id="text_8">
      <!-- 50 -->
      <g transform="translate(27.240625 89.061798)scale(0.1 -0.1)">
       <defs>
        <path d="M 10.796875 72.90625 
L 49.515625 72.90625 
L 49.515625 64.59375 
L 19.828125 64.59375 
L 19.828125 46.734375 
Q 21.96875 47.46875 24.109375 47.828125 
Q 26.265625 48.1875 28.421875 48.1875 
Q 40.625 48.1875 47.75 41.5 
Q 54.890625 34.8125 54.890625 23.390625 
Q 54.890625 11.625 47.5625 5.09375 
Q 40.234375 -1.421875 26.90625 -1.421875 
Q 22.3125 -1.421875 17.546875 -0.640625 
Q 12.796875 0.140625 7.71875 1.703125 
L 7.71875 11.625 
Q 12.109375 9.234375 16.796875 8.0625 
Q 21.484375 6.890625 26.703125 6.890625 
Q 35.15625 6.890625 40.078125 11.328125 
Q 45.015625 15.765625 45.015625 23.390625 
Q 45.015625 31 40.078125 35.4375 
Q 35.15625 39.890625 26.703125 39.890625 
Q 22.75 39.890625 18.8125 39.015625 
Q 14.890625 38.140625 10.796875 36.28125 
z
" id="DejaVuSans-53"/>
       </defs>
       <use xlink:href="#DejaVuSans-53"/>
       <use x="63.623047" xlink:href="#DejaVuSans-48"/>
      </g>
     </g>
    </g>
    <g id="ytick_3">
     <g id="line2d_8">
      <g>
       <use style="stroke:#000000;stroke-width:0.8;" x="46.965625" xlink:href="#ma681526b9f" y="54.482895"/>
      </g>
     </g>
     <g id="text_9">
      <!-- 100 -->
      <g transform="translate(20.878125 58.282114)scale(0.1 -0.1)">
       <use xlink:href="#DejaVuSans-49"/>
       <use x="63.623047" xlink:href="#DejaVuSans-48"/>
       <use x="127.246094" xlink:href="#DejaVuSans-48"/>
      </g>
     </g>
    </g>
    <g id="ytick_4">
     <g id="line2d_9">
      <g>
       <use style="stroke:#000000;stroke-width:0.8;" x="46.965625" xlink:href="#ma681526b9f" y="23.703211"/>
      </g>
     </g>
     <g id="text_10">
      <!-- 150 -->
      <g transform="translate(20.878125 27.50243)scale(0.1 -0.1)">
       <use xlink:href="#DejaVuSans-49"/>
       <use x="63.623047" xlink:href="#DejaVuSans-53"/>
       <use x="127.246094" xlink:href="#DejaVuSans-48"/>
      </g>
     </g>
    </g>
    <g id="text_11">
     <!-- Count -->
     <g transform="translate(14.798437 84.028631)rotate(-90)scale(0.1 -0.1)">
      <defs>
       <path d="M 64.40625 67.28125 
L 64.40625 56.890625 
Q 59.421875 61.53125 53.78125 63.8125 
Q 48.140625 66.109375 41.796875 66.109375 
Q 29.296875 66.109375 22.65625 58.46875 
Q 16.015625 50.828125 16.015625 36.375 
Q 16.015625 21.96875 22.65625 14.328125 
Q 29.296875 6.6875 41.796875 6.6875 
Q 48.140625 6.6875 53.78125 8.984375 
Q 59.421875 11.28125 64.40625 15.921875 
L 64.40625 5.609375 
Q 59.234375 2.09375 53.4375 0.328125 
Q 47.65625 -1.421875 41.21875 -1.421875 
Q 24.65625 -1.421875 15.125 8.703125 
Q 5.609375 18.84375 5.609375 36.375 
Q 5.609375 53.953125 15.125 64.078125 
Q 24.65625 74.21875 41.21875 74.21875 
Q 47.75 74.21875 53.53125 72.484375 
Q 59.328125 70.75 64.40625 67.28125 
z
" id="DejaVuSans-67"/>
       <path d="M 30.609375 48.390625 
Q 23.390625 48.390625 19.1875 42.75 
Q 14.984375 37.109375 14.984375 27.296875 
Q 14.984375 17.484375 19.15625 11.84375 
Q 23.34375 6.203125 30.609375 6.203125 
Q 37.796875 6.203125 41.984375 11.859375 
Q 46.1875 17.53125 46.1875 27.296875 
Q 46.1875 37.015625 41.984375 42.703125 
Q 37.796875 48.390625 30.609375 48.390625 
z
M 30.609375 56 
Q 42.328125 56 49.015625 48.375 
Q 55.71875 40.765625 55.71875 27.296875 
Q 55.71875 13.875 49.015625 6.21875 
Q 42.328125 -1.421875 30.609375 -1.421875 
Q 18.84375 -1.421875 12.171875 6.21875 
Q 5.515625 13.875 5.515625 27.296875 
Q 5.515625 40.765625 12.171875 48.375 
Q 18.84375 56 30.609375 56 
z
" id="DejaVuSans-111"/>
       <path d="M 8.5 21.578125 
L 8.5 54.6875 
L 17.484375 54.6875 
L 17.484375 21.921875 
Q 17.484375 14.15625 20.5 10.265625 
Q 23.53125 6.390625 29.59375 6.390625 
Q 36.859375 6.390625 41.078125 11.03125 
Q 45.3125 15.671875 45.3125 23.6875 
L 45.3125 54.6875 
L 54.296875 54.6875 
L 54.296875 0 
L 45.3125 0 
L 45.3125 8.40625 
Q 42.046875 3.421875 37.71875 1 
Q 33.40625 -1.421875 27.6875 -1.421875 
Q 18.265625 -1.421875 13.375 4.4375 
Q 8.5 10.296875 8.5 21.578125 
z
M 31.109375 56 
z
" id="DejaVuSans-117"/>
       <path d="M 54.890625 33.015625 
L 54.890625 0 
L 45.90625 0 
L 45.90625 32.71875 
Q 45.90625 40.484375 42.875 44.328125 
Q 39.84375 48.1875 33.796875 48.1875 
Q 26.515625 48.1875 22.3125 43.546875 
Q 18.109375 38.921875 18.109375 30.90625 
L 18.109375 0 
L 9.078125 0 
L 9.078125 54.6875 
L 18.109375 54.6875 
L 18.109375 46.1875 
Q 21.34375 51.125 25.703125 53.5625 
Q 30.078125 56 35.796875 56 
Q 45.21875 56 50.046875 50.171875 
Q 54.890625 44.34375 54.890625 33.015625 
z
" id="DejaVuSans-110"/>
       <path d="M 18.3125 70.21875 
L 18.3125 54.6875 
L 36.8125 54.6875 
L 36.8125 47.703125 
L 18.3125 47.703125 
L 18.3125 18.015625 
Q 18.3125 11.328125 20.140625 9.421875 
Q 21.96875 7.515625 27.59375 7.515625 
L 36.8125 7.515625 
L 36.8125 0 
L 27.59375 0 
Q 17.1875 0 13.234375 3.875 
Q 9.28125 7.765625 9.28125 18.015625 
L 9.28125 47.703125 
L 2.6875 47.703125 
L 2.6875 54.6875 
L 9.28125 54.6875 
L 9.28125 70.21875 
z
" id="DejaVuSans-116"/>
      </defs>
      <use xlink:href="#DejaVuSans-67"/>
      <use x="69.824219" xlink:href="#DejaVuSans-111"/>
      <use x="131.005859" xlink:href="#DejaVuSans-117"/>
      <use x="194.384766" xlink:href="#DejaVuSans-110"/>
      <use x="257.763672" xlink:href="#DejaVuSans-116"/>
     </g>
    </g>
   </g>
   <g id="patch_17">
    <path d="M 46.965625 116.042263 
L 46.965625 22.318125 
" style="fill:none;stroke:#000000;stroke-linecap:square;stroke-linejoin:miter;stroke-width:0.8;"/>
   </g>
   <g id="patch_18">
    <path d="M 46.965625 116.042263 
L 604.965625 116.042263 
" style="fill:none;stroke:#000000;stroke-linecap:square;stroke-linejoin:miter;stroke-width:0.8;"/>
   </g>
   <g id="text_12">
    <!-- PTRATIO -->
    <g transform="translate(300.956875 16.318125)scale(0.12 -0.12)">
     <use xlink:href="#DejaVuSans-80"/>
     <use x="60.302734" xlink:href="#DejaVuSans-84"/>
     <use x="121.386719" xlink:href="#DejaVuSans-82"/>
     <use x="186.869141" xlink:href="#DejaVuSans-65"/>
     <use x="247.527344" xlink:href="#DejaVuSans-84"/>
     <use x="308.611328" xlink:href="#DejaVuSans-73"/>
     <use x="338.103516" xlink:href="#DejaVuSans-79"/>
    </g>
   </g>
  </g>
  <g id="axes_2">
   <g id="patch_19">
    <path d="M 46.965625 565.918125 
L 604.965625 565.918125 
L 604.965625 134.787091 
L 46.965625 134.787091 
z
" style="fill:#ffffff;"/>
   </g>
   <g id="PolyCollection_1">
    <defs>
     <path d="M 72.329261 -241.122576 
L 72.329261 -265.120959 
L 77.453228 -266.040544 
L 82.577195 -266.784503 
L 87.701162 -267.337642 
L 92.825129 -267.706864 
L 97.949096 -267.924176 
L 103.073063 -268.04731 
L 108.19703 -268.157569 
L 113.320997 -268.354787 
L 118.444964 -268.74961 
L 123.568931 -269.45359 
L 128.692898 -270.5679 
L 133.816865 -272.171691 
L 138.940832 -274.311304 
L 144.064799 -276.991591 
L 149.188765 -280.170592 
L 154.312732 -283.758524 
L 159.436699 -287.621737 
L 164.560666 -291.591673 
L 169.684633 -295.478285 
L 174.8086 -299.086671 
L 179.932567 -302.235191 
L 185.056534 -304.772941 
L 190.180501 -306.594468 
L 195.304468 -307.649884 
L 200.428435 -307.949125 
L 205.552402 -307.559885 
L 210.676369 -306.599607 
L 215.800336 -305.222692 
L 220.924303 -303.604646 
L 226.04827 -301.925194 
L 231.172237 -300.35237 
L 236.296204 -299.029326 
L 241.42017 -298.065107 
L 246.544137 -297.530056 
L 251.668104 -297.455911 
L 256.792071 -297.840069 
L 261.916038 -298.653066 
L 267.040005 -299.847994 
L 272.163972 -301.370443 
L 277.287939 -303.167583 
L 282.411906 -305.195201 
L 287.535873 -307.421835 
L 292.65984 -309.82964 
L 297.783807 -312.412128 
L 302.907774 -315.169404 
L 308.031741 -318.101984 
L 313.155708 -321.204421 
L 318.279675 -324.460042 
L 323.403642 -327.837786 
L 328.527608 -331.291727 
L 333.651575 -334.763317 
L 338.775542 -338.185845 
L 343.899509 -341.490213 
L 349.023476 -344.610975 
L 354.147443 -347.491659 
L 359.27141 -350.088709 
L 364.395377 -352.373871 
L 369.519344 -354.33528 
L 374.643311 -355.977883 
L 379.767278 -357.323954 
L 384.891245 -358.414308 
L 390.015212 -359.310392 
L 395.139179 -360.096903 
L 400.263146 -360.883895 
L 405.387113 -361.806927 
L 410.51108 -363.023557 
L 415.635046 -364.704728 
L 420.759013 -367.02029 
L 425.88298 -370.118977 
L 431.006947 -374.104528 
L 436.130914 -379.010972 
L 441.254881 -384.781136 
L 446.378848 -391.252766 
L 451.502815 -398.15619 
L 456.626782 -405.125985 
L 461.750749 -411.726933 
L 466.874716 -417.491985 
L 471.998683 -421.967534 
L 477.12265 -424.75962 
L 482.246617 -425.574181 
L 487.370584 -424.24531 
L 492.494551 -420.74754 
L 497.618518 -415.191044 
L 502.742485 -407.801622 
L 507.866451 -398.889816 
L 512.990418 -388.814903 
L 518.114385 -377.949673 
L 523.238352 -366.650811 
L 528.362319 -355.237849 
L 533.486286 -343.981508 
L 538.610253 -333.100361 
L 543.73422 -322.763486 
L 548.858187 -313.096389 
L 553.982154 -304.18772 
L 559.106121 -296.095148 
L 564.230088 -288.849662 
L 569.354055 -282.458439 
L 574.478022 -276.906897 
L 579.601989 -272.16071 
L 579.601989 -234.082825 
L 579.601989 -234.082825 
L 574.478022 -229.336638 
L 569.354055 -223.785095 
L 564.230088 -217.393872 
L 559.106121 -210.148386 
L 553.982154 -202.055814 
L 548.858187 -193.147146 
L 543.73422 -183.480048 
L 538.610253 -173.143174 
L 533.486286 -162.262026 
L 528.362319 -151.005686 
L 523.238352 -139.592724 
L 518.114385 -128.293862 
L 512.990418 -117.428632 
L 507.866451 -107.353719 
L 502.742485 -98.441912 
L 497.618518 -91.052491 
L 492.494551 -85.495995 
L 487.370584 -81.998224 
L 482.246617 -80.669353 
L 477.12265 -81.483915 
L 471.998683 -84.276001 
L 466.874716 -88.75155 
L 461.750749 -94.516602 
L 456.626782 -101.11755 
L 451.502815 -108.087344 
L 446.378848 -114.990769 
L 441.254881 -121.462399 
L 436.130914 -127.232562 
L 431.006947 -132.139007 
L 425.88298 -136.124557 
L 420.759013 -139.223245 
L 415.635046 -141.538807 
L 410.51108 -143.219977 
L 405.387113 -144.436607 
L 400.263146 -145.35964 
L 395.139179 -146.146632 
L 390.015212 -146.933142 
L 384.891245 -147.829227 
L 379.767278 -148.91958 
L 374.643311 -150.265652 
L 369.519344 -151.908255 
L 364.395377 -153.869663 
L 359.27141 -156.154826 
L 354.147443 -158.751876 
L 349.023476 -161.632559 
L 343.899509 -164.753321 
L 338.775542 -168.057689 
L 333.651575 -171.480217 
L 328.527608 -174.951808 
L 323.403642 -178.405749 
L 318.279675 -181.783493 
L 313.155708 -185.039114 
L 308.031741 -188.141551 
L 302.907774 -191.07413 
L 297.783807 -193.831407 
L 292.65984 -196.413894 
L 287.535873 -198.8217 
L 282.411906 -201.048333 
L 277.287939 -203.075951 
L 272.163972 -204.873092 
L 267.040005 -206.39554 
L 261.916038 -207.590468 
L 256.792071 -208.403466 
L 251.668104 -208.787624 
L 246.544137 -208.713479 
L 241.42017 -208.178427 
L 236.296204 -207.214208 
L 231.172237 -205.891165 
L 226.04827 -204.318341 
L 220.924303 -202.638888 
L 215.800336 -201.020842 
L 210.676369 -199.643928 
L 205.552402 -198.68365 
L 200.428435 -198.29441 
L 195.304468 -198.59365 
L 190.180501 -199.649066 
L 185.056534 -201.470593 
L 179.932567 -204.008343 
L 174.8086 -207.156863 
L 169.684633 -210.76525 
L 164.560666 -214.651861 
L 159.436699 -218.621798 
L 154.312732 -222.485011 
L 149.188765 -226.072943 
L 144.064799 -229.251943 
L 138.940832 -231.932231 
L 133.816865 -234.071843 
L 128.692898 -235.675635 
L 123.568931 -236.789945 
L 118.444964 -237.493925 
L 113.320997 -237.888748 
L 108.19703 -238.085966 
L 103.073063 -238.196224 
L 97.949096 -238.319358 
L 92.825129 -238.53667 
L 87.701162 -238.905892 
L 82.577195 -239.459031 
L 77.453228 -240.20299 
L 72.329261 -241.122576 
z
" id="m60ba9922d8" style="stroke:#3f3f3f;stroke-width:1.5;"/>
    </defs>
    <g clip-path="url(#p3f67287e77)">
     <use style="fill:#3274a1;stroke:#3f3f3f;stroke-width:1.5;" x="0" xlink:href="#m60ba9922d8" y="603.474375"/>
    </g>
   </g>
   <g id="matplotlib.axis_3">
    <g id="xtick_6">
     <g id="line2d_10">
      <g>
       <use style="stroke:#000000;stroke-width:0.8;" x="147.880519" xlink:href="#m10b4346946" y="565.918125"/>
      </g>
     </g>
     <g id="text_13">
      <!-- 14 -->
      <g transform="translate(141.518019 580.516563)scale(0.1 -0.1)">
       <use xlink:href="#DejaVuSans-49"/>
       <use x="63.623047" xlink:href="#DejaVuSans-52"/>
      </g>
     </g>
    </g>
    <g id="xtick_7">
     <g id="line2d_11">
      <g>
       <use style="stroke:#000000;stroke-width:0.8;" x="255.810886" xlink:href="#m10b4346946" y="565.918125"/>
      </g>
     </g>
     <g id="text_14">
      <!-- 16 -->
      <g transform="translate(249.448386 580.516563)scale(0.1 -0.1)">
       <use xlink:href="#DejaVuSans-49"/>
       <use x="63.623047" xlink:href="#DejaVuSans-54"/>
      </g>
     </g>
    </g>
    <g id="xtick_8">
     <g id="line2d_12">
      <g>
       <use style="stroke:#000000;stroke-width:0.8;" x="363.741254" xlink:href="#m10b4346946" y="565.918125"/>
      </g>
     </g>
     <g id="text_15">
      <!-- 18 -->
      <g transform="translate(357.378754 580.516563)scale(0.1 -0.1)">
       <use xlink:href="#DejaVuSans-49"/>
       <use x="63.623047" xlink:href="#DejaVuSans-56"/>
      </g>
     </g>
    </g>
    <g id="xtick_9">
     <g id="line2d_13">
      <g>
       <use style="stroke:#000000;stroke-width:0.8;" x="471.671621" xlink:href="#m10b4346946" y="565.918125"/>
      </g>
     </g>
     <g id="text_16">
      <!-- 20 -->
      <g transform="translate(465.309121 580.516563)scale(0.1 -0.1)">
       <use xlink:href="#DejaVuSans-50"/>
       <use x="63.623047" xlink:href="#DejaVuSans-48"/>
      </g>
     </g>
    </g>
    <g id="xtick_10">
     <g id="line2d_14">
      <g>
       <use style="stroke:#000000;stroke-width:0.8;" x="579.601989" xlink:href="#m10b4346946" y="565.918125"/>
      </g>
     </g>
     <g id="text_17">
      <!-- 22 -->
      <g transform="translate(573.239489 580.516563)scale(0.1 -0.1)">
       <use xlink:href="#DejaVuSans-50"/>
       <use x="63.623047" xlink:href="#DejaVuSans-50"/>
      </g>
     </g>
    </g>
    <g id="text_18">
     <!-- PTRATIO -->
     <g transform="translate(305.125 594.194688)scale(0.1 -0.1)">
      <use xlink:href="#DejaVuSans-80"/>
      <use x="60.302734" xlink:href="#DejaVuSans-84"/>
      <use x="121.386719" xlink:href="#DejaVuSans-82"/>
      <use x="186.869141" xlink:href="#DejaVuSans-65"/>
      <use x="247.527344" xlink:href="#DejaVuSans-84"/>
      <use x="308.611328" xlink:href="#DejaVuSans-73"/>
      <use x="338.103516" xlink:href="#DejaVuSans-79"/>
     </g>
    </g>
   </g>
   <g id="matplotlib.axis_4">
    <g id="ytick_5">
     <g id="line2d_15">
      <g>
       <use style="stroke:#000000;stroke-width:0.8;" x="46.965625" xlink:href="#ma681526b9f" y="350.352608"/>
      </g>
     </g>
    </g>
   </g>
   <g id="line2d_16">
    <path clip-path="url(#p3f67287e77)" d="M 126.294445 350.352608 
L 579.601989 350.352608 
" style="fill:none;stroke:#3f3f3f;stroke-linecap:square;stroke-width:1.5;"/>
   </g>
   <g id="line2d_17">
    <path clip-path="url(#p3f67287e77)" d="M 331.362143 350.352608 
L 482.464658 350.352608 
" style="fill:none;stroke:#3f3f3f;stroke-linecap:square;stroke-width:4.5;"/>
   </g>
   <g id="patch_20">
    <path d="M 46.965625 565.918125 
L 46.965625 134.787091 
" style="fill:none;stroke:#000000;stroke-linecap:square;stroke-linejoin:miter;stroke-width:0.8;"/>
   </g>
   <g id="patch_21">
    <path d="M 604.965625 565.918125 
L 604.965625 134.787091 
" style="fill:none;stroke:#000000;stroke-linecap:square;stroke-linejoin:miter;stroke-width:0.8;"/>
   </g>
   <g id="patch_22">
    <path d="M 46.965625 565.918125 
L 604.965625 565.918125 
" style="fill:none;stroke:#000000;stroke-linecap:square;stroke-linejoin:miter;stroke-width:0.8;"/>
   </g>
   <g id="patch_23">
    <path d="M 46.965625 134.787091 
L 604.965625 134.787091 
" style="fill:none;stroke:#000000;stroke-linecap:square;stroke-linejoin:miter;stroke-width:0.8;"/>
   </g>
   <g id="PathCollection_1">
    <defs>
     <path d="M 0 1.5 
C 0.397805 1.5 0.77937 1.341951 1.06066 1.06066 
C 1.341951 0.77937 1.5 0.397805 1.5 0 
C 1.5 -0.397805 1.341951 -0.77937 1.06066 -1.06066 
C 0.77937 -1.341951 0.397805 -1.5 0 -1.5 
C -0.397805 -1.5 -0.77937 -1.341951 -1.06066 -1.06066 
C -1.341951 -0.77937 -1.5 -0.397805 -1.5 0 
C -1.5 0.397805 -1.341951 0.77937 -1.06066 1.06066 
C -0.77937 1.341951 -0.397805 1.5 0 1.5 
z
" id="mcfcd0f8b1d" style="stroke:#3f3f3f;"/>
    </defs>
    <g clip-path="url(#p3f67287e77)">
     <use style="fill:#ffffff;stroke:#3f3f3f;" x="420.404697" xlink:href="#mcfcd0f8b1d" y="350.352608"/>
    </g>
   </g>
  </g>
 </g>
 <defs>
  <clipPath id="p94e44bff48">
   <rect height="93.724138" width="558" x="46.965625" y="22.318125"/>
  </clipPath>
  <clipPath id="p3f67287e77">
   <rect height="431.131034" width="558" x="46.965625" y="134.787091"/>
  </clipPath>
 </defs>
</svg>
