<?xml version="1.0" encoding="utf-8" standalone="no"?>
<!DOCTYPE svg PUBLIC "-//W3C//DTD SVG 1.1//EN"
  "http://www.w3.org/Graphics/SVG/1.1/DTD/svg11.dtd">
<!-- Created with matplotlib (https://matplotlib.org/) -->
<svg height="603.474375pt" version="1.1" viewBox="0 0 612.165625 603.474375" width="612.165625pt" xmlns="http://www.w3.org/2000/svg" xmlns:xlink="http://www.w3.org/1999/xlink">
 <metadata>
  <rdf:RDF xmlns:cc="http://creativecommons.org/ns#" xmlns:dc="http://purl.org/dc/elements/1.1/" xmlns:rdf="http://www.w3.org/1999/02/22-rdf-syntax-ns#">
   <cc:Work>
    <dc:type rdf:resource="http://purl.org/dc/dcmitype/StillImage"/>
    <dc:date>2020-10-06T19:10:05.290188</dc:date>
    <dc:format>image/svg+xml</dc:format>
    <dc:creator>
     <cc:Agent>
      <dc:title>Matplotlib v3.3.1, https://matplotlib.org/</dc:title>
     </cc:Agent>
    </dc:creator>
   </cc:Work>
  </rdf:RDF>
 </metadata>
 <defs>
  <style type="text/css">*{stroke-linecap:butt;stroke-linejoin:round;}</style>
 </defs>
 <g id="figure_1">
  <g id="patch_1">
   <path d="M 0 603.474375 
L 612.165625 603.474375 
L 612.165625 0 
L 0 0 
z
" style="fill:none;"/>
  </g>
  <g id="axes_1">
   <g id="patch_2">
    <path d="M 46.965625 116.042263 
L 604.965625 116.042263 
L 604.965625 22.318125 
L 46.965625 22.318125 
z
" style="fill:#ffffff;"/>
   </g>
   <g id="patch_3">
    <path clip-path="url(#pfe2c39813a)" d="M 72.329261 116.042263 
L 114.601989 116.042263 
L 114.601989 74.912156 
L 72.329261 74.912156 
z
" style="fill:#1f77b4;fill-opacity:0.75;stroke:#000000;stroke-linejoin:miter;"/>
   </g>
   <g id="patch_4">
    <path clip-path="url(#pfe2c39813a)" d="M 114.601989 116.042263 
L 156.874716 116.042263 
L 156.874716 26.781179 
L 114.601989 26.781179 
z
" style="fill:#1f77b4;fill-opacity:0.75;stroke:#000000;stroke-linejoin:miter;"/>
   </g>
   <g id="patch_5">
    <path clip-path="url(#pfe2c39813a)" d="M 156.874716 116.042263 
L 199.147443 116.042263 
L 199.147443 71.411721 
L 156.874716 71.411721 
z
" style="fill:#1f77b4;fill-opacity:0.75;stroke:#000000;stroke-linejoin:miter;"/>
   </g>
   <g id="patch_6">
    <path clip-path="url(#pfe2c39813a)" d="M 199.147443 116.042263 
L 241.42017 116.042263 
L 241.42017 42.533135 
L 199.147443 42.533135 
z
" style="fill:#1f77b4;fill-opacity:0.75;stroke:#000000;stroke-linejoin:miter;"/>
   </g>
   <g id="patch_7">
    <path clip-path="url(#pfe2c39813a)" d="M 241.42017 116.042263 
L 283.692898 116.042263 
L 283.692898 71.411721 
L 241.42017 71.411721 
z
" style="fill:#1f77b4;fill-opacity:0.75;stroke:#000000;stroke-linejoin:miter;"/>
   </g>
   <g id="patch_8">
    <path clip-path="url(#pfe2c39813a)" d="M 283.692898 116.042263 
L 325.965625 116.042263 
L 325.965625 74.912156 
L 283.692898 74.912156 
z
" style="fill:#1f77b4;fill-opacity:0.75;stroke:#000000;stroke-linejoin:miter;"/>
   </g>
   <g id="patch_9">
    <path clip-path="url(#pfe2c39813a)" d="M 325.965625 116.042263 
L 368.238352 116.042263 
L 368.238352 95.914764 
L 325.965625 95.914764 
z
" style="fill:#1f77b4;fill-opacity:0.75;stroke:#000000;stroke-linejoin:miter;"/>
   </g>
   <g id="patch_10">
    <path clip-path="url(#pfe2c39813a)" d="M 368.238352 116.042263 
L 410.51108 116.042263 
L 410.51108 81.037916 
L 368.238352 81.037916 
z
" style="fill:#1f77b4;fill-opacity:0.75;stroke:#000000;stroke-linejoin:miter;"/>
   </g>
   <g id="patch_11">
    <path clip-path="url(#pfe2c39813a)" d="M 410.51108 116.042263 
L 452.783807 116.042263 
L 452.783807 83.663242 
L 410.51108 83.663242 
z
" style="fill:#1f77b4;fill-opacity:0.75;stroke:#000000;stroke-linejoin:miter;"/>
   </g>
   <g id="patch_12">
    <path clip-path="url(#pfe2c39813a)" d="M 452.783807 116.042263 
L 495.056534 116.042263 
L 495.056534 109.041394 
L 452.783807 109.041394 
z
" style="fill:#1f77b4;fill-opacity:0.75;stroke:#000000;stroke-linejoin:miter;"/>
   </g>
   <g id="patch_13">
    <path clip-path="url(#pfe2c39813a)" d="M 495.056534 116.042263 
L 537.329261 116.042263 
L 537.329261 116.042263 
L 495.056534 116.042263 
z
" style="fill:#1f77b4;fill-opacity:0.75;stroke:#000000;stroke-linejoin:miter;"/>
   </g>
   <g id="patch_14">
    <path clip-path="url(#pfe2c39813a)" d="M 537.329261 116.042263 
L 579.601989 116.042263 
L 579.601989 102.040524 
L 537.329261 102.040524 
z
" style="fill:#1f77b4;fill-opacity:0.75;stroke:#000000;stroke-linejoin:miter;"/>
   </g>
   <g id="matplotlib.axis_1">
    <g id="xtick_1">
     <g id="line2d_1">
      <defs>
       <path d="M 0 0 
L 0 3.5 
" id="m33ff95d2ce" style="stroke:#000000;stroke-width:0.8;"/>
      </defs>
      <g>
       <use style="stroke:#000000;stroke-width:0.8;" x="87.985827" xlink:href="#m33ff95d2ce" y="116.042263"/>
      </g>
     </g>
     <g id="text_1">
      <!-- 0.4 -->
      <g transform="translate(80.034265 130.6407)scale(0.1 -0.1)">
       <defs>
        <path d="M 31.78125 66.40625 
Q 24.171875 66.40625 20.328125 58.90625 
Q 16.5 51.421875 16.5 36.375 
Q 16.5 21.390625 20.328125 13.890625 
Q 24.171875 6.390625 31.78125 6.390625 
Q 39.453125 6.390625 43.28125 13.890625 
Q 47.125 21.390625 47.125 36.375 
Q 47.125 51.421875 43.28125 58.90625 
Q 39.453125 66.40625 31.78125 66.40625 
z
M 31.78125 74.21875 
Q 44.046875 74.21875 50.515625 64.515625 
Q 56.984375 54.828125 56.984375 36.375 
Q 56.984375 17.96875 50.515625 8.265625 
Q 44.046875 -1.421875 31.78125 -1.421875 
Q 19.53125 -1.421875 13.0625 8.265625 
Q 6.59375 17.96875 6.59375 36.375 
Q 6.59375 54.828125 13.0625 64.515625 
Q 19.53125 74.21875 31.78125 74.21875 
z
" id="DejaVuSans-48"/>
        <path d="M 10.6875 12.40625 
L 21 12.40625 
L 21 0 
L 10.6875 0 
z
" id="DejaVuSans-46"/>
        <path d="M 37.796875 64.3125 
L 12.890625 25.390625 
L 37.796875 25.390625 
z
M 35.203125 72.90625 
L 47.609375 72.90625 
L 47.609375 25.390625 
L 58.015625 25.390625 
L 58.015625 17.1875 
L 47.609375 17.1875 
L 47.609375 0 
L 37.796875 0 
L 37.796875 17.1875 
L 4.890625 17.1875 
L 4.890625 26.703125 
z
" id="DejaVuSans-52"/>
       </defs>
       <use xlink:href="#DejaVuSans-48"/>
       <use x="63.623047" xlink:href="#DejaVuSans-46"/>
       <use x="95.410156" xlink:href="#DejaVuSans-52"/>
      </g>
     </g>
    </g>
    <g id="xtick_2">
     <g id="line2d_2">
      <g>
       <use style="stroke:#000000;stroke-width:0.8;" x="192.362931" xlink:href="#m33ff95d2ce" y="116.042263"/>
      </g>
     </g>
     <g id="text_2">
      <!-- 0.5 -->
      <g transform="translate(184.411369 130.6407)scale(0.1 -0.1)">
       <defs>
        <path d="M 10.796875 72.90625 
L 49.515625 72.90625 
L 49.515625 64.59375 
L 19.828125 64.59375 
L 19.828125 46.734375 
Q 21.96875 47.46875 24.109375 47.828125 
Q 26.265625 48.1875 28.421875 48.1875 
Q 40.625 48.1875 47.75 41.5 
Q 54.890625 34.8125 54.890625 23.390625 
Q 54.890625 11.625 47.5625 5.09375 
Q 40.234375 -1.421875 26.90625 -1.421875 
Q 22.3125 -1.421875 17.546875 -0.640625 
Q 12.796875 0.140625 7.71875 1.703125 
L 7.71875 11.625 
Q 12.109375 9.234375 16.796875 8.0625 
Q 21.484375 6.890625 26.703125 6.890625 
Q 35.15625 6.890625 40.078125 11.328125 
Q 45.015625 15.765625 45.015625 23.390625 
Q 45.015625 31 40.078125 35.4375 
Q 35.15625 39.890625 26.703125 39.890625 
Q 22.75 39.890625 18.8125 39.015625 
Q 14.890625 38.140625 10.796875 36.28125 
z
" id="DejaVuSans-53"/>
       </defs>
       <use xlink:href="#DejaVuSans-48"/>
       <use x="63.623047" xlink:href="#DejaVuSans-46"/>
       <use x="95.410156" xlink:href="#DejaVuSans-53"/>
      </g>
     </g>
    </g>
    <g id="xtick_3">
     <g id="line2d_3">
      <g>
       <use style="stroke:#000000;stroke-width:0.8;" x="296.740036" xlink:href="#m33ff95d2ce" y="116.042263"/>
      </g>
     </g>
     <g id="text_3">
      <!-- 0.6 -->
      <g transform="translate(288.788473 130.6407)scale(0.1 -0.1)">
       <defs>
        <path d="M 33.015625 40.375 
Q 26.375 40.375 22.484375 35.828125 
Q 18.609375 31.296875 18.609375 23.390625 
Q 18.609375 15.53125 22.484375 10.953125 
Q 26.375 6.390625 33.015625 6.390625 
Q 39.65625 6.390625 43.53125 10.953125 
Q 47.40625 15.53125 47.40625 23.390625 
Q 47.40625 31.296875 43.53125 35.828125 
Q 39.65625 40.375 33.015625 40.375 
z
M 52.59375 71.296875 
L 52.59375 62.3125 
Q 48.875 64.0625 45.09375 64.984375 
Q 41.3125 65.921875 37.59375 65.921875 
Q 27.828125 65.921875 22.671875 59.328125 
Q 17.53125 52.734375 16.796875 39.40625 
Q 19.671875 43.65625 24.015625 45.921875 
Q 28.375 48.1875 33.59375 48.1875 
Q 44.578125 48.1875 50.953125 41.515625 
Q 57.328125 34.859375 57.328125 23.390625 
Q 57.328125 12.15625 50.6875 5.359375 
Q 44.046875 -1.421875 33.015625 -1.421875 
Q 20.359375 -1.421875 13.671875 8.265625 
Q 6.984375 17.96875 6.984375 36.375 
Q 6.984375 53.65625 15.1875 63.9375 
Q 23.390625 74.21875 37.203125 74.21875 
Q 40.921875 74.21875 44.703125 73.484375 
Q 48.484375 72.75 52.59375 71.296875 
z
" id="DejaVuSans-54"/>
       </defs>
       <use xlink:href="#DejaVuSans-48"/>
       <use x="63.623047" xlink:href="#DejaVuSans-46"/>
       <use x="95.410156" xlink:href="#DejaVuSans-54"/>
      </g>
     </g>
    </g>
    <g id="xtick_4">
     <g id="line2d_4">
      <g>
       <use style="stroke:#000000;stroke-width:0.8;" x="401.11714" xlink:href="#m33ff95d2ce" y="116.042263"/>
      </g>
     </g>
     <g id="text_4">
      <!-- 0.7 -->
      <g transform="translate(393.165578 130.6407)scale(0.1 -0.1)">
       <defs>
        <path d="M 8.203125 72.90625 
L 55.078125 72.90625 
L 55.078125 68.703125 
L 28.609375 0 
L 18.3125 0 
L 43.21875 64.59375 
L 8.203125 64.59375 
z
" id="DejaVuSans-55"/>
       </defs>
       <use xlink:href="#DejaVuSans-48"/>
       <use x="63.623047" xlink:href="#DejaVuSans-46"/>
       <use x="95.410156" xlink:href="#DejaVuSans-55"/>
      </g>
     </g>
    </g>
    <g id="xtick_5">
     <g id="line2d_5">
      <g>
       <use style="stroke:#000000;stroke-width:0.8;" x="505.494245" xlink:href="#m33ff95d2ce" y="116.042263"/>
      </g>
     </g>
     <g id="text_5">
      <!-- 0.8 -->
      <g transform="translate(497.542682 130.6407)scale(0.1 -0.1)">
       <defs>
        <path d="M 31.78125 34.625 
Q 24.75 34.625 20.71875 30.859375 
Q 16.703125 27.09375 16.703125 20.515625 
Q 16.703125 13.921875 20.71875 10.15625 
Q 24.75 6.390625 31.78125 6.390625 
Q 38.8125 6.390625 42.859375 10.171875 
Q 46.921875 13.96875 46.921875 20.515625 
Q 46.921875 27.09375 42.890625 30.859375 
Q 38.875 34.625 31.78125 34.625 
z
M 21.921875 38.8125 
Q 15.578125 40.375 12.03125 44.71875 
Q 8.5 49.078125 8.5 55.328125 
Q 8.5 64.0625 14.71875 69.140625 
Q 20.953125 74.21875 31.78125 74.21875 
Q 42.671875 74.21875 48.875 69.140625 
Q 55.078125 64.0625 55.078125 55.328125 
Q 55.078125 49.078125 51.53125 44.71875 
Q 48 40.375 41.703125 38.8125 
Q 48.828125 37.15625 52.796875 32.3125 
Q 56.78125 27.484375 56.78125 20.515625 
Q 56.78125 9.90625 50.3125 4.234375 
Q 43.84375 -1.421875 31.78125 -1.421875 
Q 19.734375 -1.421875 13.25 4.234375 
Q 6.78125 9.90625 6.78125 20.515625 
Q 6.78125 27.484375 10.78125 32.3125 
Q 14.796875 37.15625 21.921875 38.8125 
z
M 18.3125 54.390625 
Q 18.3125 48.734375 21.84375 45.5625 
Q 25.390625 42.390625 31.78125 42.390625 
Q 38.140625 42.390625 41.71875 45.5625 
Q 45.3125 48.734375 45.3125 54.390625 
Q 45.3125 60.0625 41.71875 63.234375 
Q 38.140625 66.40625 31.78125 66.40625 
Q 25.390625 66.40625 21.84375 63.234375 
Q 18.3125 60.0625 18.3125 54.390625 
z
" id="DejaVuSans-56"/>
       </defs>
       <use xlink:href="#DejaVuSans-48"/>
       <use x="63.623047" xlink:href="#DejaVuSans-46"/>
       <use x="95.410156" xlink:href="#DejaVuSans-56"/>
      </g>
     </g>
    </g>
    <g id="text_6">
     <!-- NOX -->
     <g transform="translate(315.182813 144.318825)scale(0.1 -0.1)">
      <defs>
       <path d="M 9.8125 72.90625 
L 23.09375 72.90625 
L 55.421875 11.921875 
L 55.421875 72.90625 
L 64.984375 72.90625 
L 64.984375 0 
L 51.703125 0 
L 19.390625 60.984375 
L 19.390625 0 
L 9.8125 0 
z
" id="DejaVuSans-78"/>
       <path d="M 39.40625 66.21875 
Q 28.65625 66.21875 22.328125 58.203125 
Q 16.015625 50.203125 16.015625 36.375 
Q 16.015625 22.609375 22.328125 14.59375 
Q 28.65625 6.59375 39.40625 6.59375 
Q 50.140625 6.59375 56.421875 14.59375 
Q 62.703125 22.609375 62.703125 36.375 
Q 62.703125 50.203125 56.421875 58.203125 
Q 50.140625 66.21875 39.40625 66.21875 
z
M 39.40625 74.21875 
Q 54.734375 74.21875 63.90625 63.9375 
Q 73.09375 53.65625 73.09375 36.375 
Q 73.09375 19.140625 63.90625 8.859375 
Q 54.734375 -1.421875 39.40625 -1.421875 
Q 24.03125 -1.421875 14.8125 8.828125 
Q 5.609375 19.09375 5.609375 36.375 
Q 5.609375 53.65625 14.8125 63.9375 
Q 24.03125 74.21875 39.40625 74.21875 
z
" id="DejaVuSans-79"/>
       <path d="M 6.296875 72.90625 
L 16.890625 72.90625 
L 35.015625 45.796875 
L 53.21875 72.90625 
L 63.8125 72.90625 
L 40.375 37.890625 
L 65.375 0 
L 54.78125 0 
L 34.28125 31 
L 13.625 0 
L 2.984375 0 
L 29 38.921875 
z
" id="DejaVuSans-88"/>
      </defs>
      <use xlink:href="#DejaVuSans-78"/>
      <use x="74.804688" xlink:href="#DejaVuSans-79"/>
      <use x="147.140625" xlink:href="#DejaVuSans-88"/>
     </g>
    </g>
   </g>
   <g id="matplotlib.axis_2">
    <g id="ytick_1">
     <g id="line2d_6">
      <defs>
       <path d="M 0 0 
L -3.5 0 
" id="ma88d445329" style="stroke:#000000;stroke-width:0.8;"/>
      </defs>
      <g>
       <use style="stroke:#000000;stroke-width:0.8;" x="46.965625" xlink:href="#ma88d445329" y="116.042263"/>
      </g>
     </g>
     <g id="text_7">
      <!-- 0 -->
      <g transform="translate(33.603125 119.841482)scale(0.1 -0.1)">
       <use xlink:href="#DejaVuSans-48"/>
      </g>
     </g>
    </g>
    <g id="ytick_2">
     <g id="line2d_7">
      <g>
       <use style="stroke:#000000;stroke-width:0.8;" x="46.965625" xlink:href="#ma88d445329" y="72.28683"/>
      </g>
     </g>
     <g id="text_8">
      <!-- 50 -->
      <g transform="translate(27.240625 76.086048)scale(0.1 -0.1)">
       <use xlink:href="#DejaVuSans-53"/>
       <use x="63.623047" xlink:href="#DejaVuSans-48"/>
      </g>
     </g>
    </g>
    <g id="ytick_3">
     <g id="line2d_8">
      <g>
       <use style="stroke:#000000;stroke-width:0.8;" x="46.965625" xlink:href="#ma88d445329" y="28.531397"/>
      </g>
     </g>
     <g id="text_9">
      <!-- 100 -->
      <g transform="translate(20.878125 32.330615)scale(0.1 -0.1)">
       <defs>
        <path d="M 12.40625 8.296875 
L 28.515625 8.296875 
L 28.515625 63.921875 
L 10.984375 60.40625 
L 10.984375 69.390625 
L 28.421875 72.90625 
L 38.28125 72.90625 
L 38.28125 8.296875 
L 54.390625 8.296875 
L 54.390625 0 
L 12.40625 0 
z
" id="DejaVuSans-49"/>
       </defs>
       <use xlink:href="#DejaVuSans-49"/>
       <use x="63.623047" xlink:href="#DejaVuSans-48"/>
       <use x="127.246094" xlink:href="#DejaVuSans-48"/>
      </g>
     </g>
    </g>
    <g id="text_10">
     <!-- Count -->
     <g transform="translate(14.798437 84.028631)rotate(-90)scale(0.1 -0.1)">
      <defs>
       <path d="M 64.40625 67.28125 
L 64.40625 56.890625 
Q 59.421875 61.53125 53.78125 63.8125 
Q 48.140625 66.109375 41.796875 66.109375 
Q 29.296875 66.109375 22.65625 58.46875 
Q 16.015625 50.828125 16.015625 36.375 
Q 16.015625 21.96875 22.65625 14.328125 
Q 29.296875 6.6875 41.796875 6.6875 
Q 48.140625 6.6875 53.78125 8.984375 
Q 59.421875 11.28125 64.40625 15.921875 
L 64.40625 5.609375 
Q 59.234375 2.09375 53.4375 0.328125 
Q 47.65625 -1.421875 41.21875 -1.421875 
Q 24.65625 -1.421875 15.125 8.703125 
Q 5.609375 18.84375 5.609375 36.375 
Q 5.609375 53.953125 15.125 64.078125 
Q 24.65625 74.21875 41.21875 74.21875 
Q 47.75 74.21875 53.53125 72.484375 
Q 59.328125 70.75 64.40625 67.28125 
z
" id="DejaVuSans-67"/>
       <path d="M 30.609375 48.390625 
Q 23.390625 48.390625 19.1875 42.75 
Q 14.984375 37.109375 14.984375 27.296875 
Q 14.984375 17.484375 19.15625 11.84375 
Q 23.34375 6.203125 30.609375 6.203125 
Q 37.796875 6.203125 41.984375 11.859375 
Q 46.1875 17.53125 46.1875 27.296875 
Q 46.1875 37.015625 41.984375 42.703125 
Q 37.796875 48.390625 30.609375 48.390625 
z
M 30.609375 56 
Q 42.328125 56 49.015625 48.375 
Q 55.71875 40.765625 55.71875 27.296875 
Q 55.71875 13.875 49.015625 6.21875 
Q 42.328125 -1.421875 30.609375 -1.421875 
Q 18.84375 -1.421875 12.171875 6.21875 
Q 5.515625 13.875 5.515625 27.296875 
Q 5.515625 40.765625 12.171875 48.375 
Q 18.84375 56 30.609375 56 
z
" id="DejaVuSans-111"/>
       <path d="M 8.5 21.578125 
L 8.5 54.6875 
L 17.484375 54.6875 
L 17.484375 21.921875 
Q 17.484375 14.15625 20.5 10.265625 
Q 23.53125 6.390625 29.59375 6.390625 
Q 36.859375 6.390625 41.078125 11.03125 
Q 45.3125 15.671875 45.3125 23.6875 
L 45.3125 54.6875 
L 54.296875 54.6875 
L 54.296875 0 
L 45.3125 0 
L 45.3125 8.40625 
Q 42.046875 3.421875 37.71875 1 
Q 33.40625 -1.421875 27.6875 -1.421875 
Q 18.265625 -1.421875 13.375 4.4375 
Q 8.5 10.296875 8.5 21.578125 
z
M 31.109375 56 
z
" id="DejaVuSans-117"/>
       <path d="M 54.890625 33.015625 
L 54.890625 0 
L 45.90625 0 
L 45.90625 32.71875 
Q 45.90625 40.484375 42.875 44.328125 
Q 39.84375 48.1875 33.796875 48.1875 
Q 26.515625 48.1875 22.3125 43.546875 
Q 18.109375 38.921875 18.109375 30.90625 
L 18.109375 0 
L 9.078125 0 
L 9.078125 54.6875 
L 18.109375 54.6875 
L 18.109375 46.1875 
Q 21.34375 51.125 25.703125 53.5625 
Q 30.078125 56 35.796875 56 
Q 45.21875 56 50.046875 50.171875 
Q 54.890625 44.34375 54.890625 33.015625 
z
" id="DejaVuSans-110"/>
       <path d="M 18.3125 70.21875 
L 18.3125 54.6875 
L 36.8125 54.6875 
L 36.8125 47.703125 
L 18.3125 47.703125 
L 18.3125 18.015625 
Q 18.3125 11.328125 20.140625 9.421875 
Q 21.96875 7.515625 27.59375 7.515625 
L 36.8125 7.515625 
L 36.8125 0 
L 27.59375 0 
Q 17.1875 0 13.234375 3.875 
Q 9.28125 7.765625 9.28125 18.015625 
L 9.28125 47.703125 
L 2.6875 47.703125 
L 2.6875 54.6875 
L 9.28125 54.6875 
L 9.28125 70.21875 
z
" id="DejaVuSans-116"/>
      </defs>
      <use xlink:href="#DejaVuSans-67"/>
      <use x="69.824219" xlink:href="#DejaVuSans-111"/>
      <use x="131.005859" xlink:href="#DejaVuSans-117"/>
      <use x="194.384766" xlink:href="#DejaVuSans-110"/>
      <use x="257.763672" xlink:href="#DejaVuSans-116"/>
     </g>
    </g>
   </g>
   <g id="patch_15">
    <path d="M 46.965625 116.042263 
L 46.965625 22.318125 
" style="fill:none;stroke:#000000;stroke-linecap:square;stroke-linejoin:miter;stroke-width:0.8;"/>
   </g>
   <g id="patch_16">
    <path d="M 46.965625 116.042263 
L 604.965625 116.042263 
" style="fill:none;stroke:#000000;stroke-linecap:square;stroke-linejoin:miter;stroke-width:0.8;"/>
   </g>
   <g id="text_11">
    <!-- NOX -->
    <g transform="translate(313.02625 16.318125)scale(0.12 -0.12)">
     <use xlink:href="#DejaVuSans-78"/>
     <use x="74.804688" xlink:href="#DejaVuSans-79"/>
     <use x="147.140625" xlink:href="#DejaVuSans-88"/>
    </g>
   </g>
  </g>
  <g id="axes_2">
   <g id="patch_17">
    <path d="M 46.965625 565.918125 
L 604.965625 565.918125 
L 604.965625 134.787091 
L 46.965625 134.787091 
z
" style="fill:#ffffff;"/>
   </g>
   <g id="PolyCollection_1">
    <defs>
     <path d="M 72.329261 -178.103996 
L 72.329261 -328.139538 
L 77.453228 -339.484052 
L 82.577195 -351.106405 
L 87.701162 -362.723733 
L 92.825129 -374.033456 
L 97.949096 -384.731063 
L 103.073063 -394.529812 
L 108.19703 -403.180802 
L 113.320997 -410.49155 
L 118.444964 -416.341141 
L 123.568931 -420.690113 
L 128.692898 -423.583625 
L 133.816865 -425.147078 
L 138.940832 -425.574181 
L 144.064799 -425.108402 
L 149.188765 -424.019634 
L 154.312732 -422.578592 
L 159.436699 -421.031839 
L 164.560666 -419.58029 
L 169.684633 -418.3636 
L 174.8086 -417.452017 
L 179.932567 -416.846328 
L 185.056534 -416.485443 
L 190.180501 -416.260283 
L 195.304468 -416.031955 
L 200.428435 -415.651861 
L 205.552402 -414.981347 
L 210.676369 -413.908749 
L 215.800336 -412.362126 
L 220.924303 -410.316542 
L 226.04827 -407.795409 
L 231.172237 -404.866021 
L 236.296204 -401.630038 
L 241.42017 -398.210214 
L 246.544137 -394.735068 
L 251.668104 -391.323433 
L 256.792071 -388.070837 
L 261.916038 -385.039428 
L 267.040005 -382.252669 
L 272.163972 -379.695393 
L 277.287939 -377.319044 
L 282.411906 -375.051238 
L 287.535873 -372.808206 
L 292.65984 -370.508329 
L 297.783807 -368.08494 
L 302.907774 -365.496742 
L 308.031741 -362.734619 
L 313.155708 -359.824138 
L 318.279675 -356.823621 
L 323.403642 -353.818194 
L 328.527608 -350.91064 
L 333.651575 -348.210162 
L 338.775542 -345.820315 
L 343.899509 -343.827361 
L 349.023476 -342.290204 
L 354.147443 -341.232843 
L 359.27141 -340.64005 
L 364.395377 -340.456663 
L 369.519344 -340.590544 
L 374.643311 -340.918965 
L 379.767278 -341.297819 
L 384.891245 -341.572833 
L 390.015212 -341.591723 
L 395.139179 -341.216136 
L 400.263146 -340.33224 
L 405.387113 -338.858936 
L 410.51108 -336.75295 
L 415.635046 -334.010394 
L 420.759013 -330.664821 
L 425.88298 -326.782162 
L 431.006947 -322.453338 
L 436.130914 -317.785511 
L 441.254881 -312.893077 
L 446.378848 -307.889399 
L 451.502815 -302.880103 
L 456.626782 -297.958441 
L 461.750749 -293.202883 
L 466.874716 -288.676805 
L 471.998683 -284.429837 
L 477.12265 -280.500299 
L 482.246617 -276.918089 
L 487.370584 -273.707415 
L 492.494551 -270.888902 
L 497.618518 -268.480734 
L 502.742485 -266.498695 
L 507.866451 -264.955114 
L 512.990418 -263.856893 
L 518.114385 -263.202874 
L 523.238352 -262.980944 
L 528.362319 -263.165309 
L 533.486286 -263.714405 
L 538.610253 -264.569935 
L 543.73422 -265.657408 
L 548.858187 -266.888467 
L 553.982154 -268.165041 
L 559.106121 -269.385153 
L 564.230088 -270.449884 
L 569.354055 -271.270804 
L 574.478022 -271.776983 
L 579.601989 -271.920697 
L 579.601989 -234.322838 
L 579.601989 -234.322838 
L 574.478022 -234.466552 
L 569.354055 -234.972731 
L 564.230088 -235.793651 
L 559.106121 -236.858382 
L 553.982154 -238.078494 
L 548.858187 -239.355068 
L 543.73422 -240.586126 
L 538.610253 -241.6736 
L 533.486286 -242.529129 
L 528.362319 -243.078226 
L 523.238352 -243.26259 
L 518.114385 -243.040661 
L 512.990418 -242.386642 
L 507.866451 -241.28842 
L 502.742485 -239.74484 
L 497.618518 -237.7628 
L 492.494551 -235.354632 
L 487.370584 -232.536119 
L 482.246617 -229.325446 
L 477.12265 -225.743235 
L 471.998683 -221.813697 
L 466.874716 -217.566729 
L 461.750749 -213.040651 
L 456.626782 -208.285093 
L 451.502815 -203.363431 
L 446.378848 -198.354136 
L 441.254881 -193.350458 
L 436.130914 -188.458023 
L 431.006947 -183.790196 
L 425.88298 -179.461372 
L 420.759013 -175.578714 
L 415.635046 -172.23314 
L 410.51108 -169.490585 
L 405.387113 -167.384598 
L 400.263146 -165.911294 
L 395.139179 -165.027398 
L 390.015212 -164.651812 
L 384.891245 -164.670701 
L 379.767278 -164.945715 
L 374.643311 -165.324569 
L 369.519344 -165.65299 
L 364.395377 -165.786872 
L 359.27141 -165.603484 
L 354.147443 -165.010691 
L 349.023476 -163.95333 
L 343.899509 -162.416173 
L 338.775542 -160.42322 
L 333.651575 -158.033372 
L 328.527608 -155.332894 
L 323.403642 -152.425341 
L 318.279675 -149.419914 
L 313.155708 -146.419397 
L 308.031741 -143.508915 
L 302.907774 -140.746793 
L 297.783807 -138.158595 
L 292.65984 -135.735206 
L 287.535873 -133.435329 
L 282.411906 -131.192297 
L 277.287939 -128.924491 
L 272.163972 -126.548141 
L 267.040005 -123.990865 
L 261.916038 -121.204107 
L 256.792071 -118.172698 
L 251.668104 -114.920102 
L 246.544137 -111.508466 
L 241.42017 -108.03332 
L 236.296204 -104.613497 
L 231.172237 -101.377514 
L 226.04827 -98.448125 
L 220.924303 -95.926992 
L 215.800336 -93.881408 
L 210.676369 -92.334785 
L 205.552402 -91.262188 
L 200.428435 -90.591674 
L 195.304468 -90.211579 
L 190.180501 -89.983251 
L 185.056534 -89.758092 
L 179.932567 -89.397207 
L 174.8086 -88.791517 
L 169.684633 -87.879934 
L 164.560666 -86.663244 
L 159.436699 -85.211696 
L 154.312732 -83.664943 
L 149.188765 -82.2239 
L 144.064799 -81.135132 
L 138.940832 -80.669353 
L 133.816865 -81.096456 
L 128.692898 -82.659909 
L 123.568931 -85.553421 
L 118.444964 -89.902393 
L 113.320997 -95.751984 
L 108.19703 -103.062733 
L 103.073063 -111.713723 
L 97.949096 -121.512472 
L 92.825129 -132.210078 
L 87.701162 -143.519802 
L 82.577195 -155.137129 
L 77.453228 -166.759482 
L 72.329261 -178.103996 
z
" id="m00b30790c1" style="stroke:#3f3f3f;stroke-width:1.5;"/>
    </defs>
    <g clip-path="url(#p1c977894c3)">
     <use style="fill:#3274a1;stroke:#3f3f3f;stroke-width:1.5;" x="0" xlink:href="#m00b30790c1" y="603.474375"/>
    </g>
   </g>
   <g id="matplotlib.axis_3">
    <g id="xtick_6">
     <g id="line2d_9">
      <g>
       <use style="stroke:#000000;stroke-width:0.8;" x="87.985827" xlink:href="#m33ff95d2ce" y="565.918125"/>
      </g>
     </g>
     <g id="text_12">
      <!-- 0.4 -->
      <g transform="translate(80.034265 580.516563)scale(0.1 -0.1)">
       <use xlink:href="#DejaVuSans-48"/>
       <use x="63.623047" xlink:href="#DejaVuSans-46"/>
       <use x="95.410156" xlink:href="#DejaVuSans-52"/>
      </g>
     </g>
    </g>
    <g id="xtick_7">
     <g id="line2d_10">
      <g>
       <use style="stroke:#000000;stroke-width:0.8;" x="192.362931" xlink:href="#m33ff95d2ce" y="565.918125"/>
      </g>
     </g>
     <g id="text_13">
      <!-- 0.5 -->
      <g transform="translate(184.411369 580.516563)scale(0.1 -0.1)">
       <use xlink:href="#DejaVuSans-48"/>
       <use x="63.623047" xlink:href="#DejaVuSans-46"/>
       <use x="95.410156" xlink:href="#DejaVuSans-53"/>
      </g>
     </g>
    </g>
    <g id="xtick_8">
     <g id="line2d_11">
      <g>
       <use style="stroke:#000000;stroke-width:0.8;" x="296.740036" xlink:href="#m33ff95d2ce" y="565.918125"/>
      </g>
     </g>
     <g id="text_14">
      <!-- 0.6 -->
      <g transform="translate(288.788473 580.516563)scale(0.1 -0.1)">
       <use xlink:href="#DejaVuSans-48"/>
       <use x="63.623047" xlink:href="#DejaVuSans-46"/>
       <use x="95.410156" xlink:href="#DejaVuSans-54"/>
      </g>
     </g>
    </g>
    <g id="xtick_9">
     <g id="line2d_12">
      <g>
       <use style="stroke:#000000;stroke-width:0.8;" x="401.11714" xlink:href="#m33ff95d2ce" y="565.918125"/>
      </g>
     </g>
     <g id="text_15">
      <!-- 0.7 -->
      <g transform="translate(393.165578 580.516563)scale(0.1 -0.1)">
       <use xlink:href="#DejaVuSans-48"/>
       <use x="63.623047" xlink:href="#DejaVuSans-46"/>
       <use x="95.410156" xlink:href="#DejaVuSans-55"/>
      </g>
     </g>
    </g>
    <g id="xtick_10">
     <g id="line2d_13">
      <g>
       <use style="stroke:#000000;stroke-width:0.8;" x="505.494245" xlink:href="#m33ff95d2ce" y="565.918125"/>
      </g>
     </g>
     <g id="text_16">
      <!-- 0.8 -->
      <g transform="translate(497.542682 580.516563)scale(0.1 -0.1)">
       <use xlink:href="#DejaVuSans-48"/>
       <use x="63.623047" xlink:href="#DejaVuSans-46"/>
       <use x="95.410156" xlink:href="#DejaVuSans-56"/>
      </g>
     </g>
    </g>
    <g id="text_17">
     <!-- NOX -->
     <g transform="translate(315.182813 594.194688)scale(0.1 -0.1)">
      <use xlink:href="#DejaVuSans-78"/>
      <use x="74.804688" xlink:href="#DejaVuSans-79"/>
      <use x="147.140625" xlink:href="#DejaVuSans-88"/>
     </g>
    </g>
   </g>
   <g id="matplotlib.axis_4">
    <g id="ytick_4">
     <g id="line2d_14">
      <g>
       <use style="stroke:#000000;stroke-width:0.8;" x="46.965625" xlink:href="#ma88d445329" y="350.352608"/>
      </g>
     </g>
    </g>
   </g>
   <g id="line2d_15">
    <path clip-path="url(#p1c977894c3)" d="M 72.329261 350.352608 
L 579.601989 350.352608 
" style="fill:none;stroke:#3f3f3f;stroke-linecap:square;stroke-width:1.5;"/>
   </g>
   <g id="line2d_16">
    <path clip-path="url(#p1c977894c3)" d="M 139.130608 350.352608 
L 321.790541 350.352608 
" style="fill:none;stroke:#3f3f3f;stroke-linecap:square;stroke-width:4.5;"/>
   </g>
   <g id="patch_18">
    <path d="M 46.965625 565.918125 
L 46.965625 134.787091 
" style="fill:none;stroke:#000000;stroke-linecap:square;stroke-linejoin:miter;stroke-width:0.8;"/>
   </g>
   <g id="patch_19">
    <path d="M 604.965625 565.918125 
L 604.965625 134.787091 
" style="fill:none;stroke:#000000;stroke-linecap:square;stroke-linejoin:miter;stroke-width:0.8;"/>
   </g>
   <g id="patch_20">
    <path d="M 46.965625 565.918125 
L 604.965625 565.918125 
" style="fill:none;stroke:#000000;stroke-linecap:square;stroke-linejoin:miter;stroke-width:0.8;"/>
   </g>
   <g id="patch_21">
    <path d="M 46.965625 134.787091 
L 604.965625 134.787091 
" style="fill:none;stroke:#000000;stroke-linecap:square;stroke-linejoin:miter;stroke-width:0.8;"/>
   </g>
   <g id="PathCollection_1">
    <defs>
     <path d="M 0 1.5 
C 0.397805 1.5 0.77937 1.341951 1.06066 1.06066 
C 1.341951 0.77937 1.5 0.397805 1.5 0 
C 1.5 -0.397805 1.341951 -0.77937 1.06066 -1.06066 
C 0.77937 -1.341951 0.397805 -1.5 0 -1.5 
C -0.397805 -1.5 -0.77937 -1.341951 -1.06066 -1.06066 
C -1.341951 -0.77937 -1.5 -0.397805 -1.5 0 
C -1.5 0.397805 -1.341951 0.77937 -1.06066 1.06066 
C -0.77937 1.341951 -0.397805 1.5 0 1.5 
z
" id="m587108ee1b" style="stroke:#3f3f3f;"/>
    </defs>
    <g clip-path="url(#p1c977894c3)">
     <use style="fill:#ffffff;stroke:#3f3f3f;" x="232.026231" xlink:href="#m587108ee1b" y="350.352608"/>
    </g>
   </g>
  </g>
 </g>
 <defs>
  <clipPath id="pfe2c39813a">
   <rect height="93.724138" width="558" x="46.965625" y="22.318125"/>
  </clipPath>
  <clipPath id="p1c977894c3">
   <rect height="431.131034" width="558" x="46.965625" y="134.787091"/>
  </clipPath>
 </defs>
</svg>
