<svg xmlns="http://www.w3.org/2000/svg" xmlns:xlink="http://www.w3.org/1999/xlink" width="306" height="30" viewBox="0 0 306 30">
    <defs>
        <path id="prefix__a" d="M0 29.768L306 29.768 306 0 0 0z"/>
    </defs>
    <g fill="none" fill-rule="evenodd">
        <path fill="#6C698D" d="M8.658 26.471c1.779 0 3.32-.87 4.902-2.65V13.777c-1.621-1.463-3.084-2.017-4.665-2.017-3.084 0-5.535 2.966-5.535 7.356 0 4.588 1.937 7.356 5.298 7.356M8.34 9.031c2.214 0 3.677.83 5.377 2.215l-.158-3.283V.567h3.281v28.159h-2.688l-.277-2.255h-.118c-1.503 1.464-3.558 2.73-5.812 2.73C3.123 29.2 0 25.561 0 19.154 0 12.906 3.954 9.03 8.341 9.03M31.9 26.59c1.858 0 3.4-.91 5.258-2.57v-5.34c-6.444.791-8.618 2.374-8.618 4.825 0 2.175 1.463 3.085 3.36 3.085m5.258-10.045c0-2.452-.83-4.825-3.953-4.825-2.253 0-4.23 1.028-5.733 2.056l-1.303-2.254c1.778-1.146 4.466-2.492 7.55-2.492 4.704 0 6.68 3.125 6.68 7.91v11.786h-2.688l-.276-2.294h-.08c-1.857 1.503-3.992 2.768-6.364 2.768-3.241 0-5.653-2.017-5.653-5.457 0-4.192 3.637-6.288 11.82-7.198M50.044 12.155h-2.847V9.703l3.005-.198.395-5.379h2.728v5.38h5.178v2.65h-5.178v10.677c0 2.373.751 3.717 2.965 3.717.671 0 1.54-.277 2.174-.514l.632 2.452c-1.066.356-2.372.713-3.557.713-4.112 0-5.495-2.611-5.495-6.408V12.155zM70.718 26.59c1.858 0 3.4-.91 5.258-2.57v-5.34c-6.444.791-8.618 2.374-8.618 4.825 0 2.175 1.463 3.085 3.36 3.085m5.258-10.045c0-2.452-.83-4.825-3.953-4.825-2.254 0-4.23 1.028-5.733 2.056l-1.304-2.254c1.78-1.146 4.467-2.492 7.55-2.492 4.705 0 6.682 3.125 6.682 7.91v11.786H76.53l-.277-2.294h-.08c-1.858 1.503-3.992 2.768-6.364 2.768-3.242 0-5.653-2.017-5.653-5.457 0-4.192 3.637-6.288 11.82-7.198"/>
        <path fill="#E97200" d="M156.147 26.471c1.779 0 3.321-.87 4.902-2.65V13.777c-1.62-1.463-3.083-2.017-4.664-2.017-3.084 0-5.535 2.966-5.535 7.356 0 4.588 1.937 7.356 5.297 7.356m-.316-17.44c2.214 0 3.677.83 5.376 2.215l-.158-3.283V.567h3.281v28.159h-2.688l-.277-2.255h-.118c-1.502 1.464-3.558 2.73-5.811 2.73-4.823 0-7.946-3.639-7.946-10.046 0-6.249 3.953-10.125 8.34-10.125M185.794 17.692c0-3.916-1.74-6.09-4.744-6.09-2.688 0-5.139 2.214-5.535 6.09h10.279zm-4.823-8.661c4.902 0 7.67 3.519 7.67 9.017 0 .672-.04 1.305-.119 1.78h-12.967c.237 4.152 2.728 6.762 6.405 6.762 1.818 0 3.36-.593 4.783-1.503l1.146 2.136c-1.66 1.068-3.716 1.977-6.325 1.977-5.14 0-9.21-3.757-9.21-10.045s4.23-10.124 8.617-10.124zM195.833 24.375c1.66 1.345 3.36 2.294 5.653 2.294 2.53 0 3.795-1.344 3.795-3.005 0-1.977-2.293-2.848-4.388-3.64-2.728-.988-5.732-2.293-5.732-5.536 0-3.085 2.45-5.457 6.602-5.457 2.411 0 4.506.988 5.97 2.175l-1.543 2.056c-1.304-.989-2.688-1.7-4.388-1.7-2.411 0-3.518 1.305-3.518 2.768 0 1.78 2.095 2.492 4.27 3.322 2.767 1.029 5.85 2.175 5.85 5.814 0 3.124-2.49 5.734-7.037 5.734-2.728 0-5.336-1.147-7.155-2.65l1.62-2.175zM223.701 9.03c2.53 0 4.31 1.068 5.614 2.294l-1.62 2.097c-1.147-.989-2.333-1.701-3.875-1.701-3.479 0-6.009 3.005-6.009 7.435 0 4.39 2.412 7.356 5.93 7.356 1.819 0 3.36-.91 4.507-1.938l1.462 2.136c-1.739 1.542-3.952 2.492-6.246 2.492-5.1 0-9.013-3.678-9.013-10.046 0-6.446 4.31-10.125 9.25-10.125M236.864 9.505h2.688l.277 3.48h.118c1.304-2.412 3.282-3.955 5.456-3.955.83 0 1.423.12 2.056.396l-.633 2.847c-.633-.197-1.068-.316-1.858-.316-1.621 0-3.558 1.186-4.862 4.43v12.339h-3.242V9.506z"/>
        <mask id="prefix__b" fill="#fff">
            <use xlink:href="#prefix__a"/>
        </mask>
        <path fill="#E97200" d="M253.544 28.726h3.242V9.505h-3.242v19.22zm-.592-25.271c0-1.266.987-2.097 2.253-2.097 1.265 0 2.253.83 2.253 2.097 0 1.226-.988 2.096-2.253 2.096-1.266 0-2.253-.87-2.253-2.096zM274.179 26.471c3.162 0 5.495-2.887 5.495-7.633 0-4.231-1.423-7.079-5.06-7.079-1.621 0-3.321.91-5.14 2.61v10.085c1.7 1.464 3.44 2.017 4.705 2.017zM266.232.567h3.242V8.24l-.079 3.48c1.74-1.543 3.874-2.69 6.01-2.69 4.98 0 7.629 3.837 7.629 9.769 0 6.565-3.914 10.401-8.302 10.401-1.78 0-3.795-.87-5.495-2.373h-.119l-.276 1.899h-2.61V.567zM303.154 17.692c0-3.916-1.74-6.09-4.744-6.09-2.688 0-5.14 2.214-5.535 6.09h10.279zM298.33 9.03c4.903 0 7.67 3.519 7.67 9.017 0 .672-.04 1.305-.119 1.78h-12.966c.237 4.152 2.727 6.762 6.404 6.762 1.818 0 3.36-.593 4.783-1.503l1.147 2.136c-1.66 1.068-3.716 1.977-6.325 1.977-5.14 0-9.212-3.757-9.212-10.045s4.23-10.124 8.618-10.124z" mask="url(#prefix__b)"/>
        <path fill="#6C698D" d="M101.61 29.768l-.03-.235c-.39-3.1.487-6.139 2.47-8.553 1.985-2.415 4.793-3.865 7.91-4.083l4.77-.334c8.695-.61 15.278-7.868 15.06-16.563h-4.944c.218 6.096-4.378 11.206-10.461 11.631l-4.77.335c-4.485.314-8.527 2.4-11.382 5.875-2.772 3.375-4.043 7.594-3.6 11.927" mask="url(#prefix__b)"/>
    </g>
</svg>